<svg width="1440" height="1024" viewBox="0 0 1440 1024" fill="none" xmlns="http://www.w3.org/2000/svg">
<g opacity="0.4">
<path opacity="0.0144928" d="M-617.609 554.981L-629.408 154.447C-629.586 148.388 -627.363 142.504 -623.221 138.076L-234.874 -277.088C-231.615 -280.571 -227.352 -282.956 -222.676 -283.912L266.981 -383.982C275.45 -385.713 284.176 -382.555 289.573 -375.807L508.677 -101.812C514.073 -95.0631 515.229 -85.8628 511.669 -77.9929L305.843 377.015C303.878 381.361 300.608 384.987 296.488 387.393L-194.578 674.105C-199.815 677.163 -206.05 678.031 -211.926 676.519L-600.343 576.572C-610.268 574.018 -617.307 565.215 -617.609 554.981Z" stroke="url(#paint0_linear_2746_12850)" stroke-opacity="0.65" stroke-width="4"/>
<path opacity="0.0289855" d="M-571.629 596.628L-604.792 200.118C-605.298 194.069 -603.388 188.065 -599.48 183.417L-236.973 -247.719C-233.893 -251.382 -229.747 -253.993 -225.112 -255.19L254.651 -379.018C263.009 -381.176 271.873 -378.477 277.608 -372.028L509.384 -111.388C515.118 -104.94 516.758 -95.8269 513.63 -87.7874L334.101 373.663C332.366 378.122 329.283 381.928 325.281 384.553L-145.884 693.501C-150.963 696.831 -157.155 698.019 -163.109 696.805L-553.298 617.242C-563.311 615.2 -570.778 606.804 -571.629 596.628Z" stroke="url(#paint1_linear_2746_12850)" stroke-opacity="0.65" stroke-width="4"/>
<path opacity="0.0434783" d="M-524.673 636.62L-578.807 245.263C-579.64 239.239 -578.052 233.132 -574.389 228.276L-238.318 -217.279C-235.428 -221.111 -231.409 -223.943 -226.827 -225.379L241.906 -372.213C250.132 -374.79 259.11 -372.555 265.166 -366.424L508.818 -119.711C514.874 -113.579 516.991 -104.579 514.304 -96.3939L361.173 370.007C359.676 374.566 356.789 378.544 352.915 381.381L-97.3779 711.279C-102.285 714.874 -108.418 716.381 -114.434 715.469L-505.332 656.203C-515.408 654.676 -523.278 646.707 -524.673 636.62Z" stroke="url(#paint2_linear_2746_12850)" stroke-opacity="0.65" stroke-width="4"/>
<path opacity="0.057971" d="M-476.84 674.916L-551.493 289.81C-552.652 283.831 -551.39 277.637 -547.984 272.587L-238.854 -185.816C-236.161 -189.808 -232.283 -192.856 -227.766 -194.528L228.855 -363.561C236.928 -366.55 245.995 -364.784 252.354 -358.985L507.062 -126.724C513.422 -120.925 516.009 -112.064 513.769 -103.757L387.054 366.109C385.801 370.757 383.119 374.895 379.386 377.939L-49.1461 727.463C-53.8673 731.313 -59.9243 733.135 -65.9878 732.528L-456.548 693.42C-466.659 692.407 -474.907 684.886 -476.84 674.916Z" stroke="url(#paint3_linear_2746_12850)" stroke-opacity="0.65" stroke-width="4"/>
<path opacity="0.0724638" d="M-428.228 711.485L-522.89 333.697C-524.373 327.78 -523.443 321.516 -520.304 316.285L-238.527 -153.381C-236.042 -157.524 -232.315 -160.779 -227.874 -162.685L215.605 -353.062C223.504 -356.453 232.635 -355.16 239.279 -349.709L504.201 -132.377C510.845 -126.926 513.895 -118.227 512.107 -109.823L411.743 362.033C410.738 366.758 408.271 371.046 404.69 374.29L-1.27247 742.078C-5.79451 746.175 -11.7598 748.309 -17.8553 748.009L-407.045 728.864C-417.165 728.366 -425.767 721.309 -428.228 711.485Z" stroke="url(#paint4_linear_2746_12850)" stroke-opacity="0.65" stroke-width="4"/>
<path opacity="0.0869565" d="M-378.942 746.303L-493.05 376.862C-494.853 371.024 -494.257 364.709 -491.395 359.31L-237.295 -120.027C-235.025 -124.309 -231.46 -127.765 -227.108 -129.901L202.256 -340.72C209.961 -344.503 219.132 -343.684 226.042 -338.595L500.315 -136.622C507.226 -131.533 510.727 -123.022 509.396 -114.545L435.237 357.845C434.485 362.633 432.24 367.061 428.821 370.497L46.1558 755.16C41.8457 759.492 35.9882 761.932 29.8762 761.941L-356.93 762.513C-367.033 762.528 -375.962 755.952 -378.942 746.303Z" stroke="url(#paint5_linear_2746_12850)" stroke-opacity="0.65" stroke-width="4"/>
<path opacity="0.101449" d="M-329.085 779.349L-462.021 419.245C-464.14 413.504 -463.883 407.155 -461.307 401.604L-235.112 -85.8097C-233.065 -90.2204 -229.673 -93.8691 -225.422 -96.2318L188.913 -326.547C196.404 -330.712 205.59 -330.367 212.746 -325.653L495.492 -139.419C502.649 -134.705 506.59 -126.404 505.719 -117.879L457.538 353.608C457.044 358.445 455.029 363.001 451.783 366.622L93.0574 766.742C88.9716 771.3 83.2376 774.041 77.1246 774.36L-306.309 794.35C-316.368 794.875 -325.597 788.796 -329.085 779.349Z" stroke="url(#paint6_linear_2746_12850)" stroke-opacity="0.65" stroke-width="4"/>
<path opacity="0.115942" d="M-278.756 810.608L-429.853 460.792C-432.284 455.164 -432.367 448.8 -430.085 443.11L-231.935 -50.7874C-230.119 -55.3151 -226.909 -59.1481 -222.771 -61.7324L175.68 -310.561C182.939 -315.094 192.114 -315.223 199.497 -310.896L489.822 -140.732C497.205 -136.405 501.574 -128.337 501.164 -119.79L478.657 349.384C478.423 354.256 476.646 358.929 473.582 362.725L139.355 776.867C135.506 781.637 129.91 784.674 123.812 785.302L-255.283 824.366C-265.272 825.395 -274.774 819.826 -278.756 810.608Z" stroke="url(#paint7_linear_2746_12850)" stroke-opacity="0.65" stroke-width="4"/>
<path opacity="0.130435" d="M-228.059 840.074L-396.604 501.45C-399.34 495.953 -399.764 489.591 -397.783 483.779L-227.73 -15.0188C-226.15 -19.6517 -223.134 -23.66 -219.119 -26.4606L162.655 -292.782C169.663 -297.67 178.804 -298.271 186.391 -294.342L483.392 -140.53C490.98 -136.6 495.764 -128.788 495.815 -120.244L498.601 345.235C498.63 350.13 497.097 354.907 494.225 358.87L184.973 785.579C181.37 790.551 175.928 793.875 169.86 794.813L-203.957 852.556C-213.851 854.084 -223.598 849.037 -228.059 840.074Z" stroke="url(#paint8_linear_2746_12850)" stroke-opacity="0.65" stroke-width="4"/>
<path opacity="0.144928" d="M-177.1 867.743L-362.334 541.17C-365.368 535.821 -366.134 529.479 -364.461 523.561L-222.464 21.4349C-221.128 16.7088 -218.314 12.5347 -214.434 9.52381L149.932 -273.239C156.672 -278.469 165.754 -279.538 173.525 -276.016L476.289 -138.786C484.06 -135.264 489.244 -127.729 489.755 -119.212L517.38 341.224C517.674 346.126 516.392 350.994 513.72 355.115L229.832 792.928C226.487 798.088 221.214 801.693 215.192 802.938L-152.439 878.921C-162.213 880.941 -172.175 876.426 -177.1 867.743Z" stroke="url(#paint9_linear_2746_12850)" stroke-opacity="0.65" stroke-width="4"/>
<path opacity="0.15942" d="M-125.975 893.62L-327.098 579.909C-330.423 574.723 -331.529 568.42 -330.169 562.412L-216.105 58.5119C-215.017 53.7052 -212.414 49.3754 -208.679 46.1606L137.613 -251.963C144.068 -257.521 153.067 -259.054 160.999 -255.947L468.609 -135.48C476.542 -132.374 482.108 -125.137 483.077 -116.672L535.017 337.409C535.577 342.306 534.55 347.253 532.086 351.521L273.87 798.968C270.791 804.303 265.702 808.179 259.741 809.729L-100.826 903.469C-110.455 905.973 -120.603 901.998 -125.975 893.62Z" stroke="url(#paint10_linear_2746_12850)" stroke-opacity="0.65" stroke-width="4"/>
<path opacity="0.173913" d="M-74.786 917.712L-290.959 617.622C-294.566 612.616 -296.011 606.37 -294.969 600.288L-208.627 96.1458C-207.792 91.2715 -205.409 86.7965 -201.83 83.3846L125.787 -228.997C131.942 -234.866 140.834 -236.856 148.905 -234.173L460.44 -130.599C468.511 -127.915 474.445 -120.995 475.866 -112.608L551.526 333.849C552.353 338.726 551.586 343.738 549.34 348.143L317.016 803.752C314.214 809.248 309.321 813.387 303.437 815.238L-49.2212 926.212C-58.6819 929.189 -68.9868 925.763 -74.786 917.712Z" stroke="url(#paint11_linear_2746_12850)" stroke-opacity="0.65" stroke-width="4"/>
<path opacity="0.188406" d="M-23.6313 940.037L-253.98 654.277C-257.859 649.464 -259.64 643.294 -258.921 637.156L-200.006 134.276C-199.429 129.347 -197.273 124.738 -193.861 121.137L114.545 -204.377C120.385 -210.541 129.147 -212.983 137.335 -210.728L451.873 -124.127C460.061 -121.873 466.342 -115.289 468.212 -107.003L566.933 330.604C568.025 335.446 567.523 340.51 565.501 345.041L359.21 807.344C356.692 812.987 352.009 817.378 346.217 819.527L2.27652 947.17C-6.992 950.61 -17.4238 947.737 -23.6313 940.037Z" stroke="url(#paint12_linear_2746_12850)" stroke-opacity="0.65" stroke-width="4"/>
<path opacity="0.202899" d="M27.3904 960.611L-216.227 689.834C-220.368 685.231 -222.481 679.154 -222.087 672.976L-190.226 172.833C-189.909 167.863 -187.989 163.13 -184.752 159.347L103.973 -178.158C109.484 -184.599 118.092 -187.484 126.373 -185.663L442.997 -116.066C451.278 -114.246 457.889 -108.016 460.2 -99.8554L581.26 327.725C582.617 332.518 582.382 337.621 580.592 342.267L400.39 809.803C398.164 815.578 393.704 820.211 388.019 822.654L53.5676 966.365C44.5139 970.256 33.9851 967.941 27.3904 960.611Z" stroke="url(#paint13_linear_2746_12850)" stroke-opacity="0.65" stroke-width="4"/>
<path opacity="0.217391" d="M78.1845 979.461L-177.766 724.266C-182.158 719.887 -184.598 713.92 -184.532 707.72L-179.271 211.752C-179.218 206.754 -177.539 201.91 -174.488 197.954L94.1541 -150.388C99.3223 -157.089 107.755 -160.407 116.107 -159.024L433.902 -106.412C442.254 -105.029 449.175 -99.1698 451.918 -91.1587L594.536 325.269C596.155 329.998 596.191 335.126 594.638 339.875L440.501 811.196C438.574 817.089 434.35 821.952 428.786 824.683L104.557 983.827C95.7403 988.155 85.1447 986.401 78.1845 979.461Z" stroke="url(#paint14_linear_2746_12850)" stroke-opacity="0.65" stroke-width="4"/>
<path opacity="0.231884" d="M128.66 996.618L-138.662 757.546C-143.293 753.404 -146.054 747.567 -146.318 741.361L-167.128 250.966C-167.341 245.954 -165.91 241.011 -163.053 236.891L85.1689 -121.124C89.9827 -128.067 98.2179 -131.807 106.617 -130.865L424.679 -95.1702C433.078 -94.2277 440.287 -88.7544 443.455 -80.9158L606.792 323.287C608.671 327.939 608.98 333.076 607.67 337.917L479.495 811.593C477.873 817.587 473.896 822.668 468.468 825.681L155.154 999.591C146.595 1004.34 135.963 1003.15 128.66 996.618Z" stroke="url(#paint15_linear_2746_12850)" stroke-opacity="0.65" stroke-width="4"/>
<path opacity="0.246377" d="M178.727 1012.12L-98.9823 789.652C-103.84 785.761 -106.916 780.07 -107.509 773.876L-153.789 290.408C-154.269 285.396 -153.091 280.367 -150.437 276.092L77.0938 -90.4282C81.542 -97.5937 89.5585 -101.745 97.9809 -101.243L415.416 -82.3513C423.838 -81.8501 431.314 -76.7772 434.895 -69.1339L618.061 321.828C620.198 326.389 620.78 331.523 619.719 336.443L517.324 811.063C516.013 817.143 512.293 822.43 507.016 825.718L205.267 1013.7C196.987 1018.85 186.348 1018.22 178.727 1012.12Z" stroke="url(#paint16_linear_2746_12850)" stroke-opacity="0.65" stroke-width="4"/>
<path opacity="0.26087" d="M228.297 1026L-58.7962 820.566C-63.8665 816.938 -67.2497 811.409 -68.1716 805.245L-139.25 330.011C-139.998 325.014 -139.079 319.91 -136.636 315.49L69.9998 -58.3639C74.0726 -65.7325 81.8496 -70.2813 90.2723 -70.2213L406.198 -67.9699C414.62 -67.9098 422.341 -63.2506 426.324 -55.8246L628.38 320.942C630.769 325.396 631.626 330.512 630.817 335.499L553.947 809.678C552.95 815.829 549.499 821.309 544.385 824.864L254.81 1026.19C246.828 1031.74 236.212 1031.66 228.297 1026Z" stroke="url(#paint17_linear_2746_12850)" stroke-opacity="0.65" stroke-width="4"/>
<path opacity="0.275362" d="M277.286 1038.3L-18.1723 850.272C-23.4414 846.918 -27.1234 841.569 -28.3729 835.452L-123.513 369.709C-124.528 364.739 -123.872 359.575 -121.647 355.02L63.9535 -24.9996C67.6418 -32.5515 75.1597 -37.4844 83.5595 -37.8644L397.109 -52.0456C405.508 -52.4255 413.451 -48.1918 417.822 -41.0044L637.785 320.672C640.421 325.007 641.552 330.091 641.001 335.132L589.323 807.515C588.644 813.719 585.472 819.378 580.535 823.193L303.698 1037.11C296.032 1043.03 285.468 1043.51 277.286 1038.3Z" stroke="url(#paint18_linear_2746_12850)" stroke-opacity="0.65" stroke-width="4"/>
<path opacity="0.289855" d="M325.611 1049.08L22.8181 878.76C17.365 875.692 13.3937 870.539 11.8188 864.486L-106.581 409.435C-107.864 404.507 -107.475 399.295 -105.475 394.615L59.0162 9.59438C62.3121 1.87961 69.5518 -3.4228 77.9054 -4.24009L388.23 -34.6015C396.584 -35.4188 404.724 -31.6212 409.47 -24.6933L646.314 321.062C649.192 325.265 650.596 330.301 650.305 335.383L623.419 804.648C623.061 810.89 620.177 816.715 615.43 820.78L351.849 1046.52C344.516 1052.8 334.035 1053.82 325.611 1049.08Z" stroke="url(#paint19_linear_2746_12850)" stroke-opacity="0.65" stroke-width="4"/>
<path opacity="0.304348" d="M373.201 1058.39L64.1129 906.023C58.4911 903.252 54.2407 898.309 52.3437 892.338L-88.4573 449.124C-90.005 444.252 -89.886 439.005 -88.1189 434.212L55.2521 45.343C58.1489 37.4861 65.0922 31.8301 73.3766 30.5792L379.648 -15.6664C387.933 -16.9173 396.247 -13.5652 401.352 -6.91644L654.014 322.154C657.129 326.21 658.804 331.185 658.776 336.295L656.21 801.157C656.175 807.42 653.587 813.395 649.043 817.701L399.192 1054.47C392.21 1061.08 381.839 1062.65 373.201 1058.39Z" stroke="url(#paint20_linear_2746_12850)" stroke-opacity="0.65" stroke-width="4"/>
<path opacity="0.318841" d="M419.884 1068.76L105.546 934.537C99.7719 932.071 95.2534 927.355 93.0385 921.482L-69.2485 491.188C-71.0596 486.386 -71.2128 481.119 -69.6839 476.224L52.6178 84.6479C55.1097 76.6695 61.7395 70.6767 69.9319 68.9972L371.344 7.20545C379.537 5.52594 388.001 8.42434 393.449 14.775L660.834 326.462C664.176 330.359 666.121 335.259 666.357 340.384L687.576 799.597C687.866 805.865 685.581 811.975 681.251 816.513L445.558 1063.5C438.941 1070.43 428.709 1072.53 419.884 1068.76Z" stroke="url(#paint21_linear_2746_12850)" stroke-opacity="0.65" stroke-width="4"/>
<path opacity="0.333333" d="M465.867 1072.82L147.327 956.864C141.416 954.712 136.642 950.237 134.114 944.48L-48.6929 528.128C-50.7644 523.41 -51.1918 518.135 -49.9065 513.149L51.4379 119.993C53.5203 111.914 59.8201 105.602 67.8982 103.5L363.669 26.5404C371.747 24.4385 380.336 26.8767 386.109 32.9111L667.093 326.586C670.656 330.311 672.866 335.121 673.37 340.247L717.773 792.612C718.387 798.867 716.413 805.098 712.309 809.856L491.154 1066.24C484.916 1073.47 474.851 1076.09 465.867 1072.82Z" stroke="url(#paint22_linear_2746_12850)" stroke-opacity="0.65" stroke-width="4"/>
<path opacity="0.347826" d="M510.813 1078.07L189.115 980.449C183.085 978.619 178.067 974.399 175.232 968.774L-27.0806 567.319C-29.4089 562.698 -30.1115 557.431 -29.0749 552.366L51.4841 158.735C53.1536 150.577 59.108 143.964 67.0497 141.447L356.424 49.7371C364.366 47.2202 373.053 49.1929 379.134 54.894L672.566 329.998C676.342 333.537 678.814 338.244 679.584 343.358L746.514 787.72C747.451 793.946 745.793 800.282 741.927 805.248L535.643 1070.2C529.798 1077.71 519.927 1080.83 510.813 1078.07Z" stroke="url(#paint23_linear_2746_12850)" stroke-opacity="0.65" stroke-width="4"/>
<path opacity="0.362319" d="M554.749 1082.09L230.934 1002.82C224.802 1001.32 219.554 997.365 216.419 991.888L-4.34254 606.219C-6.92337 601.71 -7.90167 596.463 -7.11822 591.331L52.885 198.31C54.1392 190.095 59.7339 183.2 67.5176 180.277L349.768 74.2708C357.552 71.3474 366.313 72.8506 372.682 78.2026L677.392 334.246C681.37 337.589 684.101 342.178 685.138 347.267L773.877 782.521C775.137 788.702 773.801 795.126 770.182 800.29L579.055 1072.96C573.616 1080.72 563.964 1084.35 554.749 1082.09Z" stroke="url(#paint24_linear_2746_12850)" stroke-opacity="0.65" stroke-width="4"/>
<path opacity="0.376812" d="M597.619 1084.96L272.72 1023.98C266.504 1022.82 261.04 1019.15 257.612 1013.83L19.4974 644.768C16.669 640.384 15.4153 635.171 15.9419 629.985L55.6745 238.634C56.5123 230.383 61.734 223.226 69.3387 219.906L343.768 100.093C351.373 96.7727 360.181 97.8041 366.819 102.792L681.62 339.357C685.792 342.492 688.775 346.95 690.079 352L799.859 777.095C801.439 783.214 800.429 789.711 797.067 795.059L621.337 1074.6C616.313 1082.59 606.907 1086.7 597.619 1084.96Z" stroke="url(#paint25_linear_2746_12850)" stroke-opacity="0.65" stroke-width="4"/>
<path opacity="0.391304" d="M639.37 1086.74L314.409 1043.96C308.127 1043.13 302.462 1039.75 298.75 1034.62L44.4116 682.908C41.3415 678.663 39.8131 673.498 40.0796 668.269L59.8813 279.62C60.3025 271.354 65.139 263.955 72.5443 260.249L338.487 127.153C345.892 123.447 354.723 124.005 361.607 128.615L685.302 345.356C689.657 348.272 692.886 352.585 694.455 357.582L824.457 771.521C826.354 777.562 825.674 784.116 822.578 789.636L662.438 1075.2C657.839 1083.4 648.702 1087.97 639.37 1086.74Z" stroke="url(#paint26_linear_2746_12850)" stroke-opacity="0.65" stroke-width="4"/>
<path opacity="0.405797" d="M679.955 1087.52L355.938 1062.77C349.608 1062.28 343.757 1059.21 339.771 1054.27L70.3698 720.585C67.0642 716.491 65.2629 711.389 65.2665 706.13L65.5286 321.182C65.5343 312.923 69.9746 305.304 77.1605 301.224L333.985 155.399C341.171 151.319 349.998 151.405 357.108 155.624L688.487 352.266C693.014 354.952 696.483 359.107 698.316 364.038L847.675 765.882C849.885 771.828 849.539 778.422 846.717 784.101L702.311 1074.82C698.145 1083.21 689.302 1088.23 679.955 1087.52Z" stroke="url(#paint27_linear_2746_12850)" stroke-opacity="0.65" stroke-width="4"/>
<path opacity="0.42029" d="M719.332 1087.36L397.248 1080.42C390.889 1080.29 384.869 1077.53 380.617 1072.8L97.3392 757.743C93.8052 753.813 91.7333 748.787 91.4719 743.511L72.635 363.233C72.2272 355.001 76.2615 347.184 83.2088 342.742L330.318 184.773C337.265 180.331 346.063 179.946 353.376 183.764L691.23 360.103C695.918 362.55 699.619 366.533 701.713 371.385L869.522 760.254C872.04 766.09 872.029 772.706 869.49 778.531L740.917 1073.56C737.191 1082.11 728.664 1087.56 719.332 1087.36Z" stroke="url(#paint28_linear_2746_12850)" stroke-opacity="0.65" stroke-width="4"/>
<path opacity="0.434783" d="M757.459 1086.35L438.277 1096.95C431.908 1097.17 425.735 1094.73 421.23 1090.22L125.282 794.33C121.527 790.576 119.188 785.64 118.66 780.36L81.212 405.684C80.3941 397.501 84.0136 389.506 90.704 384.717L327.536 215.214C334.227 210.426 342.969 209.573 350.463 212.978L693.581 368.883C698.416 371.081 702.343 374.881 704.694 379.639L890.008 754.715C892.829 760.425 893.154 767.047 890.905 773.004L778.218 1071.5C774.938 1080.18 766.749 1086.05 757.459 1086.35Z" stroke="url(#paint29_linear_2746_12850)" stroke-opacity="0.65" stroke-width="4"/>
<path opacity="0.449275" d="M794.308 1084.57L478.973 1112.39C472.613 1112.95 466.304 1110.85 461.557 1106.58L154.163 830.297C150.196 826.732 147.592 821.9 146.797 816.628L91.2707 448.447C90.047 440.333 93.2443 432.184 99.6601 427.063L325.692 246.663C332.108 241.542 340.77 240.227 348.42 243.211L695.597 378.62C700.568 380.559 704.71 384.163 707.315 388.816L909.154 749.343C912.272 754.911 912.933 761.522 910.981 767.596L814.188 1068.71C811.358 1077.51 803.526 1083.76 794.308 1084.57Z" stroke="url(#paint30_linear_2746_12850)" stroke-opacity="0.65" stroke-width="4"/>
<path opacity="0.463768" d="M829.815 1082.13L519.247 1126.79C512.914 1127.7 506.488 1125.94 501.51 1121.92L183.907 865.633C179.736 862.267 176.872 857.552 175.81 852.303L102.78 491.471C101.156 483.447 103.924 475.166 110.049 469.729L324.795 279.09C330.919 273.653 339.476 271.88 347.259 274.436L697.297 389.358C702.39 391.03 706.739 394.426 709.593 398.96L926.947 744.246C930.353 749.658 931.351 756.241 929.701 762.417L848.766 1065.31C846.389 1074.2 838.933 1080.82 829.815 1082.13Z" stroke="url(#paint31_linear_2746_12850)" stroke-opacity="0.65" stroke-width="4"/>
<path opacity="0.478261" d="M864.019 1079.05L559.108 1140.13C552.823 1141.39 546.296 1139.97 541.102 1136.22L214.533 900.22C210.168 897.066 207.049 892.482 205.719 887.267L115.799 534.596C113.781 526.682 116.116 518.292 121.933 512.555L324.947 312.359C330.764 306.622 339.191 304.4 347.084 306.521L698.797 401.031C703.998 402.429 708.544 405.606 711.642 410.008L943.474 739.428C947.162 744.667 948.494 751.207 947.151 757.47L881.994 1061.32C880.073 1070.28 873.011 1077.24 864.019 1079.05Z" stroke="url(#paint32_linear_2746_12850)" stroke-opacity="0.65" stroke-width="4"/>
<path opacity="0.492754" d="M896.874 1075.43L598.479 1152.47C592.259 1154.07 585.652 1153.01 580.254 1149.53L245.966 934.055C241.417 931.123 238.049 926.683 236.453 921.514L130.292 577.774C127.888 569.989 129.786 561.513 135.281 555.495L326.157 346.438C331.652 340.419 339.924 337.756 347.901 339.438L700.121 413.681C705.417 414.798 710.149 417.744 713.486 422.003L958.736 734.994C962.696 740.048 964.362 746.527 963.33 752.863L913.829 1056.86C912.364 1065.86 905.711 1073.15 896.874 1075.43Z" stroke="url(#paint33_linear_2746_12850)" stroke-opacity="0.65" stroke-width="4"/>
<path opacity="0.507246" d="M928.348 1071.4L637.293 1163.87C631.159 1165.82 624.489 1165.11 618.902 1161.92L278.141 967.125C273.419 964.427 269.808 960.143 267.947 955.035L146.23 620.948C143.447 613.311 144.905 604.773 150.065 598.49L328.437 381.288C333.597 375.005 341.691 371.911 349.728 373.15L701.306 427.336C706.681 428.165 711.589 430.87 715.158 434.972L972.749 731.044C976.972 735.898 978.967 742.298 978.251 748.691L944.243 1052.04C943.231 1061.06 937.004 1068.65 928.348 1071.4Z" stroke="url(#paint34_linear_2746_12850)" stroke-opacity="0.65" stroke-width="4"/>
<path opacity="0.521739" d="M958.46 1066.97L675.536 1174.33C669.506 1176.62 662.792 1176.27 657.031 1173.37L311.037 999.338C306.154 996.882 302.306 992.768 300.182 987.733L163.623 663.976C160.473 656.506 161.49 647.929 166.3 641.402L331.845 416.781C336.656 410.254 344.549 406.74 352.621 407.534L702.432 441.938C707.873 442.473 712.944 444.927 716.739 448.861L985.577 727.585C990.053 732.226 992.375 738.532 991.976 744.967L973.258 1046.89C972.699 1055.91 966.91 1063.76 958.46 1066.97Z" stroke="url(#paint35_linear_2746_12850)" stroke-opacity="0.65" stroke-width="4"/>
<path opacity="0.536232" d="M987.197 1062.26L713.154 1183.91C707.247 1186.53 700.509 1186.55 694.589 1183.96L344.593 1030.69C339.56 1028.49 335.483 1024.55 333.099 1019.6L182.44 706.806C178.932 699.521 179.508 690.928 183.958 684.175L336.393 452.876C340.843 446.124 348.514 442.204 356.594 442.552L703.542 457.509C709.032 457.745 714.255 459.939 718.267 463.692L997.252 724.71C1001.97 729.125 1004.61 735.321 1004.53 741.782L1000.86 1041.52C1000.75 1050.51 995.416 1058.61 987.197 1062.26Z" stroke="url(#paint36_linear_2746_12850)" stroke-opacity="0.65" stroke-width="4"/>
<path opacity="0.550725" d="M1014.56 1057.35L750.104 1192.66C744.339 1195.61 737.596 1195.99 731.534 1193.71L378.753 1061.15C373.582 1059.21 369.284 1055.47 366.643 1050.62L202.652 749.358C198.796 742.275 198.933 733.689 203.012 726.732L342.097 489.503C346.176 482.545 353.602 478.232 361.667 478.136L704.684 474.042C710.207 473.976 715.57 475.9 719.791 479.462L1007.81 722.481C1012.76 726.657 1015.72 732.726 1015.96 739.198L1027.06 1036.01C1027.4 1044.95 1022.52 1053.27 1014.56 1057.35Z" stroke="url(#paint37_linear_2746_12850)" stroke-opacity="0.65" stroke-width="4"/>
<path opacity="0.565217" d="M1040.54 1052.31L786.352 1200.61C780.746 1203.89 774.019 1204.63 767.831 1202.68L413.463 1090.69C408.168 1089.01 403.656 1085.48 400.763 1080.74L224.227 791.553C220.036 784.689 219.736 776.134 223.434 768.992L348.972 526.588C352.671 519.446 359.831 514.755 367.855 514.216L705.908 491.526C711.449 491.154 716.938 492.799 721.361 496.159L1017.31 720.955C1022.48 724.881 1025.75 730.808 1026.31 737.273L1051.86 1030.45C1052.64 1039.31 1048.23 1047.83 1040.54 1052.31Z" stroke="url(#paint38_linear_2746_12850)" stroke-opacity="0.65" stroke-width="4"/>
<path opacity="0.57971" d="M1065.17 1047.24L821.862 1207.83C816.433 1211.42 809.742 1212.53 803.444 1210.91L448.667 1119.29C443.26 1117.89 438.546 1114.57 435.403 1109.96L247.13 833.32C242.617 826.69 241.884 818.188 245.193 810.884L357.027 564.063C360.337 556.758 367.212 551.705 375.171 550.728L707.265 509.95C712.807 509.27 718.408 510.629 723.023 513.775L1025.79 720.19C1031.16 723.854 1034.73 729.623 1035.62 736.067L1075.28 1024.92C1076.48 1033.68 1072.55 1042.37 1065.17 1047.24Z" stroke="url(#paint39_linear_2746_12850)" stroke-opacity="0.65" stroke-width="4"/>
<path opacity="0.594203" d="M1088.44 1042.2L856.606 1214.36C851.373 1218.25 844.736 1219.73 838.346 1218.44L484.312 1146.92C478.807 1145.81 473.898 1142.72 470.512 1138.24L271.323 874.582C266.503 868.201 265.341 859.776 268.255 852.33L366.271 601.854C369.185 594.408 375.756 589.011 383.625 587.6L708.803 529.297C714.331 528.306 720.03 529.372 724.827 532.294L1033.3 720.233C1038.87 723.626 1042.74 729.221 1043.94 735.629L1097.33 1019.49C1098.96 1028.14 1095.51 1036.96 1088.44 1042.2Z" stroke="url(#paint40_linear_2746_12850)" stroke-opacity="0.65" stroke-width="4"/>
<path opacity="0.608696" d="M1110.4 1037.27L890.562 1220.23C885.541 1224.41 878.979 1226.25 872.514 1225.3L520.344 1173.56C514.755 1172.74 509.663 1169.89 506.039 1165.56L296.769 915.258C291.655 909.142 290.071 900.814 292.583 893.249L376.71 639.878C379.222 632.313 385.471 626.59 393.226 624.752L710.577 549.535C716.072 548.233 721.856 548.999 726.824 551.688L1039.92 721.123C1045.66 724.233 1049.82 729.64 1051.34 735.996L1118.05 1014.22C1120.09 1022.74 1117.12 1031.67 1110.4 1037.27Z" stroke="url(#paint41_linear_2746_12850)" stroke-opacity="0.65" stroke-width="4"/>
<path opacity="0.623188" d="M1131.04 1032.53L923.692 1225.52C918.899 1229.98 912.431 1232.19 905.91 1231.58L556.693 1199.22C551.035 1198.7 545.77 1196.1 541.914 1191.92L323.407 955.31C318.015 949.471 316.017 941.262 318.122 933.6L388.328 678.094C390.434 670.432 396.345 664.401 403.962 662.144L712.617 570.673C718.064 569.059 723.916 569.519 729.046 571.965L1045.68 722.929C1051.59 725.748 1056.02 730.954 1057.86 737.241L1137.44 1009.23C1139.89 1017.59 1137.41 1026.6 1131.04 1032.53Z" stroke="url(#paint42_linear_2746_12850)" stroke-opacity="0.65" stroke-width="4"/>
<path opacity="0.637681" d="M1150.41 1028.05L955.982 1230.28C951.434 1235.01 945.08 1237.57 938.521 1237.31L593.309 1223.88C587.597 1223.66 582.171 1221.32 578.089 1217.31L351.196 994.66C345.541 989.11 343.137 981.043 344.832 973.306L401.129 716.417C402.824 708.68 408.381 702.362 415.836 699.695L714.976 592.673C720.358 590.747 726.264 590.896 731.544 593.09L1050.64 725.681C1056.71 728.2 1061.41 733.189 1063.56 739.393L1155.55 1004.57C1158.39 1012.75 1156.4 1021.82 1150.41 1028.05Z" stroke="url(#paint43_linear_2746_12850)" stroke-opacity="0.65" stroke-width="4"/>
<path opacity="0.652174" d="M1168.52 1023.91L987.413 1234.54C983.124 1239.53 976.904 1242.44 970.326 1242.54L630.132 1247.52C624.381 1247.61 618.806 1245.53 614.506 1241.71L380.079 1033.25C374.178 1028 371.377 1020.1 372.661 1012.31L415.098 754.781C416.382 746.992 421.57 740.408 428.841 737.341L717.696 615.511C722.995 613.276 728.939 613.109 734.358 615.042L1054.88 729.415C1061.08 731.627 1066.04 736.387 1068.5 742.492L1172.41 1000.31C1175.63 1008.29 1174.13 1017.39 1168.52 1023.91Z" stroke="url(#paint44_linear_2746_12850)" stroke-opacity="0.65" stroke-width="4"/>
<path opacity="0.666667" d="M1185.43 1020.16L1017.97 1238.37C1013.96 1243.6 1007.89 1246.86 1001.31 1247.31L667.106 1270.15C661.331 1270.55 655.619 1268.75 651.108 1265.12L410.002 1071.02C403.871 1066.09 400.685 1058.36 401.556 1050.54L430.224 793.118C431.095 785.299 435.902 778.471 442.967 775.017L720.819 639.159C726.017 636.617 731.984 636.13 737.529 637.795L1058.46 734.164C1064.77 736.061 1069.98 740.579 1072.74 746.571L1188.06 996.52C1191.64 1004.28 1190.63 1013.38 1185.43 1020.16Z" stroke="url(#paint45_linear_2746_12850)" stroke-opacity="0.65" stroke-width="4"/>
<path opacity="0.681159" d="M1201.17 1016.87L1047.64 1241.82C1043.92 1247.28 1038.02 1250.87 1031.46 1251.67L704.172 1291.77C698.39 1292.47 692.553 1290.96 687.839 1287.53L440.905 1107.92C434.562 1103.31 431.003 1095.79 431.461 1087.96L446.49 831.364C446.948 823.537 451.361 816.487 458.198 812.658L724.383 663.588C729.464 660.742 735.438 659.932 741.097 661.322L1061.43 739.958C1067.85 741.535 1073.29 745.798 1076.35 751.661L1202.55 993.257C1206.48 1000.78 1205.95 1009.86 1201.17 1016.87Z" stroke="url(#paint46_linear_2746_12850)" stroke-opacity="0.65" stroke-width="4"/>
<path opacity="0.695652" d="M1215.77 1014.11L1076.42 1244.94C1073 1250.61 1067.29 1254.53 1060.77 1255.68L741.273 1312.36C735.499 1313.39 729.551 1312.17 724.643 1308.95L472.726 1143.91C466.189 1139.63 462.269 1132.32 462.317 1124.51L463.873 869.455C463.92 861.644 467.929 854.395 474.518 850.206L728.426 688.768C733.373 685.623 739.336 684.488 745.097 685.594L1063.87 746.823C1070.38 748.073 1076.04 752.07 1079.4 757.79L1215.91 990.587C1220.18 997.865 1220.13 1006.89 1215.77 1014.11Z" stroke="url(#paint47_linear_2746_12850)" stroke-opacity="0.65" stroke-width="4"/>
<path opacity="0.710145" d="M1229.28 1011.93L1104.3 1247.78C1101.19 1253.65 1095.69 1257.88 1089.23 1259.39L778.349 1331.96C772.601 1333.3 766.554 1332.38 761.461 1329.38L505.399 1178.94C498.687 1174.99 494.42 1167.92 494.06 1160.15L482.347 907.331C481.987 899.558 485.582 892.133 491.902 887.6L732.982 714.667C737.777 711.228 743.713 709.765 749.562 710.582L1065.85 754.78C1072.43 755.7 1078.29 759.42 1081.93 764.982L1228.2 988.567C1232.79 995.58 1233.21 1004.53 1229.28 1011.93Z" stroke="url(#paint48_linear_2746_12850)" stroke-opacity="0.65" stroke-width="4"/>
<path opacity="0.724638" d="M1241.77 1010.38L1131.28 1250.4C1128.49 1256.44 1123.22 1260.98 1116.83 1262.84L815.349 1350.55C809.641 1352.21 803.511 1351.59 798.242 1348.83L538.862 1212.96C531.992 1209.36 527.393 1202.55 526.629 1194.83L501.887 944.933C501.123 937.218 504.297 929.643 510.33 924.781L738.087 741.25C742.713 737.522 748.606 735.731 754.529 736.254L1067.43 763.846C1074.06 764.431 1080.12 767.863 1084.04 773.255L1239.47 987.25C1244.37 993.985 1245.24 1002.83 1241.77 1010.38Z" stroke="url(#paint49_linear_2746_12850)" stroke-opacity="0.65" stroke-width="4"/>
<path opacity="0.73913" d="M1253.26 1009.53L1157.35 1252.84C1154.91 1259.05 1149.88 1263.88 1143.58 1266.09L852.212 1368.15C846.563 1370.13 840.363 1369.83 834.928 1367.31L573.043 1245.95C566.034 1242.7 561.119 1236.16 559.956 1228.52L522.459 982.203C521.297 974.57 524.044 966.867 529.772 961.696L743.769 768.481C748.21 764.472 754.042 762.353 760.026 762.575L1068.67 774.034C1075.35 774.282 1081.59 777.417 1085.77 782.624L1249.78 986.688C1254.96 993.13 1256.29 1001.85 1253.26 1009.53Z" stroke="url(#paint50_linear_2746_12850)" stroke-opacity="0.65" stroke-width="4"/>
<path opacity="0.753623" d="M1263.82 1009.41L1182.53 1255.16C1180.43 1261.51 1175.66 1266.63 1169.47 1269.18L888.888 1384.78C883.314 1387.08 877.058 1387.1 871.467 1384.83L607.876 1277.87C600.746 1274.98 595.531 1268.72 593.977 1261.19L544.032 1019.09C542.478 1011.56 544.792 1003.75 550.198 998.29L750.059 796.325C754.298 792.041 760.053 789.595 766.083 789.512L1069.66 785.355C1076.36 785.263 1082.76 788.092 1087.21 793.102L1259.18 986.928C1264.63 993.066 1266.39 1001.63 1263.82 1009.41Z" stroke="url(#paint51_linear_2746_12850)" stroke-opacity="0.65" stroke-width="4"/>
<path opacity="0.768116" d="M1273.5 1010.08L1206.81 1257.41C1205.07 1263.89 1200.57 1269.28 1194.52 1272.16L925.319 1400.46C919.837 1403.07 913.54 1403.41 907.805 1401.4L643.285 1308.7C636.054 1306.17 630.556 1300.2 628.618 1292.8L566.564 1055.54C564.626 1048.13 566.504 1040.25 571.572 1034.51L756.98 824.741C761.001 820.192 766.66 817.419 772.723 817.028L1070.45 797.812C1077.15 797.38 1083.71 799.893 1088.4 804.693L1267.73 988.012C1273.42 993.833 1275.62 1002.23 1273.5 1010.08Z" stroke="url(#paint52_linear_2746_12850)" stroke-opacity="0.65" stroke-width="4"/>
<path opacity="0.782609" d="M1282.36 1011.59L1230.2 1259.66C1228.82 1266.24 1224.62 1271.88 1218.71 1275.1L961.45 1415.22C956.077 1418.15 949.756 1418.81 943.886 1417.07L679.197 1338.43C671.884 1336.26 666.12 1330.6 663.808 1323.34L590.014 1091.52C587.701 1084.25 589.14 1076.32 593.856 1070.33L764.555 853.706C768.341 848.902 773.888 845.805 779.968 845.102L1071.12 811.422C1077.8 810.649 1084.49 812.84 1089.43 817.418L1275.48 989.994C1281.41 995.49 1284.02 1003.69 1282.36 1011.59Z" stroke="url(#paint53_linear_2746_12850)" stroke-opacity="0.65" stroke-width="4"/>
<path opacity="0.797101" d="M1290.46 1013.94L1252.73 1261.91C1251.72 1268.58 1247.82 1274.46 1242.09 1278L997.244 1429.06C991.997 1432.3 985.666 1433.29 979.674 1431.82L715.55 1367.01C708.175 1365.2 702.164 1359.87 699.487 1352.77L614.35 1126.95C611.673 1119.85 612.673 1111.89 617.023 1105.67L772.816 883.15C776.351 878.101 781.768 874.684 787.852 873.666L1071.73 826.152C1078.39 825.038 1085.2 826.9 1090.36 831.245L1282.52 992.878C1288.66 998.04 1291.67 1006.02 1290.46 1013.94Z" stroke="url(#paint54_linear_2746_12850)" stroke-opacity="0.65" stroke-width="4"/>
<path opacity="0.811594" d="M1297.87 1017.18L1274.4 1264.24C1273.76 1270.97 1270.19 1277.07 1264.63 1280.93L1032.64 1442.01C1027.54 1445.56 1021.22 1446.89 1015.11 1445.7L752.266 1394.44C744.846 1392.99 738.608 1388 735.577 1381.08L639.523 1161.81C636.492 1154.89 637.054 1146.93 641.026 1140.51L781.776 913.047C785.044 907.764 790.315 904.03 796.387 902.695L1072.36 842.01C1078.97 840.557 1085.88 842.083 1091.26 846.184L1288.9 996.711C1295.23 1001.53 1298.62 1009.27 1297.87 1017.18Z" stroke="url(#paint55_linear_2746_12850)" stroke-opacity="0.65" stroke-width="4"/>
<path opacity="0.826087" d="M1304.64 1021.35L1295.23 1266.69C1294.97 1273.46 1291.73 1279.77 1286.38 1283.93L1067.61 1454.12C1062.66 1457.96 1056.36 1459.63 1050.16 1458.72L789.272 1420.72C781.827 1419.63 775.381 1414.98 772.008 1408.26L665.486 1196.06C662.113 1189.34 662.239 1181.4 665.824 1174.8L791.453 943.354C794.44 937.851 799.546 933.805 805.591 932.151L1073.06 858.984C1079.61 857.195 1086.61 858.381 1092.2 862.226L1294.68 1001.52C1301.18 1005.99 1304.94 1013.47 1304.64 1021.35Z" stroke="url(#paint56_linear_2746_12850)" stroke-opacity="0.65" stroke-width="4"/>
<path opacity="0.84058" d="M1310.83 1026.46L1315.23 1269.3C1315.36 1276.09 1312.46 1282.59 1307.33 1287.05L1102.08 1465.4C1097.31 1469.54 1091.05 1471.54 1084.76 1470.93L826.494 1445.84C819.043 1445.11 812.409 1440.81 808.707 1434.31L692.192 1229.66C688.49 1223.16 688.185 1215.26 691.372 1208.5L801.861 974.03C804.553 968.319 809.477 963.966 815.48 961.994L1073.91 877.06C1080.37 874.937 1087.45 875.779 1093.23 879.359L1299.94 1007.32C1306.59 1011.44 1310.69 1018.65 1310.83 1026.46Z" stroke="url(#paint57_linear_2746_12850)" stroke-opacity="0.65" stroke-width="4"/>
<path opacity="0.855072" d="M1316.52 1032.54L1334.44 1272.11C1334.95 1278.91 1332.41 1285.58 1327.52 1290.32L1136.03 1475.89C1131.46 1480.32 1125.25 1482.66 1118.88 1482.34L863.86 1469.79C856.422 1469.43 849.619 1465.49 845.603 1459.22L719.589 1262.58C715.573 1256.31 714.841 1248.49 717.623 1241.59L813.012 1005.03C815.393 999.128 820.119 994.475 826.064 992.183L1074.97 896.22C1081.33 893.768 1088.46 894.261 1094.42 897.567L1304.73 1014.14C1311.51 1017.9 1315.95 1024.82 1316.52 1032.54Z" stroke="url(#paint58_linear_2746_12850)" stroke-opacity="0.65" stroke-width="4"/>
<path opacity="0.869565" d="M1321.77 1039.61L1352.87 1275.17C1353.76 1281.95 1351.59 1288.77 1346.95 1293.78L1169.41 1485.62C1165.05 1490.34 1158.91 1493.01 1152.48 1493L901.301 1492.6C893.894 1492.58 886.944 1489.01 882.628 1482.99L747.632 1294.78C743.316 1288.77 742.163 1281.04 744.534 1274.03L824.92 1036.32C826.977 1030.23 831.487 1025.29 837.359 1022.68L1076.3 916.441C1082.55 913.663 1089.71 913.806 1095.84 916.83L1309.14 1021.99C1316.03 1025.39 1320.77 1032 1321.77 1039.61Z" stroke="url(#paint59_linear_2746_12850)" stroke-opacity="0.65" stroke-width="4"/>
<path opacity="0.884058" d="M1326.66 1047.64L1370.56 1278.49C1371.84 1285.22 1370.05 1292.17 1365.67 1297.45L1202.2 1494.62C1198.07 1499.61 1192.02 1502.62 1185.54 1502.92L938.757 1514.22C931.397 1514.56 924.32 1511.36 919.721 1505.61L776.275 1326.22C771.676 1320.47 770.111 1312.87 772.066 1305.77L837.6 1067.81C839.32 1061.57 843.597 1056.34 849.381 1053.41L1077.97 937.669C1084.09 934.573 1091.27 934.363 1097.55 937.096L1313.23 1030.85C1320.21 1033.88 1325.24 1040.17 1326.66 1047.64Z" stroke="url(#paint60_linear_2746_12850)" stroke-opacity="0.65" stroke-width="4"/>
<path opacity="0.898551" d="M1331.22 1056.71L1387.51 1282.16C1389.17 1288.83 1387.77 1295.88 1383.68 1301.4L1234.33 1502.97C1230.44 1508.22 1224.5 1511.57 1217.98 1512.18L976.129 1534.75C968.835 1535.43 961.653 1532.6 956.787 1527.13L805.441 1356.93C800.575 1351.46 798.607 1344 800.142 1336.84L851.03 1099.53C852.401 1093.14 856.429 1087.64 862.109 1084.39L1080.02 959.931C1085.99 956.523 1093.17 955.959 1099.6 958.394L1317.05 1040.78C1324.1 1043.45 1329.39 1049.4 1331.22 1056.71Z" stroke="url(#paint61_linear_2746_12850)" stroke-opacity="0.65" stroke-width="4"/>
<path opacity="0.913043" d="M1335.53 1066.79L1403.77 1286.19C1405.81 1292.76 1404.8 1299.91 1401.01 1305.66L1265.79 1510.69C1262.16 1516.2 1256.33 1519.88 1249.8 1520.8L1013.37 1554.15C1006.15 1555.17 998.887 1552.72 993.772 1547.54L835.09 1386.86C829.975 1381.68 827.615 1374.39 828.728 1367.2L865.23 1131.41C866.239 1124.89 870.002 1119.11 875.562 1115.56L1082.51 983.167C1088.32 979.454 1095.48 978.536 1102.04 980.667L1320.68 1051.75C1327.78 1054.06 1333.31 1059.66 1335.53 1066.79Z" stroke="url(#paint62_linear_2746_12850)" stroke-opacity="0.65" stroke-width="4"/>
<path opacity="0.927536" d="M1339.69 1077.84L1419.39 1290.56C1421.81 1297.03 1421.2 1304.25 1417.72 1310.21L1296.57 1517.78C1293.21 1523.53 1287.53 1527.55 1280.98 1528.79L1050.43 1572.43C1043.32 1573.78 1035.99 1571.7 1030.64 1566.83L865.197 1415.96C859.851 1411.09 857.112 1403.98 857.803 1396.78L880.227 1163.36C880.864 1156.73 884.346 1150.7 889.771 1146.83L1085.54 1007.31C1091.16 1003.3 1098.3 1002.03 1104.96 1003.85L1324.21 1063.73C1331.34 1065.67 1337.1 1070.93 1339.69 1077.84Z" stroke="url(#paint63_linear_2746_12850)" stroke-opacity="0.65" stroke-width="4"/>
<path opacity="0.942029" d="M1343.7 1089.94L1434.35 1295.4C1437.15 1301.73 1436.94 1308.99 1433.78 1315.16L1326.59 1524.37C1323.52 1530.35 1317.99 1534.7 1311.44 1536.26L1087.19 1589.68C1080.2 1591.34 1072.82 1589.64 1067.27 1585.08L895.649 1444.3C890.09 1439.74 886.985 1432.84 887.257 1425.66L895.961 1195.41C896.215 1188.69 899.399 1182.42 904.675 1178.24L1089.08 1032.38C1094.52 1028.08 1101.6 1026.46 1108.36 1027.97L1327.65 1076.77C1334.79 1078.36 1340.75 1083.25 1343.7 1089.94Z" stroke="url(#paint64_linear_2746_12850)" stroke-opacity="0.65" stroke-width="4"/>
<path opacity="0.956522" d="M1347.66 1103.03L1448.72 1300.68C1451.88 1306.86 1452.07 1314.14 1449.25 1320.48L1355.85 1530.45C1353.09 1536.66 1347.72 1541.33 1341.2 1543.21L1123.63 1605.88C1116.77 1607.86 1109.37 1606.53 1103.62 1602.3L926.422 1471.81C920.67 1467.57 917.213 1460.91 917.068 1453.77L912.459 1227.49C912.32 1220.7 915.191 1214.19 920.302 1209.72L1093.23 1058.31C1098.46 1053.74 1105.47 1051.77 1112.32 1052.95L1331.11 1090.84C1338.24 1092.08 1344.37 1096.59 1347.66 1103.03Z" stroke="url(#paint65_linear_2746_12850)" stroke-opacity="0.65" stroke-width="4"/>
<path opacity="0.971014" d="M1351.63 1117.12L1462.51 1306.43C1466.03 1312.44 1466.64 1319.72 1464.16 1326.22L1384.32 1536.09C1381.88 1542.5 1376.71 1547.49 1370.21 1549.69L1159.67 1621.07C1152.95 1623.35 1145.56 1622.4 1139.63 1618.5L957.457 1498.51C951.532 1494.6 947.74 1488.19 947.182 1481.11L929.708 1259.55C929.169 1252.71 931.712 1245.99 936.643 1241.22L1098.02 1085.06C1103.03 1080.22 1109.96 1077.9 1116.87 1078.76L1334.63 1105.92C1341.73 1106.8 1348.01 1110.94 1351.63 1117.12Z" stroke="url(#paint66_linear_2746_12850)" stroke-opacity="0.65" stroke-width="4"/>
<path opacity="0.985507" d="M1355.66 1132.17L1475.79 1312.68C1479.66 1318.49 1480.67 1325.74 1478.55 1332.4L1412 1541.32C1409.89 1547.92 1404.92 1553.23 1398.46 1555.76L1195.27 1635.29C1188.71 1637.86 1181.33 1637.28 1175.25 1633.72L988.706 1524.38C982.627 1520.82 978.517 1514.67 977.553 1507.69L947.706 1291.56C946.757 1284.69 948.958 1277.77 953.694 1272.7L1103.51 1112.58C1108.28 1107.48 1115.11 1104.82 1122.07 1105.36L1338.28 1121.98C1345.33 1122.52 1351.74 1126.28 1355.66 1132.17Z" stroke="url(#paint67_linear_2746_12850)" stroke-opacity="0.65" stroke-width="4"/>
<path d="M1359.82 1148.18L1488.57 1319.44C1492.78 1325.04 1494.21 1332.24 1492.45 1339.02L1438.85 1546.2C1437.09 1552.98 1432.34 1558.59 1425.94 1561.45L1230.36 1648.58C1223.97 1651.43 1216.64 1651.21 1210.43 1648L1020.11 1549.44C1013.9 1546.22 1009.49 1540.35 1008.13 1533.49L966.439 1323.48C965.074 1316.6 966.917 1309.48 971.445 1304.14L1109.72 1140.81C1114.24 1135.47 1120.95 1132.48 1127.95 1132.68L1342.12 1139.01C1349.1 1139.22 1355.62 1142.59 1359.82 1148.18Z" stroke="url(#paint68_linear_2746_12850)" stroke-opacity="0.65" stroke-width="4"/>
</g>
<defs>
<linearGradient id="paint0_linear_2746_12850" x1="-619.056" y1="573.821" x2="493.206" y2="-315.614" gradientUnits="userSpaceOnUse">
<stop stop-color="#C737FF"/>
<stop offset="0.515625" stop-color="#897EFB"/>
<stop offset="1" stop-color="#6E48AA"/>
</linearGradient>
<linearGradient id="paint1_linear_2746_12850" x1="-572.062" y1="615.456" x2="482.728" y2="-322.525" gradientUnits="userSpaceOnUse">
<stop stop-color="#C737FF"/>
<stop offset="0.515625" stop-color="#897EFB"/>
<stop offset="1" stop-color="#6E48AA"/>
</linearGradient>
<linearGradient id="paint2_linear_2746_12850" x1="-524.098" y1="655.38" x2="471.223" y2="-327.593" gradientUnits="userSpaceOnUse">
<stop stop-color="#C737FF"/>
<stop offset="0.515625" stop-color="#897EFB"/>
<stop offset="1" stop-color="#6E48AA"/>
</linearGradient>
<linearGradient id="paint3_linear_2746_12850" x1="-475.264" y1="693.555" x2="458.802" y2="-330.786" gradientUnits="userSpaceOnUse">
<stop stop-color="#C737FF"/>
<stop offset="0.515625" stop-color="#897EFB"/>
<stop offset="1" stop-color="#6E48AA"/>
</linearGradient>
<linearGradient id="paint4_linear_2746_12850" x1="-425.664" y1="729.95" x2="445.579" y2="-332.073" gradientUnits="userSpaceOnUse">
<stop stop-color="#C737FF"/>
<stop offset="0.515625" stop-color="#897EFB"/>
<stop offset="1" stop-color="#6E48AA"/>
</linearGradient>
<linearGradient id="paint5_linear_2746_12850" x1="-375.403" y1="764.54" x2="431.66" y2="-331.428" gradientUnits="userSpaceOnUse">
<stop stop-color="#C737FF"/>
<stop offset="0.515625" stop-color="#897EFB"/>
<stop offset="1" stop-color="#6E48AA"/>
</linearGradient>
<linearGradient id="paint6_linear_2746_12850" x1="-324.588" y1="797.306" x2="417.158" y2="-328.835" gradientUnits="userSpaceOnUse">
<stop stop-color="#C737FF"/>
<stop offset="0.515625" stop-color="#897EFB"/>
<stop offset="1" stop-color="#6E48AA"/>
</linearGradient>
<linearGradient id="paint7_linear_2746_12850" x1="-273.321" y1="828.235" x2="402.186" y2="-324.284" gradientUnits="userSpaceOnUse">
<stop stop-color="#C737FF"/>
<stop offset="0.515625" stop-color="#897EFB"/>
<stop offset="1" stop-color="#6E48AA"/>
</linearGradient>
<linearGradient id="paint8_linear_2746_12850" x1="-221.708" y1="857.321" x2="386.851" y2="-317.767" gradientUnits="userSpaceOnUse">
<stop stop-color="#C737FF"/>
<stop offset="0.515625" stop-color="#897EFB"/>
<stop offset="1" stop-color="#6E48AA"/>
</linearGradient>
<linearGradient id="paint9_linear_2746_12850" x1="-169.858" y1="884.563" x2="371.261" y2="-309.286" gradientUnits="userSpaceOnUse">
<stop stop-color="#C737FF"/>
<stop offset="0.515625" stop-color="#897EFB"/>
<stop offset="1" stop-color="#6E48AA"/>
</linearGradient>
<linearGradient id="paint10_linear_2746_12850" x1="-117.87" y1="909.967" x2="355.529" y2="-298.845" gradientUnits="userSpaceOnUse">
<stop stop-color="#C737FF"/>
<stop offset="0.515625" stop-color="#897EFB"/>
<stop offset="1" stop-color="#6E48AA"/>
</linearGradient>
<linearGradient id="paint11_linear_2746_12850" x1="-65.8481" y1="933.541" x2="339.759" y2="-286.46" gradientUnits="userSpaceOnUse">
<stop stop-color="#C737FF"/>
<stop offset="0.515625" stop-color="#897EFB"/>
<stop offset="1" stop-color="#6E48AA"/>
</linearGradient>
<linearGradient id="paint12_linear_2746_12850" x1="-13.8925" y1="955.304" x2="324.057" y2="-272.143" gradientUnits="userSpaceOnUse">
<stop stop-color="#C737FF"/>
<stop offset="0.515625" stop-color="#897EFB"/>
<stop offset="1" stop-color="#6E48AA"/>
</linearGradient>
<linearGradient id="paint13_linear_2746_12850" x1="37.8955" y1="975.277" x2="308.526" y2="-255.922" gradientUnits="userSpaceOnUse">
<stop stop-color="#C737FF"/>
<stop offset="0.515625" stop-color="#897EFB"/>
<stop offset="1" stop-color="#6E48AA"/>
</linearGradient>
<linearGradient id="paint14_linear_2746_12850" x1="89.4195" y1="993.486" x2="293.267" y2="-237.823" gradientUnits="userSpaceOnUse">
<stop stop-color="#C737FF"/>
<stop offset="0.515625" stop-color="#897EFB"/>
<stop offset="1" stop-color="#6E48AA"/>
</linearGradient>
<linearGradient id="paint15_linear_2746_12850" x1="140.586" y1="1009.97" x2="278.381" y2="-217.878" gradientUnits="userSpaceOnUse">
<stop stop-color="#C737FF"/>
<stop offset="0.515625" stop-color="#897EFB"/>
<stop offset="1" stop-color="#6E48AA"/>
</linearGradient>
<linearGradient id="paint16_linear_2746_12850" x1="191.303" y1="1024.75" x2="263.963" y2="-196.127" gradientUnits="userSpaceOnUse">
<stop stop-color="#C737FF"/>
<stop offset="0.515625" stop-color="#897EFB"/>
<stop offset="1" stop-color="#6E48AA"/>
</linearGradient>
<linearGradient id="paint17_linear_2746_12850" x1="241.482" y1="1037.89" x2="250.108" y2="-172.613" gradientUnits="userSpaceOnUse">
<stop stop-color="#C737FF"/>
<stop offset="0.515625" stop-color="#897EFB"/>
<stop offset="1" stop-color="#6E48AA"/>
</linearGradient>
<linearGradient id="paint18_linear_2746_12850" x1="291.035" y1="1049.42" x2="236.906" y2="-147.384" gradientUnits="userSpaceOnUse">
<stop stop-color="#C737FF"/>
<stop offset="0.515625" stop-color="#897EFB"/>
<stop offset="1" stop-color="#6E48AA"/>
</linearGradient>
<linearGradient id="paint19_linear_2746_12850" x1="339.879" y1="1059.4" x2="224.441" y2="-120.492" gradientUnits="userSpaceOnUse">
<stop stop-color="#C737FF"/>
<stop offset="0.515625" stop-color="#897EFB"/>
<stop offset="1" stop-color="#6E48AA"/>
</linearGradient>
<linearGradient id="paint20_linear_2746_12850" x1="387.941" y1="1067.89" x2="212.804" y2="-91.9939" gradientUnits="userSpaceOnUse">
<stop stop-color="#C737FF"/>
<stop offset="0.515625" stop-color="#897EFB"/>
<stop offset="1" stop-color="#6E48AA"/>
</linearGradient>
<linearGradient id="paint21_linear_2746_12850" x1="435.048" y1="1077.41" x2="201.978" y2="-59.4733" gradientUnits="userSpaceOnUse">
<stop stop-color="#C737FF"/>
<stop offset="0.515625" stop-color="#897EFB"/>
<stop offset="1" stop-color="#6E48AA"/>
</linearGradient>
<linearGradient id="paint22_linear_2746_12850" x1="481.407" y1="1080.61" x2="192.315" y2="-30.4317" gradientUnits="userSpaceOnUse">
<stop stop-color="#C737FF"/>
<stop offset="0.515625" stop-color="#897EFB"/>
<stop offset="1" stop-color="#6E48AA"/>
</linearGradient>
<linearGradient id="paint23_linear_2746_12850" x1="526.678" y1="1084.97" x2="183.615" y2="2.50061" gradientUnits="userSpaceOnUse">
<stop stop-color="#C737FF"/>
<stop offset="0.515625" stop-color="#897EFB"/>
<stop offset="1" stop-color="#6E48AA"/>
</linearGradient>
<linearGradient id="paint24_linear_2746_12850" x1="570.888" y1="1088.1" x2="176.035" y2="36.771" gradientUnits="userSpaceOnUse">
<stop stop-color="#C737FF"/>
<stop offset="0.515625" stop-color="#897EFB"/>
<stop offset="1" stop-color="#6E48AA"/>
</linearGradient>
<linearGradient id="paint25_linear_2746_12850" x1="613.982" y1="1090.06" x2="169.64" y2="72.3025" gradientUnits="userSpaceOnUse">
<stop stop-color="#C737FF"/>
<stop offset="0.515625" stop-color="#897EFB"/>
<stop offset="1" stop-color="#6E48AA"/>
</linearGradient>
<linearGradient id="paint26_linear_2746_12850" x1="655.906" y1="1090.93" x2="164.488" y2="109.017" gradientUnits="userSpaceOnUse">
<stop stop-color="#C737FF"/>
<stop offset="0.515625" stop-color="#897EFB"/>
<stop offset="1" stop-color="#6E48AA"/>
</linearGradient>
<linearGradient id="paint27_linear_2746_12850" x1="696.612" y1="1090.8" x2="160.632" y2="146.834" gradientUnits="userSpaceOnUse">
<stop stop-color="#C737FF"/>
<stop offset="0.515625" stop-color="#897EFB"/>
<stop offset="1" stop-color="#6E48AA"/>
</linearGradient>
<linearGradient id="paint28_linear_2746_12850" x1="736.058" y1="1089.72" x2="158.122" y2="185.669" gradientUnits="userSpaceOnUse">
<stop stop-color="#C737FF"/>
<stop offset="0.515625" stop-color="#897EFB"/>
<stop offset="1" stop-color="#6E48AA"/>
</linearGradient>
<linearGradient id="paint29_linear_2746_12850" x1="774.203" y1="1087.8" x2="157" y2="225.434" gradientUnits="userSpaceOnUse">
<stop stop-color="#C737FF"/>
<stop offset="0.515625" stop-color="#897EFB"/>
<stop offset="1" stop-color="#6E48AA"/>
</linearGradient>
<linearGradient id="paint30_linear_2746_12850" x1="811.018" y1="1085.1" x2="157.307" y2="266.042" gradientUnits="userSpaceOnUse">
<stop stop-color="#C737FF"/>
<stop offset="0.515625" stop-color="#897EFB"/>
<stop offset="1" stop-color="#6E48AA"/>
</linearGradient>
<linearGradient id="paint31_linear_2746_12850" x1="846.441" y1="1081.76" x2="159.042" y2="307.438" gradientUnits="userSpaceOnUse">
<stop stop-color="#C737FF"/>
<stop offset="0.515625" stop-color="#897EFB"/>
<stop offset="1" stop-color="#6E48AA"/>
</linearGradient>
<linearGradient id="paint32_linear_2746_12850" x1="880.511" y1="1077.78" x2="162.295" y2="349.459" gradientUnits="userSpaceOnUse">
<stop stop-color="#C737FF"/>
<stop offset="0.515625" stop-color="#897EFB"/>
<stop offset="1" stop-color="#6E48AA"/>
</linearGradient>
<linearGradient id="paint33_linear_2746_12850" x1="913.182" y1="1073.28" x2="167.059" y2="392.05" gradientUnits="userSpaceOnUse">
<stop stop-color="#C737FF"/>
<stop offset="0.515625" stop-color="#897EFB"/>
<stop offset="1" stop-color="#6E48AA"/>
</linearGradient>
<linearGradient id="paint34_linear_2746_12850" x1="944.423" y1="1068.39" x2="173.332" y2="435.146" gradientUnits="userSpaceOnUse">
<stop stop-color="#C737FF"/>
<stop offset="0.515625" stop-color="#897EFB"/>
<stop offset="1" stop-color="#6E48AA"/>
</linearGradient>
<linearGradient id="paint35_linear_2746_12850" x1="974.257" y1="1063.11" x2="181.155" y2="478.597" gradientUnits="userSpaceOnUse">
<stop stop-color="#C737FF"/>
<stop offset="0.515625" stop-color="#897EFB"/>
<stop offset="1" stop-color="#6E48AA"/>
</linearGradient>
<linearGradient id="paint36_linear_2746_12850" x1="1002.67" y1="1057.58" x2="190.519" y2="522.339" gradientUnits="userSpaceOnUse">
<stop stop-color="#C737FF"/>
<stop offset="0.515625" stop-color="#897EFB"/>
<stop offset="1" stop-color="#6E48AA"/>
</linearGradient>
<linearGradient id="paint37_linear_2746_12850" x1="1029.66" y1="1051.87" x2="201.424" y2="566.279" gradientUnits="userSpaceOnUse">
<stop stop-color="#C737FF"/>
<stop offset="0.515625" stop-color="#897EFB"/>
<stop offset="1" stop-color="#6E48AA"/>
</linearGradient>
<linearGradient id="paint38_linear_2746_12850" x1="1055.23" y1="1046.06" x2="213.861" y2="610.325" gradientUnits="userSpaceOnUse">
<stop stop-color="#C737FF"/>
<stop offset="0.515625" stop-color="#897EFB"/>
<stop offset="1" stop-color="#6E48AA"/>
</linearGradient>
<linearGradient id="paint39_linear_2746_12850" x1="1079.4" y1="1040.24" x2="227.819" y2="654.39" gradientUnits="userSpaceOnUse">
<stop stop-color="#C737FF"/>
<stop offset="0.515625" stop-color="#897EFB"/>
<stop offset="1" stop-color="#6E48AA"/>
</linearGradient>
<linearGradient id="paint40_linear_2746_12850" x1="1102.19" y1="1034.49" x2="243.283" y2="698.381" gradientUnits="userSpaceOnUse">
<stop stop-color="#C737FF"/>
<stop offset="0.515625" stop-color="#897EFB"/>
<stop offset="1" stop-color="#6E48AA"/>
</linearGradient>
<linearGradient id="paint41_linear_2746_12850" x1="1123.62" y1="1028.87" x2="260.234" y2="742.199" gradientUnits="userSpaceOnUse">
<stop stop-color="#C737FF"/>
<stop offset="0.515625" stop-color="#897EFB"/>
<stop offset="1" stop-color="#6E48AA"/>
</linearGradient>
<linearGradient id="paint42_linear_2746_12850" x1="1143.69" y1="1023.48" x2="278.632" y2="785.789" gradientUnits="userSpaceOnUse">
<stop stop-color="#C737FF"/>
<stop offset="0.515625" stop-color="#897EFB"/>
<stop offset="1" stop-color="#6E48AA"/>
</linearGradient>
<linearGradient id="paint43_linear_2746_12850" x1="1162.46" y1="1018.4" x2="298.452" y2="829.053" gradientUnits="userSpaceOnUse">
<stop stop-color="#C737FF"/>
<stop offset="0.515625" stop-color="#897EFB"/>
<stop offset="1" stop-color="#6E48AA"/>
</linearGradient>
<linearGradient id="paint44_linear_2746_12850" x1="1179.96" y1="1013.68" x2="319.656" y2="871.914" gradientUnits="userSpaceOnUse">
<stop stop-color="#C737FF"/>
<stop offset="0.515625" stop-color="#897EFB"/>
<stop offset="1" stop-color="#6E48AA"/>
</linearGradient>
<linearGradient id="paint45_linear_2746_12850" x1="1196.21" y1="1009.4" x2="342.203" y2="914.294" gradientUnits="userSpaceOnUse">
<stop stop-color="#C737FF"/>
<stop offset="0.515625" stop-color="#897EFB"/>
<stop offset="1" stop-color="#6E48AA"/>
</linearGradient>
<linearGradient id="paint46_linear_2746_12850" x1="1211.26" y1="1005.62" x2="366.048" y2="956.121" gradientUnits="userSpaceOnUse">
<stop stop-color="#C737FF"/>
<stop offset="0.515625" stop-color="#897EFB"/>
<stop offset="1" stop-color="#6E48AA"/>
</linearGradient>
<linearGradient id="paint47_linear_2746_12850" x1="1225.17" y1="1002.41" x2="391.14" y2="997.326" gradientUnits="userSpaceOnUse">
<stop stop-color="#C737FF"/>
<stop offset="0.515625" stop-color="#897EFB"/>
<stop offset="1" stop-color="#6E48AA"/>
</linearGradient>
<linearGradient id="paint48_linear_2746_12850" x1="1237.96" y1="999.83" x2="417.425" y2="1037.84" gradientUnits="userSpaceOnUse">
<stop stop-color="#C737FF"/>
<stop offset="0.515625" stop-color="#897EFB"/>
<stop offset="1" stop-color="#6E48AA"/>
</linearGradient>
<linearGradient id="paint49_linear_2746_12850" x1="1249.7" y1="997.929" x2="444.849" y2="1077.61" gradientUnits="userSpaceOnUse">
<stop stop-color="#C737FF"/>
<stop offset="0.515625" stop-color="#897EFB"/>
<stop offset="1" stop-color="#6E48AA"/>
</linearGradient>
<linearGradient id="paint50_linear_2746_12850" x1="1260.44" y1="996.762" x2="473.349" y2="1116.58" gradientUnits="userSpaceOnUse">
<stop stop-color="#C737FF"/>
<stop offset="0.515625" stop-color="#897EFB"/>
<stop offset="1" stop-color="#6E48AA"/>
</linearGradient>
<linearGradient id="paint51_linear_2746_12850" x1="1270.24" y1="996.38" x2="502.865" y2="1154.69" gradientUnits="userSpaceOnUse">
<stop stop-color="#C737FF"/>
<stop offset="0.515625" stop-color="#897EFB"/>
<stop offset="1" stop-color="#6E48AA"/>
</linearGradient>
<linearGradient id="paint52_linear_2746_12850" x1="1279.15" y1="996.826" x2="533.329" y2="1191.89" gradientUnits="userSpaceOnUse">
<stop stop-color="#C737FF"/>
<stop offset="0.515625" stop-color="#897EFB"/>
<stop offset="1" stop-color="#6E48AA"/>
</linearGradient>
<linearGradient id="paint53_linear_2746_12850" x1="1287.22" y1="998.158" x2="564.67" y2="1228.16" gradientUnits="userSpaceOnUse">
<stop stop-color="#C737FF"/>
<stop offset="0.515625" stop-color="#897EFB"/>
<stop offset="1" stop-color="#6E48AA"/>
</linearGradient>
<linearGradient id="paint54_linear_2746_12850" x1="1294.55" y1="1000.38" x2="596.833" y2="1263.43" gradientUnits="userSpaceOnUse">
<stop stop-color="#C737FF"/>
<stop offset="0.515625" stop-color="#897EFB"/>
<stop offset="1" stop-color="#6E48AA"/>
</linearGradient>
<linearGradient id="paint55_linear_2746_12850" x1="1301.17" y1="1003.55" x2="629.738" y2="1297.68" gradientUnits="userSpaceOnUse">
<stop stop-color="#C737FF"/>
<stop offset="0.515625" stop-color="#897EFB"/>
<stop offset="1" stop-color="#6E48AA"/>
</linearGradient>
<linearGradient id="paint56_linear_2746_12850" x1="1307.16" y1="1007.68" x2="663.316" y2="1330.87" gradientUnits="userSpaceOnUse">
<stop stop-color="#C737FF"/>
<stop offset="0.515625" stop-color="#897EFB"/>
<stop offset="1" stop-color="#6E48AA"/>
</linearGradient>
<linearGradient id="paint57_linear_2746_12850" x1="1312.59" y1="1012.8" x2="697.494" y2="1363" gradientUnits="userSpaceOnUse">
<stop stop-color="#C737FF"/>
<stop offset="0.515625" stop-color="#897EFB"/>
<stop offset="1" stop-color="#6E48AA"/>
</linearGradient>
<linearGradient id="paint58_linear_2746_12850" x1="1317.51" y1="1018.94" x2="732.198" y2="1394.02" gradientUnits="userSpaceOnUse">
<stop stop-color="#C737FF"/>
<stop offset="0.515625" stop-color="#897EFB"/>
<stop offset="1" stop-color="#6E48AA"/>
</linearGradient>
<linearGradient id="paint59_linear_2746_12850" x1="1322.01" y1="1026.11" x2="767.359" y2="1423.94" gradientUnits="userSpaceOnUse">
<stop stop-color="#C737FF"/>
<stop offset="0.515625" stop-color="#897EFB"/>
<stop offset="1" stop-color="#6E48AA"/>
</linearGradient>
<linearGradient id="paint60_linear_2746_12850" x1="1326.16" y1="1034.29" x2="802.912" y2="1452.71" gradientUnits="userSpaceOnUse">
<stop stop-color="#C737FF"/>
<stop offset="0.515625" stop-color="#897EFB"/>
<stop offset="1" stop-color="#6E48AA"/>
</linearGradient>
<linearGradient id="paint61_linear_2746_12850" x1="1329.99" y1="1043.54" x2="838.758" y2="1480.38" gradientUnits="userSpaceOnUse">
<stop stop-color="#C737FF"/>
<stop offset="0.515625" stop-color="#897EFB"/>
<stop offset="1" stop-color="#6E48AA"/>
</linearGradient>
<linearGradient id="paint62_linear_2746_12850" x1="1333.6" y1="1053.85" x2="874.84" y2="1506.92" gradientUnits="userSpaceOnUse">
<stop stop-color="#C737FF"/>
<stop offset="0.515625" stop-color="#897EFB"/>
<stop offset="1" stop-color="#6E48AA"/>
</linearGradient>
<linearGradient id="paint63_linear_2746_12850" x1="1337.08" y1="1065.17" x2="911.116" y2="1532.3" gradientUnits="userSpaceOnUse">
<stop stop-color="#C737FF"/>
<stop offset="0.515625" stop-color="#897EFB"/>
<stop offset="1" stop-color="#6E48AA"/>
</linearGradient>
<linearGradient id="paint64_linear_2746_12850" x1="1340.43" y1="1077.57" x2="947.455" y2="1556.6" gradientUnits="userSpaceOnUse">
<stop stop-color="#C737FF"/>
<stop offset="0.515625" stop-color="#897EFB"/>
<stop offset="1" stop-color="#6E48AA"/>
</linearGradient>
<linearGradient id="paint65_linear_2746_12850" x1="1343.76" y1="1091" x2="983.821" y2="1579.79" gradientUnits="userSpaceOnUse">
<stop stop-color="#C737FF"/>
<stop offset="0.515625" stop-color="#897EFB"/>
<stop offset="1" stop-color="#6E48AA"/>
</linearGradient>
<linearGradient id="paint66_linear_2746_12850" x1="1347.12" y1="1105.46" x2="1020.14" y2="1601.89" gradientUnits="userSpaceOnUse">
<stop stop-color="#C737FF"/>
<stop offset="0.515625" stop-color="#897EFB"/>
<stop offset="1" stop-color="#6E48AA"/>
</linearGradient>
<linearGradient id="paint67_linear_2746_12850" x1="1350.58" y1="1120.92" x2="1056.35" y2="1622.91" gradientUnits="userSpaceOnUse">
<stop stop-color="#C737FF"/>
<stop offset="0.515625" stop-color="#897EFB"/>
<stop offset="1" stop-color="#6E48AA"/>
</linearGradient>
<linearGradient id="paint68_linear_2746_12850" x1="1354.19" y1="1137.37" x2="1092.39" y2="1642.89" gradientUnits="userSpaceOnUse">
<stop stop-color="#C737FF"/>
<stop offset="0.515625" stop-color="#897EFB"/>
<stop offset="1" stop-color="#6E48AA"/>
</linearGradient>
</defs>
</svg>
