<svg width="17" height="13" viewBox="0 0 17 13" fill="none" xmlns="http://www.w3.org/2000/svg">
<path d="M5.18262 0.595703H6.84928V2.26237H5.18262V0.595703ZM3.51595 2.26237H5.18262V3.92904H3.51595V2.26237ZM1.84928 3.92904H3.51595V5.5957H1.84928V3.92904ZM0.182617 5.5957H1.84928V7.26237H0.182617V5.5957ZM1.84928 7.26237H3.51595V8.92904H1.84928V7.26237ZM3.51595 8.92904H5.18262V10.5957H3.51595V8.92904ZM5.18262 10.5957H6.84928V12.2624H5.18262V10.5957ZM11.8493 0.595703H10.1826V2.26237H11.8493V0.595703ZM13.516 2.26237H11.8493V3.92904H13.516V2.26237ZM15.1826 3.92904H13.516V5.5957H15.1826V3.92904ZM16.8493 5.5957H15.1826V7.26237H16.8493V5.5957ZM15.1826 7.26237H13.516V8.92904H15.1826V7.26237ZM13.516 8.92904H11.8493V10.5957H13.516V8.92904ZM11.8493 10.5957H10.1826V12.2624H11.8493V10.5957Z" fill="url(#paint0_linear_1403_11683)"/>
<defs>
<linearGradient id="paint0_linear_1403_11683" x1="0.182617" y1="0.595706" x2="18.5269" y2="8.23242" gradientUnits="userSpaceOnUse">
<stop stop-color="#9D50BB"/>
<stop offset="1" stop-color="#6E48AA"/>
</linearGradient>
</defs>
</svg>
