<svg width="480" height="193" viewBox="0 0 480 193" fill="none" xmlns="http://www.w3.org/2000/svg">
<path d="M297.889 81.01V47.1494H274.132V52.6777H291.86V60.8033H275.442V66.3315H291.86V75.4817H274.132V81.01H297.889Z" fill="#F2F2F2"/>
<path d="M210.89 56.8477C210.89 57.9279 210.755 58.9605 210.485 59.9454C210.231 60.9145 209.818 61.8517 209.246 62.7572C208.69 63.6627 207.92 64.4729 206.935 65.1877C205.966 65.9026 204.814 66.4586 203.48 66.8557L213.702 81.01H205.886L196.403 67.8804H190.66V81.01H184.655V47.1494H199.071C199.786 47.1494 200.438 47.1732 201.025 47.2209C201.629 47.2527 202.352 47.348 203.194 47.5068C204.052 47.6498 204.806 47.8484 205.457 48.1025C206.125 48.3567 206.808 48.73 207.507 49.2225C208.222 49.715 208.809 50.2948 209.27 50.962C209.747 51.6133 210.136 52.4473 210.438 53.464C210.739 54.4648 210.89 55.5927 210.89 56.8477ZM190.66 52.6538V62.3521H196.188C197.141 62.3521 197.983 62.3203 198.714 62.2568C199.445 62.1933 200.199 62.0662 200.978 61.8755C201.756 61.669 202.391 61.391 202.884 61.0415C203.392 60.6921 203.805 60.2075 204.123 59.588C204.457 58.9684 204.623 58.2377 204.623 57.3957C204.623 54.2345 202.185 52.6538 197.308 52.6538H190.66Z" fill="#F2F2F2"/>
<path d="M215.752 81.01V47.1494H239.51V52.6777H221.781V60.8033H238.199V66.3315H221.781V75.4817H239.51V81.01H215.752Z" fill="#F2F2F2"/>
<path d="M239.606 47.1494H246.492L256.453 74.5524L266.389 47.1494H272.918L259.813 81.01H252.688L239.606 47.1494Z" fill="#F2F2F2"/>
<path d="M300.573 56.8477C300.573 57.9279 300.708 58.9605 300.978 59.9454C301.232 60.9145 301.645 61.8517 302.217 62.7572C302.773 63.6627 303.544 64.4729 304.529 65.1877C305.498 65.9026 306.649 66.4586 307.984 66.8557L297.761 81.01H305.577L315.061 67.8804H320.804V81.01H326.808V47.1494H312.392C311.677 47.1494 311.026 47.1732 310.438 47.2209C309.834 47.2527 309.112 47.348 308.27 47.5068C307.412 47.6498 306.657 47.8484 306.006 48.1025C305.339 48.3567 304.656 48.73 303.957 49.2225C303.242 49.715 302.654 50.2948 302.193 50.962C301.717 51.6133 301.328 52.4473 301.026 53.464C300.724 54.4648 300.573 55.5927 300.573 56.8477ZM320.804 52.6538V62.3521H315.275C314.322 62.3521 313.48 62.3203 312.75 62.2568C312.019 62.1933 311.264 62.0662 310.486 61.8755C309.707 61.669 309.072 61.391 308.58 61.0415C308.071 60.6921 307.658 60.2075 307.34 59.588C307.007 58.9684 306.84 58.2377 306.84 57.3957C306.84 54.2345 309.278 52.6538 314.155 52.6538H320.804Z" fill="#F2F2F2"/>
<path d="M343.937 46.8396C347.098 46.8396 350.219 47.3083 353.301 48.2455L354.278 48.5315L352.324 54.0597L351.419 53.7976C348.543 53.0033 345.922 52.6062 343.555 52.6062C341.22 52.6062 339.218 52.9874 337.55 53.75C335.898 54.5125 335.072 55.4895 335.072 56.6809C335.072 57.4593 335.438 58.1424 336.168 58.7302C336.915 59.3179 337.876 59.8183 339.052 60.2314C340.227 60.6285 341.522 61.0257 342.936 61.4228C344.365 61.8199 345.795 62.2806 347.225 62.8049C348.655 63.3291 349.957 63.9328 351.133 64.6158C352.308 65.2989 353.262 66.2124 353.992 67.3562C354.739 68.484 355.112 69.7867 355.112 71.2641C355.112 72.2172 354.945 73.1624 354.612 74.0997C354.294 75.0211 353.746 75.9345 352.968 76.84C352.205 77.7455 351.252 78.5398 350.108 79.2229C348.98 79.8901 347.535 80.4381 345.771 80.867C344.024 81.2801 342.062 81.4866 339.886 81.4866C337.709 81.4866 335.747 81.288 334 80.8909C332.253 80.4778 330.402 79.8901 328.448 79.1275L327.566 78.7939L329.592 73.0274L330.521 73.3848C334.54 74.8145 337.852 75.5294 340.458 75.5294C342.904 75.5294 344.882 75.1561 346.391 74.4095C347.916 73.6628 348.678 72.6779 348.678 71.4547C348.678 70.7716 348.448 70.16 347.987 69.6199C347.527 69.0798 346.907 68.627 346.129 68.2616C345.35 67.8804 344.453 67.5309 343.436 67.2132C342.435 66.8955 341.379 66.5857 340.267 66.2839C339.155 65.982 338.043 65.6564 336.931 65.3069C335.819 64.9574 334.755 64.5364 333.738 64.044C332.737 63.5515 331.847 62.9955 331.069 62.3759C330.291 61.7564 329.671 60.9859 329.21 60.0646C328.75 59.1273 328.519 58.0868 328.519 56.943C328.519 54.0836 329.917 51.6848 332.713 49.7467C335.525 47.8087 339.266 46.8396 343.937 46.8396Z" fill="#F2F2F2"/>
<path d="M358.044 81.01V47.1494H381.801V52.6777H364.073V60.8033H380.491V66.3315H364.073V75.4817H381.801V81.01H358.044Z" fill="#F2F2F2"/>
<path d="M200.461 123C194.653 123 190.22 121.455 187.161 118.366C184.137 115.276 182.625 110.888 182.625 105.202C182.625 102.375 183.089 99.8606 184.017 97.6584C184.945 95.4234 186.216 93.5499 187.831 92.0379C189.447 90.4931 191.371 89.3263 193.605 88.5374C195.839 87.7486 198.262 87.3542 200.874 87.3542C202.386 87.3542 203.76 87.4692 204.998 87.6993C206.235 87.8965 207.317 88.143 208.245 88.4388C209.173 88.7018 209.946 88.9812 210.565 89.277C211.184 89.5728 211.63 89.8029 211.905 89.9672L209.586 96.1793C208.486 95.6206 207.197 95.144 205.719 94.7496C204.276 94.3551 202.626 94.1579 200.77 94.1579C199.533 94.1579 198.313 94.3551 197.11 94.7496C195.942 95.144 194.894 95.7849 193.966 96.6724C193.072 97.5269 192.351 98.6445 191.801 100.025C191.251 101.405 190.976 103.082 190.976 105.054C190.976 106.632 191.148 108.111 191.491 109.491C191.869 110.839 192.454 112.006 193.244 112.992C194.069 113.978 195.134 114.766 196.44 115.358C197.746 115.917 199.327 116.196 201.183 116.196C202.351 116.196 203.4 116.13 204.327 115.999C205.255 115.868 206.08 115.72 206.802 115.555C207.524 115.358 208.159 115.144 208.709 114.914C209.259 114.684 209.757 114.471 210.204 114.273L212.421 120.436C211.287 121.094 209.689 121.685 207.627 122.211C205.565 122.737 203.176 123 200.461 123Z" fill="#BB6BD9"/>
<path d="M223.043 105.202C223.043 106.878 223.249 108.39 223.661 109.738C224.108 111.085 224.727 112.252 225.517 113.238C226.342 114.191 227.339 114.931 228.507 115.457C229.676 115.983 231.016 116.246 232.528 116.246C234.006 116.246 235.329 115.983 236.497 115.457C237.7 114.931 238.697 114.191 239.487 113.238C240.312 112.252 240.931 111.085 241.343 109.738C241.79 108.39 242.013 106.878 242.013 105.202C242.013 103.525 241.79 102.013 241.343 100.666C240.931 99.2854 240.312 98.1186 239.487 97.1654C238.697 96.1793 237.7 95.4234 236.497 94.8975C235.329 94.3716 234.006 94.1086 232.528 94.1086C231.016 94.1086 229.676 94.388 228.507 94.9468C227.339 95.4727 226.342 96.2286 225.517 97.2147C224.727 98.1679 224.108 99.3347 223.661 100.715C223.249 102.063 223.043 103.558 223.043 105.202ZM250.313 105.202C250.313 108.127 249.849 110.707 248.921 112.942C248.027 115.144 246.79 117.002 245.209 118.513C243.628 119.993 241.738 121.11 239.539 121.866C237.374 122.622 235.037 123 232.528 123C230.088 123 227.785 122.622 225.62 121.866C223.455 121.11 221.565 119.993 219.95 118.513C218.334 117.002 217.063 115.144 216.135 112.942C215.207 110.707 214.743 108.127 214.743 105.202C214.743 102.276 215.224 99.7127 216.186 97.5105C217.149 95.2755 218.438 93.402 220.053 91.89C221.702 90.3781 223.593 89.2441 225.723 88.4881C227.888 87.7322 230.157 87.3542 232.528 87.3542C234.968 87.3542 237.271 87.7322 239.436 88.4881C241.601 89.2441 243.491 90.3781 245.106 91.89C246.722 93.402 247.993 95.2755 248.921 97.5105C249.849 99.7127 250.313 102.276 250.313 105.202Z" fill="#BB6BD9"/>
<path d="M265.058 116.048C265.436 116.081 265.866 116.114 266.347 116.147C266.863 116.147 267.464 116.147 268.151 116.147C272.172 116.147 275.145 115.177 277.07 113.238C279.028 111.299 280.008 108.62 280.008 105.202C280.008 101.619 279.08 98.9074 277.224 97.0668C275.368 95.2262 272.43 94.3058 268.409 94.3058C267.859 94.3058 267.292 94.3223 266.708 94.3551C266.124 94.3551 265.574 94.388 265.058 94.4537V116.048ZM288.308 105.202C288.308 108.16 287.826 110.74 286.864 112.942C285.902 115.144 284.527 116.969 282.74 118.415C280.987 119.861 278.839 120.946 276.296 121.669C273.753 122.392 270.901 122.753 267.739 122.753C266.296 122.753 264.612 122.688 262.687 122.556C260.762 122.458 258.872 122.228 257.016 121.866V88.5867C258.872 88.258 260.797 88.0444 262.79 87.9458C264.818 87.8143 266.553 87.7486 267.997 87.7486C271.055 87.7486 273.822 88.0773 276.296 88.7346C278.805 89.392 280.953 90.4274 282.74 91.8407C284.527 93.254 285.902 95.0618 286.864 97.264C287.826 99.4662 288.308 102.112 288.308 105.202Z" fill="#BB6BD9"/>
<path d="M331.682 122.31C329.379 118.398 326.888 114.536 324.207 110.724C321.527 106.911 318.674 103.312 315.65 99.9263V122.31H307.711V88.143H314.258C315.392 89.2277 316.646 90.5588 318.021 92.1365C319.396 93.7142 320.788 95.4069 322.197 97.2147C323.64 98.9896 325.066 100.847 326.475 102.786C327.884 104.692 329.208 106.533 330.445 108.308V88.143H338.435V122.31H331.682Z" fill="#BB6BD9"/>
<path d="M364.1 94.0593C360.354 94.0593 357.639 95.0618 355.955 97.0668C354.305 99.0389 353.481 101.751 353.481 105.202C353.481 106.878 353.687 108.406 354.099 109.787C354.512 111.134 355.13 112.301 355.955 113.287C356.78 114.273 357.811 115.046 359.048 115.605C360.285 116.13 361.729 116.393 363.378 116.393C364.272 116.393 365.028 116.377 365.646 116.344C366.299 116.311 366.867 116.246 367.348 116.147V104.265H375.39V121.176C374.427 121.537 372.881 121.915 370.75 122.31C368.619 122.737 365.99 122.951 362.863 122.951C360.182 122.951 357.742 122.556 355.543 121.767C353.377 120.979 351.522 119.828 349.975 118.316C348.429 116.804 347.226 114.947 346.367 112.745C345.542 110.543 345.129 108.028 345.129 105.202C345.129 102.342 345.593 99.8113 346.521 97.6091C347.449 95.4069 348.721 93.5499 350.336 92.0379C351.951 90.4931 353.841 89.3263 356.007 88.5374C358.206 87.7486 360.543 87.3542 363.017 87.3542C364.701 87.3542 366.214 87.4692 367.554 87.6993C368.929 87.8965 370.097 88.143 371.059 88.4388C372.056 88.7018 372.864 88.9812 373.482 89.277C374.135 89.5728 374.599 89.8029 374.874 89.9672L372.554 96.13C371.454 95.5713 370.183 95.0947 368.739 94.7003C367.33 94.273 365.784 94.0593 364.1 94.0593Z" fill="#BB6BD9"/>
<path d="M292.48 111.164V100.868H302.604V109.825C302.604 112.866 302.37 115.224 301.904 116.898C301.438 118.573 300.436 119.94 298.9 121C297.391 122.088 295.251 122.674 292.48 122.758V118.405C295.772 117.903 297.418 115.824 297.418 112.169C297.418 111.945 297.405 111.611 297.377 111.164H292.48Z" fill="#BB6BD9"/>
<path d="M301.613 92.8464C301.613 95.3072 299.652 97.3021 297.232 97.3021C294.813 97.3021 292.851 95.3072 292.851 92.8464C292.851 90.3855 294.813 88.3906 297.232 88.3906C299.652 88.3906 301.613 90.3855 301.613 92.8464Z" fill="#BB6BD9"/>
<path d="M161.169 119.682C161.169 120.556 161.489 121.395 162.059 122.013C162.628 122.632 163.4 122.979 164.206 122.979H174.948C175.753 122.979 176.525 122.632 177.095 122.013C177.664 121.395 177.984 120.556 177.984 119.682V48.3357C177.984 47.4603 177.665 46.6206 177.095 46.0007C176.526 45.3808 175.754 45.0313 174.948 45.0287H163.345C162.538 45.0313 161.766 45.3808 161.197 46.0007C160.628 46.6206 160.308 47.4603 160.308 48.3357V49.1745C160.308 50.049 160.628 50.8877 161.198 51.5061C161.767 52.1244 162.539 52.4718 163.345 52.4718H166.896C167.703 52.4718 168.478 52.8202 169.049 53.4404C169.62 54.0606 169.941 54.9018 169.941 55.7788L169.852 113.106C169.845 113.974 169.523 114.804 168.957 115.416C168.39 116.028 167.624 116.372 166.825 116.375H164.215C163.407 116.375 162.632 116.723 162.061 117.343C161.49 117.963 161.169 118.805 161.169 119.682Z" fill="#F2F2F2"/>
<path d="M115.022 119.682C115.022 120.556 114.702 121.395 114.133 122.013C113.564 122.632 112.791 122.979 111.986 122.979H101.244C100.438 122.979 99.6645 122.632 99.0937 122.014C98.5229 121.396 98.201 120.557 98.1987 119.682V48.3357C98.201 47.4594 98.5226 46.6198 99.0931 46.0001C99.6637 45.3805 100.437 45.0313 101.244 45.0287H112.838C113.645 45.0313 114.418 45.3805 114.989 46.0001C115.559 46.6198 115.881 47.4594 115.883 48.3357V49.1745C115.881 50.0499 115.559 50.8886 114.988 51.5067C114.418 52.1247 113.644 52.4718 112.838 52.4718H109.287C108.481 52.4744 107.709 52.8239 107.14 53.4438C106.571 54.0637 106.251 54.9034 106.251 55.7788L106.34 113.106C106.34 113.54 106.419 113.969 106.572 114.369C106.725 114.769 106.95 115.132 107.233 115.438C107.516 115.743 107.851 115.985 108.221 116.149C108.59 116.313 108.986 116.397 109.385 116.394H111.995C112.796 116.399 113.564 116.747 114.13 117.363C114.697 117.978 115.018 118.811 115.022 119.682Z" fill="#F2F2F2"/>
<path d="M118.831 110.657C118.828 111.078 118.673 111.48 118.399 111.776C118.124 112.072 117.753 112.239 117.366 112.239H112.217C111.831 112.236 111.462 112.069 111.19 111.773C110.917 111.477 110.763 111.076 110.761 110.657V76.4788C110.761 76.0595 110.914 75.6573 111.187 75.3607C111.46 75.0642 111.831 74.8976 112.217 74.8976H117.783C118.169 74.8976 118.54 75.0642 118.813 75.3607C119.086 75.6573 119.239 76.0595 119.239 76.4788V76.8548C119.237 77.2734 119.083 77.6741 118.81 77.9701C118.538 78.2661 118.169 78.4335 117.783 78.436H116.079C115.692 78.436 115.32 78.6023 115.046 78.8985C114.771 79.1948 114.616 79.5969 114.614 80.0172L114.658 107.495C114.661 107.915 114.816 108.317 115.09 108.614C115.365 108.91 115.736 109.076 116.123 109.076H117.366C117.558 109.075 117.748 109.115 117.926 109.194C118.103 109.273 118.265 109.389 118.401 109.536C118.537 109.683 118.645 109.858 118.719 110.05C118.793 110.243 118.831 110.449 118.831 110.657Z" fill="#F2F2F2"/>
<path d="M137.812 65.6515C150.957 65.6515 161.613 63.1177 161.613 59.9921C161.613 56.8664 150.957 54.3326 137.812 54.3326C124.667 54.3326 114.01 56.8664 114.01 59.9921C114.01 63.1177 124.667 65.6515 137.812 65.6515Z" fill="#F2F2F2"/>
<path d="M131.251 43.6982C120.802 37.9134 135.353 25.1289 131.1 16.847C130.159 14.9959 126.013 16.6542 126.892 18.3607C129.99 24.4058 123.82 29.8629 123.261 35.8598C122.861 40.1984 124.406 44.4502 128.064 46.4653C129.609 47.3233 133.311 44.8359 131.251 43.6982Z" fill="#F2F2F2"/>
<path d="M137.528 27.4043C138.895 23.7502 139.96 19.6912 139.01 15.7768C137.732 10.4451 133.897 7.05142 133.683 1.13163C133.604 -0.950905 129.342 0.167472 129.404 1.86435C129.483 5.45634 130.448 8.95947 132.201 12.0071C135.237 17.3195 135.601 21.5809 133.426 27.385C132.6 29.5736 136.871 28.9662 137.457 27.385L137.528 27.4043Z" fill="#F2F2F2"/>
<path d="M10.8906 176.891H5.09375V173.234H10.8906C11.7865 173.234 12.5156 173.089 13.0781 172.797C13.6406 172.495 14.0521 172.078 14.3125 171.547C14.5729 171.016 14.7031 170.417 14.7031 169.75C14.7031 169.073 14.5729 168.443 14.3125 167.859C14.0521 167.276 13.6406 166.807 13.0781 166.453C12.5156 166.099 11.7865 165.922 10.8906 165.922H6.71875V185H2.03125V162.25H10.8906C12.6719 162.25 14.1979 162.573 15.4688 163.219C16.75 163.854 17.7292 164.734 18.4062 165.859C19.0833 166.984 19.4219 168.271 19.4219 169.719C19.4219 171.188 19.0833 172.458 18.4062 173.531C17.7292 174.604 16.75 175.432 15.4688 176.016C14.1979 176.599 12.6719 176.891 10.8906 176.891ZM27.125 161V185H22.6094V161H27.125ZM38.625 185.312C37.3125 185.312 36.1354 185.104 35.0938 184.688C34.0521 184.26 33.1667 183.672 32.4375 182.922C31.7188 182.172 31.1667 181.302 30.7812 180.312C30.3958 179.312 30.2031 178.25 30.2031 177.125V176.5C30.2031 175.219 30.3854 174.047 30.75 172.984C31.1146 171.922 31.6354 171 32.3125 170.219C33 169.438 33.8333 168.839 34.8125 168.422C35.7917 167.995 36.8958 167.781 38.125 167.781C39.3229 167.781 40.3854 167.979 41.3125 168.375C42.2396 168.771 43.0156 169.333 43.6406 170.062C44.276 170.792 44.7552 171.667 45.0781 172.688C45.401 173.698 45.5625 174.823 45.5625 176.062V177.938H32.125V174.938H41.1406V174.594C41.1406 173.969 41.026 173.411 40.7969 172.922C40.5781 172.422 40.2448 172.026 39.7969 171.734C39.349 171.443 38.776 171.297 38.0781 171.297C37.4844 171.297 36.974 171.427 36.5469 171.688C36.1198 171.948 35.7708 172.312 35.5 172.781C35.2396 173.25 35.0417 173.802 34.9062 174.438C34.7812 175.062 34.7188 175.75 34.7188 176.5V177.125C34.7188 177.802 34.8125 178.427 35 179C35.1979 179.573 35.474 180.068 35.8281 180.484C36.1927 180.901 36.6302 181.224 37.1406 181.453C37.6615 181.682 38.25 181.797 38.9062 181.797C39.7188 181.797 40.474 181.641 41.1719 181.328C41.8802 181.005 42.4896 180.521 43 179.875L45.1875 182.25C44.8333 182.76 44.349 183.25 43.7344 183.719C43.1302 184.188 42.401 184.573 41.5469 184.875C40.6927 185.167 39.7188 185.312 38.625 185.312ZM57.25 181.188V173.656C57.25 173.115 57.1615 172.651 56.9844 172.266C56.8073 171.87 56.5312 171.562 56.1562 171.344C55.7917 171.125 55.3177 171.016 54.7344 171.016C54.2344 171.016 53.8021 171.104 53.4375 171.281C53.0729 171.448 52.7917 171.693 52.5938 172.016C52.3958 172.328 52.2969 172.698 52.2969 173.125H47.7969C47.7969 172.406 47.9635 171.724 48.2969 171.078C48.6302 170.432 49.1146 169.865 49.75 169.375C50.3854 168.875 51.1406 168.484 52.0156 168.203C52.901 167.922 53.8906 167.781 54.9844 167.781C56.2969 167.781 57.4635 168 58.4844 168.438C59.5052 168.875 60.3073 169.531 60.8906 170.406C61.4844 171.281 61.7812 172.375 61.7812 173.688V180.922C61.7812 181.849 61.8385 182.609 61.9531 183.203C62.0677 183.786 62.2344 184.297 62.4531 184.734V185H57.9062C57.6875 184.542 57.5208 183.969 57.4062 183.281C57.3021 182.583 57.25 181.885 57.25 181.188ZM57.8438 174.703L57.875 177.25H55.3594C54.7656 177.25 54.25 177.318 53.8125 177.453C53.375 177.589 53.0156 177.781 52.7344 178.031C52.4531 178.271 52.2448 178.552 52.1094 178.875C51.9844 179.198 51.9219 179.552 51.9219 179.938C51.9219 180.323 52.0104 180.672 52.1875 180.984C52.3646 181.286 52.6198 181.526 52.9531 181.703C53.2865 181.87 53.6771 181.953 54.125 181.953C54.8021 181.953 55.3906 181.818 55.8906 181.547C56.3906 181.276 56.776 180.943 57.0469 180.547C57.3281 180.151 57.474 179.776 57.4844 179.422L58.6719 181.328C58.5052 181.755 58.276 182.198 57.9844 182.656C57.7031 183.115 57.3438 183.547 56.9062 183.953C56.4688 184.349 55.9427 184.677 55.3281 184.938C54.7135 185.188 53.9844 185.312 53.1406 185.312C52.0677 185.312 51.0938 185.099 50.2188 184.672C49.3542 184.234 48.6667 183.635 48.1562 182.875C47.6562 182.104 47.4062 181.229 47.4062 180.25C47.4062 179.365 47.5729 178.578 47.9062 177.891C48.2396 177.203 48.7292 176.625 49.375 176.156C50.0312 175.677 50.849 175.318 51.8281 175.078C52.8073 174.828 53.9427 174.703 55.2344 174.703H57.8438ZM74.3906 180.328C74.3906 180.005 74.2969 179.714 74.1094 179.453C73.9219 179.193 73.5729 178.953 73.0625 178.734C72.5625 178.505 71.8385 178.297 70.8906 178.109C70.0365 177.922 69.2396 177.688 68.5 177.406C67.7708 177.115 67.1354 176.766 66.5938 176.359C66.0625 175.953 65.6458 175.474 65.3438 174.922C65.0417 174.359 64.8906 173.719 64.8906 173C64.8906 172.292 65.0417 171.625 65.3438 171C65.6562 170.375 66.099 169.823 66.6719 169.344C67.2552 168.854 67.9635 168.474 68.7969 168.203C69.6406 167.922 70.5885 167.781 71.6406 167.781C73.1094 167.781 74.3698 168.016 75.4219 168.484C76.4844 168.953 77.2969 169.599 77.8594 170.422C78.4323 171.234 78.7188 172.161 78.7188 173.203H74.2188C74.2188 172.766 74.125 172.375 73.9375 172.031C73.7604 171.677 73.4792 171.401 73.0938 171.203C72.7188 170.995 72.2292 170.891 71.625 170.891C71.125 170.891 70.6927 170.979 70.3281 171.156C69.9635 171.323 69.6823 171.552 69.4844 171.844C69.2969 172.125 69.2031 172.438 69.2031 172.781C69.2031 173.042 69.2552 173.276 69.3594 173.484C69.474 173.682 69.6562 173.865 69.9062 174.031C70.1562 174.198 70.4792 174.354 70.875 174.5C71.2812 174.635 71.7812 174.76 72.375 174.875C73.5938 175.125 74.6823 175.453 75.6406 175.859C76.599 176.255 77.3594 176.797 77.9219 177.484C78.4844 178.161 78.7656 179.052 78.7656 180.156C78.7656 180.906 78.599 181.594 78.2656 182.219C77.9323 182.844 77.4531 183.391 76.8281 183.859C76.2031 184.318 75.4531 184.677 74.5781 184.938C73.7135 185.188 72.7396 185.312 71.6562 185.312C70.0833 185.312 68.75 185.031 67.6562 184.469C66.5729 183.906 65.75 183.193 65.1875 182.328C64.6354 181.453 64.3594 180.557 64.3594 179.641H68.625C68.6458 180.255 68.8021 180.75 69.0938 181.125C69.3958 181.5 69.776 181.771 70.2344 181.938C70.7031 182.104 71.2083 182.188 71.75 182.188C72.3333 182.188 72.8177 182.109 73.2031 181.953C73.5885 181.786 73.8802 181.568 74.0781 181.297C74.2865 181.016 74.3906 180.693 74.3906 180.328ZM89.4688 185.312C88.1562 185.312 86.9792 185.104 85.9375 184.688C84.8958 184.26 84.0104 183.672 83.2812 182.922C82.5625 182.172 82.0104 181.302 81.625 180.312C81.2396 179.312 81.0469 178.25 81.0469 177.125V176.5C81.0469 175.219 81.2292 174.047 81.5938 172.984C81.9583 171.922 82.4792 171 83.1562 170.219C83.8438 169.438 84.6771 168.839 85.6562 168.422C86.6354 167.995 87.7396 167.781 88.9688 167.781C90.1667 167.781 91.2292 167.979 92.1562 168.375C93.0833 168.771 93.8594 169.333 94.4844 170.062C95.1198 170.792 95.599 171.667 95.9219 172.688C96.2448 173.698 96.4062 174.823 96.4062 176.062V177.938H82.9688V174.938H91.9844V174.594C91.9844 173.969 91.8698 173.411 91.6406 172.922C91.4219 172.422 91.0885 172.026 90.6406 171.734C90.1927 171.443 89.6198 171.297 88.9219 171.297C88.3281 171.297 87.8177 171.427 87.3906 171.688C86.9635 171.948 86.6146 172.312 86.3438 172.781C86.0833 173.25 85.8854 173.802 85.75 174.438C85.625 175.062 85.5625 175.75 85.5625 176.5V177.125C85.5625 177.802 85.6562 178.427 85.8438 179C86.0417 179.573 86.3177 180.068 86.6719 180.484C87.0365 180.901 87.474 181.224 87.9844 181.453C88.5052 181.682 89.0938 181.797 89.75 181.797C90.5625 181.797 91.3177 181.641 92.0156 181.328C92.724 181.005 93.3333 180.521 93.8438 179.875L96.0312 182.25C95.6771 182.76 95.1927 183.25 94.5781 183.719C93.974 184.188 93.2448 184.573 92.3906 184.875C91.5365 185.167 90.5625 185.312 89.4688 185.312ZM125.906 173.094V174.172C125.906 175.901 125.672 177.453 125.203 178.828C124.734 180.203 124.073 181.375 123.219 182.344C122.365 183.302 121.344 184.036 120.156 184.547C118.979 185.057 117.672 185.312 116.234 185.312C114.807 185.312 113.5 185.057 112.312 184.547C111.135 184.036 110.115 183.302 109.25 182.344C108.385 181.375 107.714 180.203 107.234 178.828C106.766 177.453 106.531 175.901 106.531 174.172V173.094C106.531 171.354 106.766 169.802 107.234 168.438C107.703 167.062 108.365 165.891 109.219 164.922C110.083 163.953 111.104 163.214 112.281 162.703C113.469 162.193 114.776 161.938 116.203 161.938C117.641 161.938 118.948 162.193 120.125 162.703C121.312 163.214 122.333 163.953 123.188 164.922C124.052 165.891 124.719 167.062 125.188 168.438C125.667 169.802 125.906 171.354 125.906 173.094ZM121.172 174.172V173.062C121.172 171.854 121.062 170.792 120.844 169.875C120.625 168.958 120.302 168.188 119.875 167.562C119.448 166.938 118.927 166.469 118.312 166.156C117.698 165.833 116.995 165.672 116.203 165.672C115.411 165.672 114.708 165.833 114.094 166.156C113.49 166.469 112.974 166.938 112.547 167.562C112.13 168.188 111.812 168.958 111.594 169.875C111.375 170.792 111.266 171.854 111.266 173.062V174.172C111.266 175.37 111.375 176.432 111.594 177.359C111.812 178.276 112.135 179.052 112.562 179.688C112.99 180.312 113.51 180.786 114.125 181.109C114.74 181.432 115.443 181.594 116.234 181.594C117.026 181.594 117.729 181.432 118.344 181.109C118.958 180.786 119.474 180.312 119.891 179.688C120.307 179.052 120.625 178.276 120.844 177.359C121.062 176.432 121.172 175.37 121.172 174.172ZM133.5 171.344V191.5H129V168.094H133.172L133.5 171.344ZM144.203 176.359V176.688C144.203 177.917 144.057 179.057 143.766 180.109C143.484 181.161 143.068 182.078 142.516 182.859C141.964 183.63 141.276 184.234 140.453 184.672C139.641 185.099 138.703 185.312 137.641 185.312C136.609 185.312 135.714 185.104 134.953 184.688C134.193 184.271 133.552 183.688 133.031 182.938C132.521 182.177 132.109 181.297 131.797 180.297C131.484 179.297 131.245 178.224 131.078 177.078V176.219C131.245 174.99 131.484 173.865 131.797 172.844C132.109 171.812 132.521 170.922 133.031 170.172C133.552 169.411 134.188 168.823 134.938 168.406C135.698 167.99 136.589 167.781 137.609 167.781C138.682 167.781 139.625 167.984 140.438 168.391C141.26 168.797 141.948 169.38 142.5 170.141C143.062 170.901 143.484 171.807 143.766 172.859C144.057 173.911 144.203 175.078 144.203 176.359ZM139.688 176.688V176.359C139.688 175.641 139.625 174.979 139.5 174.375C139.385 173.76 139.198 173.224 138.938 172.766C138.688 172.307 138.354 171.953 137.938 171.703C137.531 171.443 137.036 171.312 136.453 171.312C135.839 171.312 135.312 171.411 134.875 171.609C134.448 171.807 134.099 172.094 133.828 172.469C133.557 172.844 133.354 173.292 133.219 173.812C133.083 174.333 133 174.922 132.969 175.578V177.75C133.021 178.521 133.167 179.214 133.406 179.828C133.646 180.432 134.016 180.911 134.516 181.266C135.016 181.62 135.672 181.797 136.484 181.797C137.078 181.797 137.578 181.667 137.984 181.406C138.391 181.135 138.719 180.766 138.969 180.297C139.229 179.828 139.411 179.286 139.516 178.672C139.63 178.057 139.688 177.396 139.688 176.688ZM154.781 185.312C153.469 185.312 152.292 185.104 151.25 184.688C150.208 184.26 149.323 183.672 148.594 182.922C147.875 182.172 147.323 181.302 146.938 180.312C146.552 179.312 146.359 178.25 146.359 177.125V176.5C146.359 175.219 146.542 174.047 146.906 172.984C147.271 171.922 147.792 171 148.469 170.219C149.156 169.438 149.99 168.839 150.969 168.422C151.948 167.995 153.052 167.781 154.281 167.781C155.479 167.781 156.542 167.979 157.469 168.375C158.396 168.771 159.172 169.333 159.797 170.062C160.432 170.792 160.911 171.667 161.234 172.688C161.557 173.698 161.719 174.823 161.719 176.062V177.938H148.281V174.938H157.297V174.594C157.297 173.969 157.182 173.411 156.953 172.922C156.734 172.422 156.401 172.026 155.953 171.734C155.505 171.443 154.932 171.297 154.234 171.297C153.641 171.297 153.13 171.427 152.703 171.688C152.276 171.948 151.927 172.312 151.656 172.781C151.396 173.25 151.198 173.802 151.062 174.438C150.938 175.062 150.875 175.75 150.875 176.5V177.125C150.875 177.802 150.969 178.427 151.156 179C151.354 179.573 151.63 180.068 151.984 180.484C152.349 180.901 152.786 181.224 153.297 181.453C153.818 181.682 154.406 181.797 155.062 181.797C155.875 181.797 156.63 181.641 157.328 181.328C158.036 181.005 158.646 180.521 159.156 179.875L161.344 182.25C160.99 182.76 160.505 183.25 159.891 183.719C159.286 184.188 158.557 184.573 157.703 184.875C156.849 185.167 155.875 185.312 154.781 185.312ZM168.688 171.703V185H164.188V168.094H168.406L168.688 171.703ZM168.031 175.953H166.812C166.812 174.703 166.974 173.578 167.297 172.578C167.62 171.568 168.073 170.708 168.656 170C169.24 169.281 169.932 168.734 170.734 168.359C171.547 167.974 172.453 167.781 173.453 167.781C174.245 167.781 174.969 167.896 175.625 168.125C176.281 168.354 176.844 168.719 177.312 169.219C177.792 169.719 178.156 170.38 178.406 171.203C178.667 172.026 178.797 173.031 178.797 174.219V185H174.266V174.203C174.266 173.453 174.161 172.87 173.953 172.453C173.745 172.036 173.438 171.745 173.031 171.578C172.635 171.401 172.146 171.312 171.562 171.312C170.958 171.312 170.432 171.432 169.984 171.672C169.547 171.911 169.182 172.245 168.891 172.672C168.609 173.089 168.396 173.578 168.25 174.141C168.104 174.703 168.031 175.307 168.031 175.953ZM189.469 176.719V176.391C189.469 175.151 189.646 174.01 190 172.969C190.354 171.917 190.87 171.005 191.547 170.234C192.224 169.464 193.057 168.865 194.047 168.438C195.036 168 196.172 167.781 197.453 167.781C198.734 167.781 199.875 168 200.875 168.438C201.875 168.865 202.714 169.464 203.391 170.234C204.078 171.005 204.599 171.917 204.953 172.969C205.307 174.01 205.484 175.151 205.484 176.391V176.719C205.484 177.948 205.307 179.089 204.953 180.141C204.599 181.182 204.078 182.094 203.391 182.875C202.714 183.646 201.88 184.245 200.891 184.672C199.901 185.099 198.766 185.312 197.484 185.312C196.203 185.312 195.062 185.099 194.062 184.672C193.073 184.245 192.234 183.646 191.547 182.875C190.87 182.094 190.354 181.182 190 180.141C189.646 179.089 189.469 177.948 189.469 176.719ZM193.969 176.391V176.719C193.969 177.427 194.031 178.089 194.156 178.703C194.281 179.318 194.479 179.859 194.75 180.328C195.031 180.786 195.396 181.146 195.844 181.406C196.292 181.667 196.839 181.797 197.484 181.797C198.109 181.797 198.646 181.667 199.094 181.406C199.542 181.146 199.901 180.786 200.172 180.328C200.443 179.859 200.641 179.318 200.766 178.703C200.901 178.089 200.969 177.427 200.969 176.719V176.391C200.969 175.703 200.901 175.057 200.766 174.453C200.641 173.839 200.438 173.297 200.156 172.828C199.885 172.349 199.526 171.974 199.078 171.703C198.63 171.432 198.089 171.297 197.453 171.297C196.818 171.297 196.276 171.432 195.828 171.703C195.391 171.974 195.031 172.349 194.75 172.828C194.479 173.297 194.281 173.839 194.156 174.453C194.031 175.057 193.969 175.703 193.969 176.391ZM212.656 171.703V185H208.156V168.094H212.375L212.656 171.703ZM212 175.953H210.781C210.781 174.703 210.943 173.578 211.266 172.578C211.589 171.568 212.042 170.708 212.625 170C213.208 169.281 213.901 168.734 214.703 168.359C215.516 167.974 216.422 167.781 217.422 167.781C218.214 167.781 218.938 167.896 219.594 168.125C220.25 168.354 220.812 168.719 221.281 169.219C221.76 169.719 222.125 170.38 222.375 171.203C222.635 172.026 222.766 173.031 222.766 174.219V185H218.234V174.203C218.234 173.453 218.13 172.87 217.922 172.453C217.714 172.036 217.406 171.745 217 171.578C216.604 171.401 216.115 171.312 215.531 171.312C214.927 171.312 214.401 171.432 213.953 171.672C213.516 171.911 213.151 172.245 212.859 172.672C212.578 173.089 212.365 173.578 212.219 174.141C212.073 174.703 212 175.307 212 175.953ZM243.281 181.188V173.656C243.281 173.115 243.193 172.651 243.016 172.266C242.839 171.87 242.562 171.562 242.188 171.344C241.823 171.125 241.349 171.016 240.766 171.016C240.266 171.016 239.833 171.104 239.469 171.281C239.104 171.448 238.823 171.693 238.625 172.016C238.427 172.328 238.328 172.698 238.328 173.125H233.828C233.828 172.406 233.995 171.724 234.328 171.078C234.661 170.432 235.146 169.865 235.781 169.375C236.417 168.875 237.172 168.484 238.047 168.203C238.932 167.922 239.922 167.781 241.016 167.781C242.328 167.781 243.495 168 244.516 168.438C245.536 168.875 246.339 169.531 246.922 170.406C247.516 171.281 247.812 172.375 247.812 173.688V180.922C247.812 181.849 247.87 182.609 247.984 183.203C248.099 183.786 248.266 184.297 248.484 184.734V185H243.938C243.719 184.542 243.552 183.969 243.438 183.281C243.333 182.583 243.281 181.885 243.281 181.188ZM243.875 174.703L243.906 177.25H241.391C240.797 177.25 240.281 177.318 239.844 177.453C239.406 177.589 239.047 177.781 238.766 178.031C238.484 178.271 238.276 178.552 238.141 178.875C238.016 179.198 237.953 179.552 237.953 179.938C237.953 180.323 238.042 180.672 238.219 180.984C238.396 181.286 238.651 181.526 238.984 181.703C239.318 181.87 239.708 181.953 240.156 181.953C240.833 181.953 241.422 181.818 241.922 181.547C242.422 181.276 242.807 180.943 243.078 180.547C243.359 180.151 243.505 179.776 243.516 179.422L244.703 181.328C244.536 181.755 244.307 182.198 244.016 182.656C243.734 183.115 243.375 183.547 242.938 183.953C242.5 184.349 241.974 184.677 241.359 184.938C240.745 185.188 240.016 185.312 239.172 185.312C238.099 185.312 237.125 185.099 236.25 184.672C235.385 184.234 234.698 183.635 234.188 182.875C233.688 182.104 233.438 181.229 233.438 180.25C233.438 179.365 233.604 178.578 233.938 177.891C234.271 177.203 234.76 176.625 235.406 176.156C236.062 175.677 236.88 175.318 237.859 175.078C238.839 174.828 239.974 174.703 241.266 174.703H243.875ZM359.984 180.25L365.344 162.25H370.562L362.641 185H359.203L359.984 180.25ZM355.047 162.25L360.391 180.25L361.203 185H357.734L349.859 162.25H355.047ZM377.156 168.094V185H372.641V168.094H377.156ZM372.359 163.688C372.359 163.031 372.589 162.49 373.047 162.062C373.505 161.635 374.12 161.422 374.891 161.422C375.651 161.422 376.26 161.635 376.719 162.062C377.188 162.49 377.422 163.031 377.422 163.688C377.422 164.344 377.188 164.885 376.719 165.312C376.26 165.74 375.651 165.953 374.891 165.953C374.12 165.953 373.505 165.74 373.047 165.312C372.589 164.885 372.359 164.344 372.359 163.688ZM388.656 185.312C387.344 185.312 386.167 185.104 385.125 184.688C384.083 184.26 383.198 183.672 382.469 182.922C381.75 182.172 381.198 181.302 380.812 180.312C380.427 179.312 380.234 178.25 380.234 177.125V176.5C380.234 175.219 380.417 174.047 380.781 172.984C381.146 171.922 381.667 171 382.344 170.219C383.031 169.438 383.865 168.839 384.844 168.422C385.823 167.995 386.927 167.781 388.156 167.781C389.354 167.781 390.417 167.979 391.344 168.375C392.271 168.771 393.047 169.333 393.672 170.062C394.307 170.792 394.786 171.667 395.109 172.688C395.432 173.698 395.594 174.823 395.594 176.062V177.938H382.156V174.938H391.172V174.594C391.172 173.969 391.057 173.411 390.828 172.922C390.609 172.422 390.276 172.026 389.828 171.734C389.38 171.443 388.807 171.297 388.109 171.297C387.516 171.297 387.005 171.427 386.578 171.688C386.151 171.948 385.802 172.312 385.531 172.781C385.271 173.25 385.073 173.802 384.938 174.438C384.812 175.062 384.75 175.75 384.75 176.5V177.125C384.75 177.802 384.844 178.427 385.031 179C385.229 179.573 385.505 180.068 385.859 180.484C386.224 180.901 386.661 181.224 387.172 181.453C387.693 181.682 388.281 181.797 388.938 181.797C389.75 181.797 390.505 181.641 391.203 181.328C391.911 181.005 392.521 180.521 393.031 179.875L395.219 182.25C394.865 182.76 394.38 183.25 393.766 183.719C393.161 184.188 392.432 184.573 391.578 184.875C390.724 185.167 389.75 185.312 388.656 185.312ZM402.984 180.625L406.5 168.094H409.359L408.438 173.016L404.922 185H402.531L402.984 180.625ZM401.203 168.094L403.719 180.609L403.953 185H401.141L396.859 168.094H401.203ZM412.578 180.406L415.031 168.094H419.391L415.109 185H412.312L412.578 180.406ZM409.75 168.094L413.25 180.531L413.734 185H411.328L407.812 173.031L406.922 168.094H409.75ZM426.156 171.344V191.5H421.656V168.094H425.828L426.156 171.344ZM436.859 176.359V176.688C436.859 177.917 436.714 179.057 436.422 180.109C436.141 181.161 435.724 182.078 435.172 182.859C434.62 183.63 433.932 184.234 433.109 184.672C432.297 185.099 431.359 185.312 430.297 185.312C429.266 185.312 428.37 185.104 427.609 184.688C426.849 184.271 426.208 183.688 425.688 182.938C425.177 182.177 424.766 181.297 424.453 180.297C424.141 179.297 423.901 178.224 423.734 177.078V176.219C423.901 174.99 424.141 173.865 424.453 172.844C424.766 171.812 425.177 170.922 425.688 170.172C426.208 169.411 426.844 168.823 427.594 168.406C428.354 167.99 429.245 167.781 430.266 167.781C431.339 167.781 432.281 167.984 433.094 168.391C433.917 168.797 434.604 169.38 435.156 170.141C435.719 170.901 436.141 171.807 436.422 172.859C436.714 173.911 436.859 175.078 436.859 176.359ZM432.344 176.688V176.359C432.344 175.641 432.281 174.979 432.156 174.375C432.042 173.76 431.854 173.224 431.594 172.766C431.344 172.307 431.01 171.953 430.594 171.703C430.188 171.443 429.693 171.312 429.109 171.312C428.495 171.312 427.969 171.411 427.531 171.609C427.104 171.807 426.755 172.094 426.484 172.469C426.214 172.844 426.01 173.292 425.875 173.812C425.74 174.333 425.656 174.922 425.625 175.578V177.75C425.677 178.521 425.823 179.214 426.062 179.828C426.302 180.432 426.672 180.911 427.172 181.266C427.672 181.62 428.328 181.797 429.141 181.797C429.734 181.797 430.234 181.667 430.641 181.406C431.047 181.135 431.375 180.766 431.625 180.297C431.885 179.828 432.068 179.286 432.172 178.672C432.286 178.057 432.344 177.396 432.344 176.688ZM438.938 176.719V176.391C438.938 175.151 439.115 174.01 439.469 172.969C439.823 171.917 440.339 171.005 441.016 170.234C441.693 169.464 442.526 168.865 443.516 168.438C444.505 168 445.641 167.781 446.922 167.781C448.203 167.781 449.344 168 450.344 168.438C451.344 168.865 452.182 169.464 452.859 170.234C453.547 171.005 454.068 171.917 454.422 172.969C454.776 174.01 454.953 175.151 454.953 176.391V176.719C454.953 177.948 454.776 179.089 454.422 180.141C454.068 181.182 453.547 182.094 452.859 182.875C452.182 183.646 451.349 184.245 450.359 184.672C449.37 185.099 448.234 185.312 446.953 185.312C445.672 185.312 444.531 185.099 443.531 184.672C442.542 184.245 441.703 183.646 441.016 182.875C440.339 182.094 439.823 181.182 439.469 180.141C439.115 179.089 438.938 177.948 438.938 176.719ZM443.438 176.391V176.719C443.438 177.427 443.5 178.089 443.625 178.703C443.75 179.318 443.948 179.859 444.219 180.328C444.5 180.786 444.865 181.146 445.312 181.406C445.76 181.667 446.307 181.797 446.953 181.797C447.578 181.797 448.115 181.667 448.562 181.406C449.01 181.146 449.37 180.786 449.641 180.328C449.911 179.859 450.109 179.318 450.234 178.703C450.37 178.089 450.438 177.427 450.438 176.719V176.391C450.438 175.703 450.37 175.057 450.234 174.453C450.109 173.839 449.906 173.297 449.625 172.828C449.354 172.349 448.995 171.974 448.547 171.703C448.099 171.432 447.557 171.297 446.922 171.297C446.286 171.297 445.745 171.432 445.297 171.703C444.859 171.974 444.5 172.349 444.219 172.828C443.948 173.297 443.75 173.839 443.625 174.453C443.5 175.057 443.438 175.703 443.438 176.391ZM462.219 171.781V185H457.719V168.094H461.953L462.219 171.781ZM467.312 167.984L467.234 172.156C467.016 172.125 466.75 172.099 466.438 172.078C466.135 172.047 465.859 172.031 465.609 172.031C464.974 172.031 464.422 172.115 463.953 172.281C463.495 172.438 463.109 172.672 462.797 172.984C462.495 173.297 462.266 173.677 462.109 174.125C461.964 174.573 461.88 175.083 461.859 175.656L460.953 175.375C460.953 174.281 461.062 173.276 461.281 172.359C461.5 171.432 461.818 170.625 462.234 169.938C462.661 169.25 463.182 168.719 463.797 168.344C464.411 167.969 465.115 167.781 465.906 167.781C466.156 167.781 466.411 167.802 466.672 167.844C466.932 167.875 467.146 167.922 467.312 167.984ZM478.5 168.094V171.281H468.656V168.094H478.5ZM471.094 163.922H475.594V179.906C475.594 180.396 475.656 180.771 475.781 181.031C475.917 181.292 476.115 181.474 476.375 181.578C476.635 181.672 476.964 181.719 477.359 181.719C477.641 181.719 477.891 181.708 478.109 181.688C478.339 181.656 478.531 181.625 478.688 181.594L478.703 184.906C478.318 185.031 477.901 185.13 477.453 185.203C477.005 185.276 476.51 185.312 475.969 185.312C474.979 185.312 474.115 185.151 473.375 184.828C472.646 184.495 472.083 183.964 471.688 183.234C471.292 182.505 471.094 181.547 471.094 180.359V163.922Z" fill="white"/>
<path d="M264 161V185H259.484V161H264ZM276.844 181.188V173.656C276.844 173.115 276.755 172.651 276.578 172.266C276.401 171.87 276.125 171.562 275.75 171.344C275.385 171.125 274.911 171.016 274.328 171.016C273.828 171.016 273.396 171.104 273.031 171.281C272.667 171.448 272.385 171.693 272.188 172.016C271.99 172.328 271.891 172.698 271.891 173.125H267.391C267.391 172.406 267.557 171.724 267.891 171.078C268.224 170.432 268.708 169.865 269.344 169.375C269.979 168.875 270.734 168.484 271.609 168.203C272.495 167.922 273.484 167.781 274.578 167.781C275.891 167.781 277.057 168 278.078 168.438C279.099 168.875 279.901 169.531 280.484 170.406C281.078 171.281 281.375 172.375 281.375 173.688V180.922C281.375 181.849 281.432 182.609 281.547 183.203C281.661 183.786 281.828 184.297 282.047 184.734V185H277.5C277.281 184.542 277.115 183.969 277 183.281C276.896 182.583 276.844 181.885 276.844 181.188ZM277.438 174.703L277.469 177.25H274.953C274.359 177.25 273.844 177.318 273.406 177.453C272.969 177.589 272.609 177.781 272.328 178.031C272.047 178.271 271.839 178.552 271.703 178.875C271.578 179.198 271.516 179.552 271.516 179.938C271.516 180.323 271.604 180.672 271.781 180.984C271.958 181.286 272.214 181.526 272.547 181.703C272.88 181.87 273.271 181.953 273.719 181.953C274.396 181.953 274.984 181.818 275.484 181.547C275.984 181.276 276.37 180.943 276.641 180.547C276.922 180.151 277.068 179.776 277.078 179.422L278.266 181.328C278.099 181.755 277.87 182.198 277.578 182.656C277.297 183.115 276.938 183.547 276.5 183.953C276.062 184.349 275.536 184.677 274.922 184.938C274.307 185.188 273.578 185.312 272.734 185.312C271.661 185.312 270.688 185.099 269.812 184.672C268.948 184.234 268.26 183.635 267.75 182.875C267.25 182.104 267 181.229 267 180.25C267 179.365 267.167 178.578 267.5 177.891C267.833 177.203 268.323 176.625 268.969 176.156C269.625 175.677 270.443 175.318 271.422 175.078C272.401 174.828 273.536 174.703 274.828 174.703H277.438ZM289.344 171.781V185H284.844V168.094H289.078L289.344 171.781ZM294.438 167.984L294.359 172.156C294.141 172.125 293.875 172.099 293.562 172.078C293.26 172.047 292.984 172.031 292.734 172.031C292.099 172.031 291.547 172.115 291.078 172.281C290.62 172.438 290.234 172.672 289.922 172.984C289.62 173.297 289.391 173.677 289.234 174.125C289.089 174.573 289.005 175.083 288.984 175.656L288.078 175.375C288.078 174.281 288.188 173.276 288.406 172.359C288.625 171.432 288.943 170.625 289.359 169.938C289.786 169.25 290.307 168.719 290.922 168.344C291.536 167.969 292.24 167.781 293.031 167.781C293.281 167.781 293.536 167.802 293.797 167.844C294.057 167.875 294.271 167.922 294.438 167.984ZM306.953 168.094H311.031V184.438C311.031 185.979 310.688 187.286 310 188.359C309.323 189.443 308.375 190.26 307.156 190.812C305.938 191.375 304.521 191.656 302.906 191.656C302.198 191.656 301.448 191.562 300.656 191.375C299.875 191.188 299.125 190.896 298.406 190.5C297.698 190.104 297.104 189.604 296.625 189L298.609 186.344C299.13 186.948 299.734 187.417 300.422 187.75C301.109 188.094 301.87 188.266 302.703 188.266C303.516 188.266 304.203 188.115 304.766 187.812C305.328 187.521 305.76 187.089 306.062 186.516C306.365 185.953 306.516 185.271 306.516 184.469V172L306.953 168.094ZM295.578 176.75V176.422C295.578 175.13 295.734 173.958 296.047 172.906C296.37 171.844 296.823 170.932 297.406 170.172C298 169.411 298.719 168.823 299.562 168.406C300.406 167.99 301.359 167.781 302.422 167.781C303.547 167.781 304.49 167.99 305.25 168.406C306.01 168.823 306.635 169.417 307.125 170.188C307.615 170.948 307.995 171.849 308.266 172.891C308.547 173.922 308.766 175.052 308.922 176.281V177C308.766 178.177 308.531 179.271 308.219 180.281C307.906 181.292 307.495 182.177 306.984 182.938C306.474 183.688 305.839 184.271 305.078 184.688C304.328 185.104 303.432 185.312 302.391 185.312C301.349 185.312 300.406 185.099 299.562 184.672C298.729 184.245 298.016 183.646 297.422 182.875C296.828 182.104 296.37 181.198 296.047 180.156C295.734 179.115 295.578 177.979 295.578 176.75ZM300.078 176.422V176.75C300.078 177.448 300.146 178.099 300.281 178.703C300.417 179.307 300.625 179.844 300.906 180.312C301.198 180.771 301.557 181.13 301.984 181.391C302.422 181.641 302.938 181.766 303.531 181.766C304.354 181.766 305.026 181.594 305.547 181.25C306.068 180.896 306.458 180.411 306.719 179.797C306.979 179.182 307.13 178.474 307.172 177.672V175.625C307.151 174.969 307.062 174.38 306.906 173.859C306.75 173.328 306.531 172.875 306.25 172.5C305.969 172.125 305.604 171.833 305.156 171.625C304.708 171.417 304.177 171.312 303.562 171.312C302.969 171.312 302.453 171.448 302.016 171.719C301.589 171.979 301.229 172.339 300.938 172.797C300.656 173.255 300.443 173.797 300.297 174.422C300.151 175.036 300.078 175.703 300.078 176.422ZM322.312 185.312C321 185.312 319.823 185.104 318.781 184.688C317.74 184.26 316.854 183.672 316.125 182.922C315.406 182.172 314.854 181.302 314.469 180.312C314.083 179.312 313.891 178.25 313.891 177.125V176.5C313.891 175.219 314.073 174.047 314.438 172.984C314.802 171.922 315.323 171 316 170.219C316.688 169.438 317.521 168.839 318.5 168.422C319.479 167.995 320.583 167.781 321.812 167.781C323.01 167.781 324.073 167.979 325 168.375C325.927 168.771 326.703 169.333 327.328 170.062C327.964 170.792 328.443 171.667 328.766 172.688C329.089 173.698 329.25 174.823 329.25 176.062V177.938H315.812V174.938H324.828V174.594C324.828 173.969 324.714 173.411 324.484 172.922C324.266 172.422 323.932 172.026 323.484 171.734C323.036 171.443 322.464 171.297 321.766 171.297C321.172 171.297 320.661 171.427 320.234 171.688C319.807 171.948 319.458 172.312 319.188 172.781C318.927 173.25 318.729 173.802 318.594 174.438C318.469 175.062 318.406 175.75 318.406 176.5V177.125C318.406 177.802 318.5 178.427 318.688 179C318.885 179.573 319.161 180.068 319.516 180.484C319.88 180.901 320.318 181.224 320.828 181.453C321.349 181.682 321.938 181.797 322.594 181.797C323.406 181.797 324.161 181.641 324.859 181.328C325.568 181.005 326.177 180.521 326.688 179.875L328.875 182.25C328.521 182.76 328.036 183.25 327.422 183.719C326.818 184.188 326.089 184.573 325.234 184.875C324.38 185.167 323.406 185.312 322.312 185.312ZM336.312 171.781V185H331.812V168.094H336.047L336.312 171.781ZM341.406 167.984L341.328 172.156C341.109 172.125 340.844 172.099 340.531 172.078C340.229 172.047 339.953 172.031 339.703 172.031C339.068 172.031 338.516 172.115 338.047 172.281C337.589 172.438 337.203 172.672 336.891 172.984C336.589 173.297 336.359 173.677 336.203 174.125C336.057 174.573 335.974 175.083 335.953 175.656L335.047 175.375C335.047 174.281 335.156 173.276 335.375 172.359C335.594 171.432 335.911 170.625 336.328 169.938C336.755 169.25 337.276 168.719 337.891 168.344C338.505 167.969 339.208 167.781 340 167.781C340.25 167.781 340.505 167.802 340.766 167.844C341.026 167.875 341.24 167.922 341.406 167.984Z" fill="#BB6BD9"/>
</svg>
