<svg width="23" height="27" viewBox="0 0 23 27" fill="none" xmlns="http://www.w3.org/2000/svg">
<path d="M22.2789 22.2379C22.249 22.2185 22.166 22.1701 22.0305 22.0949C21.895 22.0196 21.7869 21.9548 21.7064 21.8989C21.626 21.8441 21.5205 21.7481 21.3899 21.6129C21.2594 21.4774 21.1564 21.3339 21.0812 21.1834C21.0059 21.0327 20.9328 20.8297 20.8627 20.5738C20.7923 20.3172 20.752 20.0342 20.7422 19.7222C20.6015 19.843 20.5236 20.0817 20.5087 20.438C20.4937 20.7951 20.5689 21.1589 20.7347 21.5302C20.9004 21.9021 21.1489 22.1433 21.4804 22.2534C21.8018 22.3641 22.0604 22.4823 22.2565 22.6077C22.4524 22.733 22.5778 22.876 22.6332 23.0366C22.6882 23.1971 22.5954 23.3704 22.3544 23.5563C22.1135 23.7422 21.7266 23.9259 21.1945 24.1066C20.4611 24.3574 19.9414 24.571 19.635 24.7469C19.3286 24.9221 18.8792 25.2559 18.2865 25.7486C17.8847 26.0798 17.4577 26.2582 17.0057 26.2836C16.5538 26.3084 16.1871 26.1429 15.906 25.7863C15.6247 25.4298 15.5344 24.9247 15.6348 24.2721C15.8253 23.0173 15.8204 22.0381 15.6198 21.3341C15.4589 20.7821 15.4238 20.2947 15.5143 19.8729C15.6048 19.4509 15.7452 19.2056 15.936 19.135C16.1265 19.0649 16.3327 19.2157 16.5538 19.587C16.574 19.6371 16.6189 19.7352 16.6892 19.8807C16.7593 20.0266 16.8172 20.1292 16.8625 20.1898C16.9078 20.2497 16.9755 20.3282 17.066 20.4233C17.1565 20.5186 17.2695 20.5864 17.405 20.6262C17.5404 20.6668 17.6987 20.6916 17.8794 20.7015C18.2207 20.7121 18.5272 20.6415 18.7984 20.4907C19.0697 20.34 19.2729 20.1716 19.4087 19.9857C19.5441 19.8003 19.6799 19.6219 19.8155 19.4507C19.9509 19.2806 20.0691 19.1846 20.1694 19.1648C20.2799 19.1448 20.3804 19.0342 20.4707 18.8335C20.5609 18.6329 20.6212 18.3538 20.6515 17.9973C20.6814 17.6407 20.6564 17.217 20.5762 16.7243C20.4254 15.8503 20.1265 14.891 19.6797 13.8463C19.2326 12.8022 18.7328 11.9835 18.1807 11.3903C17.1866 10.3355 16.5183 9.24098 16.177 8.10639C15.8253 6.91099 15.6746 5.83632 15.725 4.8819C15.7752 4.1993 15.627 3.45815 15.2805 2.65968C14.934 1.86122 14.4745 1.25115 13.902 0.829452C13.5405 0.558193 13.0934 0.349767 12.561 0.20394C12.0286 0.0586784 11.4962 -0.00910096 10.9641 0.00097881C10.3111 0.00097881 9.78877 0.106204 9.39703 0.316937C8.59338 0.749614 8.06122 1.27395 7.80004 1.89174C7.53886 2.50919 7.41838 3.26993 7.43858 4.17391C7.47867 6.16264 7.55907 7.71983 7.67956 8.84433C7.53858 9.36697 6.91594 10.3462 5.81131 11.7823C5.61038 11.9835 5.41439 12.2542 5.22381 12.5958C5.03296 12.9377 4.88223 13.2438 4.77183 13.5151C4.66114 13.7863 4.51324 14.1778 4.32733 14.6903C4.14137 15.2023 4.00821 15.5643 3.92809 15.775C3.85772 15.9558 3.74736 16.1671 3.59659 16.4078C3.44582 16.6491 3.32533 16.8852 3.23509 17.1158C3.1446 17.347 3.09411 17.6084 3.08431 17.8996C3.07423 18.1209 3.08431 18.3115 3.11432 18.4715C3.1544 18.7128 3.22962 18.788 3.34031 18.6975C3.7923 18.3562 4.35964 18.5574 5.0428 19.3003C5.52475 19.8229 6.37343 21.0382 7.58903 22.9468C7.68935 23.1174 7.78996 23.3005 7.89029 23.4965C7.99062 23.6925 8.08633 23.9531 8.17653 24.2797C8.26677 24.6064 8.3045 24.9001 8.28952 25.1612C8.27455 25.4218 8.15896 25.6634 7.94304 25.8845C7.72685 26.1053 7.40283 26.246 6.97129 26.3059C6.74011 26.3364 6.46136 26.316 6.13504 26.246C5.80844 26.1753 5.39418 26.0601 4.89203 25.8992C4.3896 25.7386 4.01834 25.6279 3.77704 25.568C3.42538 25.4873 2.92582 25.3844 2.27807 25.259C1.63005 25.1336 1.20576 25.0407 1.00482 24.9805C0.663238 24.89 0.477563 24.7591 0.447323 24.5885C0.417037 24.4478 0.487407 24.2065 0.658339 23.8652C0.828988 23.5234 0.914337 23.2778 0.914337 23.1273C0.924134 23.0172 0.919235 22.9065 0.899359 22.7961C0.879199 22.6854 0.856402 22.6001 0.831626 22.5395C0.806521 22.4796 0.763894 22.3888 0.703651 22.2689C0.643408 22.1481 0.603042 22.0576 0.583165 21.9976C0.402435 21.5756 0.377048 21.2897 0.507896 21.1389C0.598426 21.0083 0.814057 20.9575 1.15592 20.9882C1.66815 21.0383 2.08472 20.9628 2.40642 20.7622C2.93853 20.4303 3.09939 19.8982 2.88837 19.1649C2.88837 19.5068 2.82813 19.7627 2.70764 19.9334C2.58711 20.104 2.37614 20.2793 2.07488 20.4606C1.90394 20.5612 1.60273 20.6211 1.1709 20.6413C0.738789 20.6612 0.452834 20.7313 0.312189 20.8521C0.211579 20.9426 0.159108 21.0781 0.153927 21.2588C0.148746 21.4401 0.171543 21.6237 0.221659 21.8091C0.271822 21.995 0.321986 22.2081 0.372432 22.4494C0.422548 22.69 0.442472 22.8913 0.432675 23.0522C0.422595 23.1623 0.332065 23.4364 0.161416 23.8731C-0.00951617 24.3098 -0.0447012 24.6442 0.055908 24.8748C0.106071 24.9856 0.191373 25.0833 0.311906 25.1692C0.432439 25.2539 0.600451 25.3269 0.816648 25.3874C1.03256 25.4473 1.23086 25.4952 1.41164 25.5304C1.59237 25.5649 1.84342 25.6105 2.16484 25.6659C2.48626 25.7212 2.74226 25.7688 2.93335 25.8094C3.57591 25.9394 4.30924 26.1556 5.1331 26.4569C5.95639 26.7581 6.51417 26.9135 6.80558 26.9241C7.08664 26.9342 7.35531 26.876 7.61159 26.7511C7.86782 26.6252 8.08604 26.4822 8.26682 26.3217C8.44755 26.1605 8.71622 26.0098 9.07282 25.8696C9.4291 25.729 9.82862 25.6537 10.2705 25.6436C10.4715 25.633 10.7626 25.6211 11.1443 25.6059C11.5259 25.5906 11.8122 25.5834 12.003 25.5834C12.8666 25.5834 13.5196 25.588 13.9617 25.598C14.263 25.6081 14.499 25.6557 14.6697 25.741C14.8403 25.8263 14.9508 25.9246 15.0012 26.0353C15.0514 26.1455 15.1341 26.2732 15.25 26.419C15.3652 26.5649 15.5137 26.6828 15.6945 26.7733C16.0762 26.954 16.5232 27.0264 17.0355 26.9915C17.5477 26.9563 17.889 26.8586 18.06 26.6978C18.341 26.4265 18.7204 26.1051 19.1974 25.7338C19.6742 25.3619 20.1037 25.0806 20.4857 24.8898C20.5658 24.8492 20.7016 24.7846 20.8925 24.6938C21.083 24.6038 21.2439 24.5254 21.3744 24.46C21.505 24.3946 21.663 24.3118 21.8489 24.2115C22.0345 24.1109 22.1853 24.0178 22.3009 23.9325C22.4162 23.8471 22.5344 23.7489 22.6549 23.6388C22.7754 23.528 22.8532 23.4174 22.8884 23.3075C22.9236 23.1968 22.936 23.0845 22.9259 22.9685C22.9158 22.8533 22.8555 22.7325 22.7451 22.6071C22.6355 22.4823 22.4799 22.3586 22.2789 22.2379ZM14.6705 8.04582C14.7008 8.0265 14.7207 8.01873 14.7308 8.02335C14.7406 8.02853 14.7608 8.04874 14.791 8.08331C14.8213 8.11849 14.8487 8.15104 14.8741 8.18161C14.8988 8.21157 14.9343 8.25222 14.9796 8.30153C15.0248 8.35226 15.0724 8.39201 15.1228 8.4223C15.183 8.46295 15.2557 8.49003 15.3413 8.50534C15.4267 8.5206 15.4921 8.54599 15.5371 8.58056C15.5823 8.61575 15.6149 8.67368 15.635 8.75352C15.655 8.86421 15.6374 8.96482 15.5823 9.05474C15.5269 9.14527 15.4543 9.18591 15.3638 9.17551C15.183 9.13542 14.987 8.97721 14.7763 8.701C14.5656 8.42489 14.5298 8.20695 14.6705 8.04582ZM12.8023 2.19295C12.8525 2.12753 12.8825 2.07534 12.8925 2.03469C12.9125 1.97417 12.9151 1.91161 12.9 1.84643C12.885 1.78128 12.8899 1.71586 12.915 1.65039C12.9401 1.58553 12.998 1.54808 13.0883 1.53739C13.1788 1.53739 13.2993 1.61261 13.4498 1.76339C13.4798 1.78326 13.5276 1.81411 13.593 1.85391C13.6582 1.894 13.7034 1.92914 13.7285 1.95914C13.7536 1.9891 13.7663 2.01448 13.7663 2.03436C13.7461 2.08452 13.7009 2.11971 13.6308 2.13959C13.5605 2.15946 13.4849 2.16954 13.4048 2.16954C13.3244 2.16954 13.2791 2.17472 13.2693 2.18485C13.1889 2.21481 13.1134 2.26007 13.0433 2.32032C12.973 2.38084 12.9176 2.42549 12.8775 2.45639C12.8372 2.48635 12.7971 2.48635 12.757 2.45639C12.7167 2.39587 12.7017 2.35348 12.7118 2.32809C12.7219 2.30331 12.7521 2.25805 12.8023 2.19295ZM5.51043 13.4695C5.58047 13.3894 5.63091 13.3242 5.66087 13.2735C5.69087 13.2242 5.71852 13.1558 5.74391 13.0705C5.76869 12.9851 5.79148 12.9229 5.81164 12.8823C5.83185 12.8422 5.86181 12.8269 5.90217 12.837C5.92205 12.8477 5.93736 12.8569 5.94744 12.867C5.95723 12.8777 5.96242 12.89 5.96242 12.9047C5.96242 12.92 5.96242 12.9347 5.96242 12.95C5.96242 12.9653 5.95983 12.9852 5.95493 13.01C5.94975 13.0359 5.94221 13.0581 5.93241 13.0783C5.92233 13.0982 5.91225 13.1284 5.90246 13.1682C5.89238 13.2089 5.88225 13.2435 5.87245 13.2735C5.83209 13.3746 5.76925 13.4649 5.68419 13.5447C5.5986 13.6254 5.53577 13.6606 5.49597 13.6499C5.43492 13.6309 5.4401 13.5701 5.51043 13.4695ZM15.2658 21.6581C15.3512 22.1853 15.3837 22.5543 15.3638 22.7651C15.3436 23.0871 15.2759 23.5385 15.1603 24.121C15.0447 24.7036 14.9721 25.0905 14.9418 25.2816C14.7308 25.2709 14.6103 25.1934 14.5803 25.0479C14.5503 24.9019 14.5803 24.7134 14.6705 24.4828C14.8913 23.8095 15.0069 23.3476 15.017 23.0969C15.0372 22.6347 14.987 22.3737 14.8665 22.3131C14.7558 22.2329 14.5851 22.3837 14.3543 22.7651C13.9121 23.4883 13.0233 23.9257 11.6876 24.0764C10.4823 24.2363 9.64841 24.0559 9.18662 23.5339C9.08601 23.4632 8.9854 23.4508 8.88536 23.4961C8.78475 23.5414 8.71961 23.5892 8.68961 23.639C8.67953 23.659 8.68961 23.6892 8.71961 23.7296C8.74957 23.7697 8.79742 23.8296 8.86261 23.9103C8.92775 23.9905 8.9805 24.0709 9.02087 24.1516C9.41262 24.8342 9.37743 25.2963 8.91536 25.5376C8.91536 25.0749 8.87994 24.7212 8.80986 24.4753C8.73953 24.2294 8.59884 23.9579 8.38787 23.6618C8.17686 23.3652 8.03126 23.1416 7.95086 22.9911C8.25212 22.9611 8.48071 22.8458 8.63638 22.6451C8.79205 22.4445 8.86237 22.2286 8.84735 21.9971C8.83237 21.7665 8.74415 21.5751 8.58358 21.4244C8.49333 21.3338 8.02608 20.9499 7.1823 20.2722C6.33857 19.5941 5.81626 19.1399 5.61532 18.9087C5.57496 18.8686 5.45447 18.7681 5.25382 18.6074C5.05288 18.4469 4.92721 18.3062 4.87705 18.1854C4.41494 17.1713 4.36482 16.3374 4.72656 15.6841L4.7868 15.6089C4.83697 15.5994 4.84187 15.6896 4.80178 15.8802C4.74154 16.1621 4.72133 16.4428 4.74154 16.7242C4.78162 17.3569 4.96235 17.8288 5.28377 18.1401C5.49479 18.3514 5.64033 18.3362 5.72078 18.0949C5.78103 18.0148 5.80872 17.7182 5.80349 17.2062C5.79831 16.6943 5.8058 16.3475 5.82624 16.1671C5.90641 15.5942 6.14479 14.8863 6.54172 14.0426C6.93836 13.1985 7.2523 12.7465 7.48347 12.6866C7.30274 12.3957 7.24481 12.0792 7.31023 11.7373C7.37537 11.396 7.48088 11.1046 7.62676 10.8633C7.77235 10.6226 7.92048 10.3436 8.07125 10.0276C8.22203 9.7111 8.29725 9.42745 8.29725 9.17607C8.29725 9.10603 8.30215 9.0553 8.31223 9.0253C8.34218 8.93538 8.4679 9.04579 8.68899 9.35652C9.11074 9.97972 9.42722 10.3464 9.63823 10.4565C9.85905 10.5773 10.1052 10.5724 10.3765 10.4418C10.6477 10.3113 10.9815 10.0951 11.3785 9.79381C11.7751 9.49255 12.1141 9.27178 12.3954 9.13052C12.4257 9.12101 12.4732 9.09821 12.5387 9.06279C12.6039 9.02822 12.654 9.00283 12.6894 8.98752C12.7246 8.97283 12.7699 8.94975 12.8249 8.91979C12.88 8.88979 12.923 8.86445 12.9529 8.84457C12.9829 8.82469 13.0132 8.80218 13.0432 8.77684C13.0732 8.7515 13.0933 8.72667 13.1034 8.70161C13.1132 8.67623 13.1183 8.65404 13.1183 8.63388C13.0982 8.5434 13.0555 8.48801 12.9904 8.46785C12.9249 8.44797 12.837 8.46036 12.7266 8.50562C12.6159 8.55089 12.4931 8.61085 12.3573 8.68635C12.2218 8.76158 12.0711 8.84749 11.9053 8.94235C11.7395 9.03835 11.5712 9.12595 11.4005 9.20612C11.2296 9.28681 11.0489 9.35689 10.858 9.41742C10.6672 9.47738 10.4864 9.51285 10.3158 9.52264C9.89376 9.53334 9.55736 9.4226 9.30631 9.19143C9.14546 9.04065 9.06011 8.94551 9.05003 8.90491C9.03995 8.86482 9.08521 8.85564 9.18577 8.87495C9.72801 8.94555 10.1247 8.95563 10.376 8.90491C10.6372 8.86482 10.9886 8.74952 11.4305 8.55899C11.521 8.51891 11.7493 8.42061 12.116 8.26465C12.4824 8.10926 12.7664 8.00088 12.9672 7.94092C13.0877 7.91096 13.1707 7.86339 13.2157 7.79792C13.2606 7.7325 13.2759 7.67254 13.261 7.61719C13.246 7.56185 13.2131 7.51889 13.1629 7.48889C13.0522 7.42893 12.9522 7.46901 12.8617 7.60965C12.8112 7.69957 12.7057 7.78808 12.5452 7.87342C12.3843 7.95877 12.2364 8.0242 12.1006 8.06946C11.9652 8.11416 11.7916 8.1672 11.5809 8.22716C11.3699 8.28768 11.2543 8.32315 11.2344 8.33295C10.6818 8.5036 10.1696 8.57882 9.69768 8.55894C9.47658 8.54886 9.29844 8.51655 9.16293 8.46064C9.02747 8.40586 8.93435 8.33987 8.88418 8.2646C8.83374 8.18934 8.75362 8.09452 8.64321 7.97865C8.53252 7.86334 8.40714 7.76566 8.26644 7.68492C8.16583 7.63476 8.12839 7.54428 8.15345 7.41366C8.17822 7.2831 8.25636 7.14759 8.38693 7.00694C8.39673 6.99686 8.49993 6.93459 8.69596 6.81868C8.89167 6.70337 9.02977 6.58491 9.11018 6.46442C9.20042 6.32434 9.35638 6.17847 9.57714 6.02774C9.58694 5.98766 9.59443 5.87697 9.59966 5.69652C9.60456 5.51518 9.5567 5.31976 9.45637 5.10846C9.35576 4.89772 9.2203 4.79255 9.04965 4.79255C8.80863 4.78247 8.6377 4.85251 8.53742 5.00328C8.43681 5.15405 8.39155 5.33996 8.40195 5.56049C8.41175 5.75187 8.45961 5.91993 8.54524 6.06552C8.63059 6.21139 8.7084 6.28374 8.77877 6.28374C8.88918 6.27366 8.92431 6.3137 8.88428 6.40451C8.82403 6.5152 8.7433 6.58524 8.6433 6.61524C8.57298 6.63573 8.49512 6.56767 8.40982 6.41233C8.32447 6.25694 8.25905 6.06872 8.21407 5.84734C8.16908 5.62596 8.15123 5.44001 8.16131 5.28956C8.18119 4.97879 8.26423 4.67988 8.40977 4.39336C8.55532 4.1074 8.76374 3.96907 9.035 3.97915C9.31606 3.98984 9.54205 4.15987 9.71303 4.49166C9.88368 4.82288 9.96413 5.27487 9.954 5.84767C9.98401 5.91832 10.0618 5.9431 10.1875 5.92289C10.3129 5.90302 10.4786 5.89986 10.6847 5.91512C10.8906 5.92982 11.0387 5.98285 11.1292 6.07338C11.139 6.07338 11.1442 5.99816 11.1442 5.84739C10.9635 4.58134 11.4102 3.90882 12.4852 3.82809C12.6458 3.85805 12.7813 3.89582 12.892 3.94109C13.0024 3.98635 13.1203 4.06186 13.246 4.16708C13.3714 4.27231 13.4768 4.42595 13.5625 4.62689C13.6475 4.82806 13.7155 5.07888 13.766 5.38009C13.766 5.43082 13.766 5.61678 13.766 5.93731C13.766 6.25929 13.7006 6.44002 13.57 6.47983C13.3593 6.55043 13.2085 6.54756 13.118 6.47201C13.0278 6.39678 13.0376 6.26358 13.148 6.07305C13.2483 5.82172 13.2284 5.53054 13.0877 5.19903C12.9471 4.86781 12.6908 4.71709 12.3193 4.74705C12.0682 4.75712 11.8872 4.89292 11.7767 5.15377C11.666 5.41495 11.626 5.67118 11.6562 5.92228C11.6862 6.17366 11.7416 6.30366 11.822 6.31374C11.8822 6.32444 12.0604 6.40427 12.3567 6.55505C12.6531 6.70582 12.8765 6.79574 13.0272 6.82631C13.4189 6.90647 13.6424 7.03242 13.6977 7.20307C13.7528 7.37372 13.7302 7.62218 13.63 7.94883C13.5294 8.27544 13.4994 8.54378 13.5394 8.75451C13.5796 8.97589 13.6547 9.17649 13.7655 9.35727C13.8759 9.53857 13.9938 9.70403 14.1194 9.85452C14.2449 10.0053 14.3931 10.2872 14.564 10.6985C14.7346 11.1105 14.8903 11.6279 15.031 12.2505C15.0408 12.2606 15.0785 12.2952 15.144 12.3558C15.2091 12.4157 15.2742 12.4912 15.3397 12.5818C15.4048 12.6717 15.4829 12.7954 15.5731 12.9508C15.6634 13.1067 15.7614 13.335 15.8669 13.6362C15.9724 13.9375 16.0704 14.2843 16.1606 14.6757C16.271 15.1384 16.3287 15.6757 16.3339 16.2877C16.3388 16.9009 16.3791 17.32 16.4544 17.546C16.5296 17.772 16.723 17.8651 17.0343 17.825C17.4261 17.8051 17.6769 17.5944 17.7875 17.1917C18.119 16.0271 17.8478 14.6305 16.974 13.0038C16.6425 12.3705 16.3563 11.954 16.1153 11.7533C16.4668 11.954 16.8285 12.3307 17.2001 12.8834C17.5717 13.436 17.8077 13.9528 17.9083 14.4354C17.9181 14.4855 17.9461 14.619 17.9911 14.8344C18.0363 15.0502 18.0611 15.1762 18.0663 15.2111C18.0712 15.2463 18.0911 15.3495 18.1265 15.5201C18.1617 15.6908 18.1793 15.8015 18.1793 15.8513C18.1793 15.9021 18.1842 15.9995 18.1943 16.1451C18.2041 16.2909 18.2017 16.4039 18.1868 16.484C18.1718 16.5648 18.1568 16.6723 18.1415 16.8083C18.1265 16.9439 18.1012 17.0744 18.0663 17.1999C18.0308 17.3258 17.9933 17.4636 17.9533 17.6141C18.5056 17.8553 18.782 18.0661 18.782 18.2468C18.5711 18.0767 18.2698 17.9638 17.8781 17.9078C17.4864 17.8531 17.1222 17.9055 16.7859 18.0661C16.4492 18.2272 16.2759 18.4933 16.2662 18.8649C15.9046 18.8649 15.6484 18.9554 15.4976 19.1361C15.2766 19.3973 15.161 19.751 15.1512 20.1984C15.1427 20.6444 15.1802 21.1309 15.2658 21.6581ZM9.05088 5.30383C9.02092 5.29376 8.99553 5.26375 8.97565 5.21331C8.97565 5.12339 9.02092 5.08849 9.11112 5.10813C9.17136 5.12862 9.22901 5.20412 9.28436 5.33412C9.33942 5.4653 9.35209 5.61603 9.32213 5.78611C9.32213 5.81611 9.30716 5.83137 9.27687 5.83137C9.16618 5.83137 9.1261 5.73133 9.15638 5.53011C9.18667 5.3791 9.1512 5.30383 9.05088 5.30383ZM12.9531 5.54514L12.9228 5.58984C12.8424 5.64057 12.8023 5.65036 12.8023 5.62036C12.7619 5.3491 12.6717 5.19371 12.531 5.15311C12.5108 5.14303 12.4907 5.13323 12.4708 5.12315C12.4005 5.06258 12.4353 5.02772 12.5763 5.01793C12.6063 5.00785 12.6515 5.02254 12.7118 5.06258C12.772 5.10323 12.8271 5.16606 12.8775 5.25085C12.928 5.33671 12.9531 5.43445 12.9531 5.54514Z" fill="white"/>
</svg>
