<svg width="181" height="79" viewBox="0 0 181 79" fill="none" xmlns="http://www.w3.org/2000/svg">
<path d="M127.446 51.7019V30.0915H112.283V33.6198H123.598V38.8057H113.12V42.3339H123.598V48.1737H112.283V51.7019H127.446Z" fill="#F2F2F2"/>
<path d="M71.9217 36.2812C71.9217 36.9706 71.8356 37.6296 71.6632 38.2582C71.501 38.8766 71.2374 39.4748 70.8724 40.0527C70.5175 40.6306 70.0258 41.1477 69.3972 41.6039C68.7788 42.0601 68.0437 42.415 67.1921 42.6685L73.7163 51.7019H68.7281L62.6754 43.3224H59.0103V51.7019H55.1779V30.0915H64.3786C64.8349 30.0915 65.2505 30.1067 65.6257 30.1372C66.0109 30.1574 66.4723 30.2183 67.0096 30.3197C67.5571 30.4109 68.0387 30.5376 68.4543 30.6999C68.8802 30.8621 69.3161 31.1003 69.7622 31.4146C70.2185 31.7289 70.5936 32.099 70.8876 32.5248C71.1918 32.9405 71.4402 33.4728 71.6328 34.1216C71.8254 34.7604 71.9217 35.4802 71.9217 36.2812ZM59.0103 33.6046V39.7942H62.5385C63.1468 39.7942 63.6841 39.7739 64.1505 39.7333C64.6169 39.6928 65.0985 39.6117 65.5953 39.49C66.0921 39.3582 66.4976 39.1808 66.8119 38.9577C67.1363 38.7347 67.3999 38.4255 67.6027 38.0301C67.8156 37.6347 67.9221 37.1683 67.9221 36.6309C67.9221 34.6134 66.3658 33.6046 63.2533 33.6046H59.0103Z" fill="#F2F2F2"/>
<path d="M75.0248 51.7019V30.0915H90.187V33.6198H78.8724V38.8057H89.3506V42.3339H78.8724V48.1737H90.187V51.7019H75.0248Z" fill="#F2F2F2"/>
<path d="M90.2485 30.0915H94.6435L101 47.5806L107.342 30.0915H111.509L103.145 51.7019H98.5976L90.2485 30.0915Z" fill="#F2F2F2"/>
<path d="M129.159 36.2812C129.159 36.9706 129.245 37.6296 129.417 38.2582C129.58 38.8766 129.843 39.4748 130.208 40.0527C130.563 40.6306 131.055 41.1477 131.683 41.6039C132.302 42.0601 133.037 42.415 133.888 42.6685L127.364 51.7019H132.352L138.405 43.3224H142.07V51.7019H145.903V30.0915H136.702C136.246 30.0915 135.83 30.1067 135.455 30.1372C135.07 30.1574 134.608 30.2183 134.071 30.3197C133.523 30.4109 133.042 30.5376 132.626 30.6999C132.2 30.8621 131.764 31.1003 131.318 31.4146C130.862 31.7289 130.487 32.099 130.193 32.5248C129.889 32.9405 129.64 33.4728 129.448 34.1216C129.255 34.7604 129.159 35.4802 129.159 36.2812ZM142.07 33.6046V39.7942H138.542C137.934 39.7942 137.396 39.7739 136.93 39.7333C136.464 39.6928 135.982 39.6117 135.485 39.49C134.988 39.3582 134.583 39.1808 134.269 38.9577C133.944 38.7347 133.681 38.4255 133.478 38.0301C133.265 37.6347 133.158 37.1683 133.158 36.6309C133.158 34.6134 134.715 33.6046 137.827 33.6046H142.07Z" fill="#F2F2F2"/>
<path d="M156.834 29.8938C158.852 29.8938 160.844 30.1929 162.811 30.7911L163.434 30.9736L162.187 34.5018L161.609 34.3345C159.774 33.8276 158.101 33.5741 156.591 33.5741C155.1 33.5741 153.823 33.8175 152.758 34.3041C151.704 34.7908 151.177 35.4143 151.177 36.1747C151.177 36.6715 151.41 37.1074 151.876 37.4826C152.353 37.8577 152.966 38.1771 153.716 38.4407C154.467 38.6941 155.293 38.9476 156.195 39.2011C157.108 39.4545 158.02 39.7486 158.933 40.0831C159.845 40.4177 160.677 40.803 161.427 41.2389C162.177 41.6749 162.785 42.2579 163.252 42.9878C163.728 43.7077 163.967 44.539 163.967 45.4819C163.967 46.0902 163.86 46.6935 163.647 47.2917C163.444 47.8797 163.095 48.4627 162.598 49.0406C162.111 49.6185 161.503 50.1254 160.773 50.5614C160.053 50.9872 159.13 51.337 158.005 51.6107C156.89 51.8743 155.638 52.0061 154.249 52.0061C152.86 52.0061 151.608 51.8794 150.492 51.6259C149.377 51.3623 148.196 50.9872 146.949 50.5005L146.386 50.2876L147.679 46.6073L148.272 46.8354C150.837 47.7479 152.951 48.2041 154.614 48.2041C156.175 48.2041 157.437 47.9659 158.4 47.4894C159.374 47.0128 159.86 46.3843 159.86 45.6036C159.86 45.1676 159.713 44.7773 159.419 44.4326C159.125 44.0879 158.73 43.7989 158.233 43.5657C157.736 43.3224 157.164 43.0994 156.515 42.8966C155.876 42.6938 155.202 42.4961 154.492 42.3035C153.782 42.1108 153.073 41.903 152.363 41.68C151.653 41.4569 150.974 41.1882 150.325 40.8739C149.686 40.5596 149.119 40.2048 148.622 39.8094C148.125 39.414 147.73 38.9223 147.436 38.3342C147.142 37.736 146.995 37.072 146.995 36.342C146.995 34.517 147.887 32.9861 149.671 31.7492C151.466 30.5123 153.853 29.8938 156.834 29.8938Z" fill="#F2F2F2"/>
<path d="M165.838 51.7019V30.0915H181V33.6198H169.685V38.8057H180.164V42.3339H169.685V48.1737H181V51.7019H165.838Z" fill="#F2F2F2"/>
<path d="M65.2657 78.5007C61.5589 78.5007 58.7295 77.5147 56.7774 75.5429C54.8472 73.571 53.8821 70.7706 53.8821 67.1415C53.8821 65.3375 54.1783 63.7327 54.7705 62.3273C55.3627 60.9008 56.1742 59.7051 57.2051 58.7401C58.236 57.7542 59.4642 57.0095 60.8899 56.5061C62.3156 56.0026 63.8619 55.7509 65.5289 55.7509C66.4939 55.7509 67.3713 55.8243 68.1609 55.9712C68.9505 56.097 69.6414 56.2543 70.2336 56.4431C70.8258 56.611 71.3193 56.7893 71.7141 56.9781C72.1089 57.1669 72.3941 57.3137 72.5695 57.4186L71.089 61.3833C70.3872 61.0267 69.5647 60.7225 68.6215 60.4708C67.7003 60.219 66.6475 60.0932 65.4631 60.0932C64.6735 60.0932 63.8948 60.219 63.1271 60.4708C62.3814 60.7225 61.7124 61.1315 61.1202 61.6979C60.55 62.2433 60.0893 62.9566 59.7384 63.8376C59.3875 64.7187 59.212 65.7885 59.212 67.0471C59.212 68.054 59.3217 68.998 59.541 69.879C59.7823 70.7391 60.1551 71.4838 60.6596 72.1131C61.186 72.7424 61.866 73.2459 62.6994 73.6235C63.5329 73.9801 64.5419 74.1584 65.7263 74.1584C66.472 74.1584 67.141 74.1164 67.7332 74.0325C68.3254 73.9486 68.8518 73.8542 69.3124 73.7493C69.773 73.6235 70.1788 73.4871 70.5297 73.3403C70.8807 73.1934 71.1987 73.0571 71.4838 72.9312L72.8986 76.8644C72.1747 77.284 71.1548 77.6616 69.8388 77.9972C68.5228 78.3328 66.9984 78.5007 65.2657 78.5007Z" fill="#BB6BD9"/>
<path d="M79.6776 67.1415C79.6776 68.2114 79.8092 69.1763 80.0724 70.0364C80.3575 70.8964 80.7523 71.6411 81.2568 72.2704C81.7832 72.8788 82.4193 73.3508 83.165 73.6864C83.9107 74.022 84.7662 74.1899 85.7312 74.1899C86.6744 74.1899 87.5188 74.022 88.2646 73.6864C89.0322 73.3508 89.6683 72.8788 90.1728 72.2704C90.6992 71.6411 91.094 70.8964 91.3572 70.0364C91.6423 69.1763 91.7849 68.2114 91.7849 67.1415C91.7849 66.0717 91.6423 65.1067 91.3572 64.2467C91.094 63.3656 90.6992 62.6209 90.1728 62.0126C89.6683 61.3833 89.0322 60.9008 88.2646 60.5652C87.5188 60.2295 86.6744 60.0617 85.7312 60.0617C84.7662 60.0617 83.9107 60.24 83.165 60.5966C82.4193 60.9323 81.7832 61.4147 81.2568 62.0441C80.7523 62.6524 80.3575 63.3971 80.0724 64.2781C79.8092 65.1382 79.6776 66.0927 79.6776 67.1415ZM97.0819 67.1415C97.0819 69.0085 96.7857 70.6552 96.1935 72.0816C95.6233 73.4871 94.8337 74.6723 93.8247 75.6373C92.8158 76.5813 91.6094 77.2945 90.2057 77.777C88.8239 78.2594 87.3324 78.5007 85.7312 78.5007C84.1739 78.5007 82.7044 78.2594 81.3226 77.777C79.9408 77.2945 78.7344 76.5813 77.7035 75.6373C76.6727 74.6723 75.8611 73.4871 75.2689 72.0816C74.6767 70.6552 74.3806 69.0085 74.3806 67.1415C74.3806 65.2745 74.6877 63.6383 75.3018 62.2329C75.916 60.8064 76.7385 59.6107 77.7693 58.6457C78.8222 57.6808 80.0285 56.9571 81.3884 56.4746C82.7702 55.9921 84.2178 55.7509 85.7312 55.7509C87.2885 55.7509 88.7581 55.9921 90.1399 56.4746C91.5217 56.9571 92.728 57.6808 93.7589 58.6457C94.7898 59.6107 95.6013 60.8064 96.1935 62.2329C96.7857 63.6383 97.0819 65.2745 97.0819 67.1415Z" fill="#BB6BD9"/>
<path d="M106.493 74.064C106.734 74.085 107.008 74.1059 107.315 74.1269C107.644 74.1269 108.028 74.1269 108.467 74.1269C111.033 74.1269 112.93 73.5081 114.158 72.2704C115.409 71.0328 116.034 69.3231 116.034 67.1415C116.034 64.855 115.442 63.1244 114.257 61.9497C113.073 60.7749 111.197 60.1876 108.631 60.1876C108.28 60.1876 107.918 60.1981 107.545 60.219C107.173 60.219 106.822 60.24 106.493 60.282V74.064ZM121.331 67.1415C121.331 69.0295 121.024 70.6762 120.409 72.0816C119.795 73.4871 118.918 74.6514 117.777 75.5743C116.659 76.4973 115.288 77.1896 113.665 77.6511C112.042 78.1126 110.221 78.3433 108.203 78.3433C107.282 78.3433 106.208 78.3014 104.979 78.2175C103.751 78.1545 102.545 78.0077 101.36 77.777V56.5375C102.545 56.3278 103.773 56.1914 105.045 56.1285C106.339 56.0446 107.447 56.0026 108.368 56.0026C110.32 56.0026 112.086 56.2124 113.665 56.6319C115.266 57.0515 116.637 57.7123 117.777 58.6143C118.918 59.5163 119.795 60.67 120.409 62.0755C121.024 63.481 121.331 65.1697 121.331 67.1415Z" fill="#BB6BD9"/>
<path d="M149.013 78.0602C147.543 75.5639 145.953 73.099 144.242 70.6657C142.532 68.2323 140.711 65.9353 138.781 63.7747V78.0602H133.714V56.2543H137.893C138.616 56.9466 139.417 57.7962 140.294 58.8031C141.172 59.81 142.06 60.8903 142.959 62.0441C143.881 63.1768 144.791 64.362 145.69 65.5997C146.589 66.8164 147.434 67.9911 148.223 69.1239V56.2543H153.323V78.0602H149.013Z" fill="#BB6BD9"/>
<path d="M169.703 60.0302C167.312 60.0302 165.579 60.67 164.504 61.9497C163.452 63.2083 162.925 64.9389 162.925 67.1415C162.925 68.2114 163.057 69.1868 163.32 70.0678C163.583 70.9279 163.978 71.6726 164.504 72.3019C165.031 72.9312 165.689 73.4242 166.478 73.7808C167.268 74.1164 168.189 74.2842 169.242 74.2842C169.812 74.2842 170.295 74.2738 170.69 74.2528C171.106 74.2318 171.468 74.1898 171.775 74.1269V66.5437H176.908V77.3364C176.294 77.5672 175.307 77.8084 173.947 78.0602C172.587 78.3328 170.909 78.4692 168.913 78.4692C167.202 78.4692 165.645 78.2175 164.241 77.714C162.859 77.2106 161.675 76.4764 160.688 75.5114C159.701 74.5465 158.933 73.3613 158.385 71.9558C157.859 70.5503 157.595 68.9456 157.595 67.1415C157.595 65.3165 157.891 63.7013 158.484 62.2958C159.076 60.8903 159.887 59.7051 160.918 58.7401C161.949 57.7542 163.156 57.0095 164.537 56.5061C165.941 56.0026 167.433 55.7509 169.012 55.7509C170.087 55.7509 171.052 55.8243 171.907 55.9712C172.784 56.097 173.53 56.2543 174.144 56.4431C174.78 56.611 175.296 56.7893 175.691 56.9781C176.107 57.1669 176.403 57.3137 176.579 57.4186L175.098 61.3518C174.396 60.9952 173.585 60.691 172.664 60.4393C171.764 60.1666 170.777 60.0302 169.703 60.0302Z" fill="#BB6BD9"/>
<path d="M123.994 70.9468V64.3755H130.455V70.092C130.455 72.0331 130.306 73.5379 130.008 74.6065C129.711 75.675 129.071 76.5476 128.091 77.2243C127.128 77.9188 125.762 78.2928 123.994 78.3463V75.5681C126.095 75.2476 127.145 73.9208 127.145 71.5879C127.145 71.4454 127.137 71.2317 127.119 70.9468H123.994Z" fill="#BB6BD9"/>
<path d="M129.823 59.2561C129.823 60.8267 128.571 62.0998 127.027 62.0998C125.482 62.0998 124.231 60.8267 124.231 59.2561C124.231 57.6856 125.482 56.4124 127.027 56.4124C128.571 56.4124 129.823 57.6856 129.823 59.2561Z" fill="#BB6BD9"/>
<path d="M40.189 76.3829C40.189 76.941 40.3932 77.4763 40.7566 77.8709C41.12 78.2656 41.6129 78.4873 42.1268 78.4873H48.9827C49.4966 78.4873 49.9895 78.2656 50.3529 77.8709C50.7163 77.4763 50.9205 76.941 50.9205 76.3829V30.8487C50.9205 30.29 50.7165 29.7541 50.3532 29.3584C49.99 28.9628 49.4971 28.7397 48.9827 28.7381H41.5772C41.0628 28.7397 40.5699 28.9628 40.2066 29.3584C39.8434 29.7541 39.6394 30.29 39.6394 30.8487V31.384C39.6394 31.9421 39.8436 32.4774 40.207 32.872C40.5704 33.2667 41.0633 33.4884 41.5772 33.4884H43.8436C44.359 33.4884 44.8534 33.7108 45.2178 34.1066C45.5823 34.5024 45.787 35.0392 45.787 35.599L45.7304 72.1863C45.7259 72.7402 45.5206 73.2698 45.1589 73.6603C44.7972 74.0508 44.3083 74.2707 43.7983 74.2723H42.1325C41.617 74.2723 41.1227 74.4947 40.7583 74.8905C40.3938 75.2863 40.189 75.8231 40.189 76.3829Z" fill="#F2F2F2"/>
<path d="M10.7371 76.3829C10.7371 76.941 10.5329 77.4763 10.1695 77.8709C9.80613 78.2656 9.31325 78.4873 8.79932 78.4873H1.94345C1.42899 78.4873 0.935522 78.2658 0.571218 77.8713C0.206914 77.4768 0.00149986 76.9416 0 76.3829V30.8487C0.00149485 30.2894 0.20673 29.7535 0.570873 29.3581C0.935015 28.9626 1.42847 28.7397 1.94345 28.7381H9.34326C9.85824 28.7397 10.3517 28.9626 10.7158 29.3581C11.08 29.7535 11.2852 30.2894 11.2867 30.8487V31.384C11.2852 31.9427 11.0798 32.4779 10.7155 32.8724C10.3512 33.2669 9.85772 33.4884 9.34326 33.4884H7.07686C6.56241 33.49 6.06954 33.7131 5.7063 34.1088C5.34305 34.5044 5.13908 35.0403 5.13908 35.599L5.19574 72.1863C5.19573 72.4629 5.24608 72.7368 5.34389 72.9922C5.44169 73.2476 5.58502 73.4794 5.76564 73.6744C5.94626 73.8694 6.16059 74.0237 6.39631 74.1284C6.63204 74.2332 6.8845 74.2862 7.13918 74.2846H8.80499C9.3165 74.2878 9.80621 74.51 10.1679 74.9028C10.5296 75.2956 10.7341 75.8274 10.7371 76.3829Z" fill="#F2F2F2"/>
<path d="M13.1678 70.6234C13.1663 70.8916 13.0671 71.1483 12.8919 71.3374C12.7168 71.5264 12.4798 71.6326 12.2329 71.6326H8.94658C8.7006 71.6309 8.4651 71.5241 8.29116 71.3352C8.11721 71.1463 8.01884 70.8905 8.01736 70.6234V48.8101C8.01736 48.5424 8.11525 48.2857 8.28951 48.0965C8.46378 47.9072 8.70014 47.8009 8.94658 47.8009H12.4992C12.7456 47.8009 12.982 47.9072 13.1562 48.0965C13.3305 48.2857 13.4284 48.5424 13.4284 48.8101V49.05C13.4269 49.3172 13.3285 49.5729 13.1546 49.7618C12.9807 49.9507 12.7452 50.0576 12.4992 50.0592H11.4113C11.1643 50.0592 10.9274 50.1653 10.7522 50.3544C10.5771 50.5434 10.4779 50.8001 10.4764 51.0683L10.5047 68.6051C10.5062 68.8733 10.6054 69.13 10.7806 69.3191C10.9557 69.5082 11.1927 69.6143 11.4396 69.6143H12.2329C12.3554 69.6135 12.4768 69.639 12.5902 69.6893C12.7036 69.7397 12.8067 69.8139 12.8936 69.9077C12.9805 70.0014 13.0494 70.113 13.0965 70.2358C13.1435 70.3586 13.1678 70.4904 13.1678 70.6234Z" fill="#F2F2F2"/>
<path d="M25.2818 41.8999C33.6713 41.8999 40.4724 40.2828 40.4724 38.2879C40.4724 36.2931 33.6713 34.676 25.2818 34.676C16.8923 34.676 10.0912 36.2931 10.0912 38.2879C10.0912 40.2828 16.8923 41.8999 25.2818 41.8999Z" fill="#F2F2F2"/>
<path d="M21.0946 27.8889C14.4257 24.197 23.7123 16.0377 20.9983 10.7521C20.3977 9.57062 17.7517 10.629 18.3126 11.7181C20.29 15.5762 16.3521 19.059 15.9952 22.8863C15.7402 25.6553 16.7261 28.3689 19.0605 29.6549C20.0464 30.2026 22.4091 28.615 21.0946 27.8889Z" fill="#F2F2F2"/>
<path d="M25.1004 17.4899C25.973 15.1578 26.6529 12.5673 26.0466 10.069C25.2307 6.66627 22.783 4.50033 22.647 0.722224C22.596 -0.606884 19.8763 0.106883 19.916 1.18986C19.966 3.48233 20.5824 5.71809 21.7008 7.66312C23.6386 11.0536 23.8709 13.7733 22.4827 17.4776C21.9558 18.8744 24.6811 18.4867 25.0551 17.4776L25.1004 17.4899Z" fill="#F2F2F2"/>
</svg>
