<svg width="23" height="21" viewBox="0 0 23 21" fill="none" xmlns="http://www.w3.org/2000/svg">
<path d="M19.2909 8.3453C19.2556 4.92381 22.0805 3.28642 22.2057 3.20426C20.6192 0.886099 18.1504 0.567229 17.2681 0.532016C15.169 0.316828 13.1678 1.76837 12.0997 1.76837C11.0355 1.76837 9.38829 0.56136 7.64527 0.59266C5.35254 0.627873 3.24174 1.92683 2.06016 3.97698C-0.320603 8.10859 1.44981 14.2278 3.76993 17.5827C4.90456 19.2221 6.25829 21.0629 8.03261 20.9984C9.74238 20.9299 10.3879 19.8911 12.4557 19.8911C14.5235 19.8911 15.1045 20.9984 16.9121 20.9651C18.7529 20.9299 19.9169 19.2925 21.0417 17.6493C22.3446 15.7458 22.8806 13.9011 22.9138 13.8091C22.8708 13.7857 19.328 12.43 19.2909 8.3453Z" fill="white"/>
</svg>
