<svg width="23" height="27" viewBox="0 0 23 27" fill="none" xmlns="http://www.w3.org/2000/svg">
<path d="M19.2909 14.3453C19.2556 10.9238 22.0805 9.28642 22.2057 9.20426C20.6192 6.8861 18.1504 6.56723 17.2681 6.53202C15.169 6.31683 13.1678 7.76837 12.0997 7.76837C11.0355 7.76837 9.38829 6.56136 7.64527 6.59266C5.35254 6.62787 3.24174 7.92683 2.06016 9.97698C-0.320603 14.1086 1.44981 20.2278 3.76993 23.5827C4.90456 25.2221 6.25829 27.0629 8.03261 26.9984C9.74238 26.9299 10.3879 25.8911 12.4557 25.8911C14.5235 25.8911 15.1045 26.9984 16.9121 26.9651C18.7529 26.9299 19.9169 25.2925 21.0417 23.6493C22.3446 21.7458 22.8806 19.9011 22.9138 19.8091C22.8708 19.7857 19.328 18.43 19.2909 14.3453Z" fill="white"/>
<path d="M15.8912 4.31159C16.8322 3.17109 17.4699 1.58261 17.2958 0C15.9362 0.0547752 14.2949 0.901834 13.3188 2.04429C12.4443 3.05567 11.6833 4.66958 11.8868 6.22089C13.4009 6.34022 14.9503 5.45013 15.8912 4.31159Z" fill="white"/>
</svg>
