<svg width="12" height="21" viewBox="0 0 12 21" fill="none" xmlns="http://www.w3.org/2000/svg">
<path d="M0.883844 0.582561C0.958154 0.506473 1.04695 0.446044 1.145 0.404839C1.24305 0.363634 1.34836 0.342489 1.45471 0.342652C1.56107 0.342815 1.66631 0.364283 1.76423 0.405789C1.86215 0.447294 1.95077 0.507996 2.02484 0.584311L11.0933 9.88906C11.2526 10.0525 11.3418 10.2716 11.3418 10.4998C11.3418 10.728 11.2526 10.9472 11.0933 11.1106L2.02484 20.4153C1.95065 20.4915 1.86194 20.5521 1.76396 20.5934C1.66597 20.6348 1.5607 20.6561 1.45434 20.6561C1.34799 20.6561 1.24271 20.6348 1.14473 20.5934C1.04674 20.5521 0.958037 20.4915 0.883844 20.4153C0.731205 20.259 0.645752 20.0493 0.645752 19.8308C0.645752 19.6124 0.731205 19.4026 0.883844 19.2463L9.41159 10.4998L0.883844 1.74981C0.731728 1.59362 0.646605 1.38421 0.646605 1.16619C0.646605 0.948161 0.731728 0.738752 0.883844 0.582561Z" fill="url(#paint0_linear_1852_12858)"/>
<defs>
<linearGradient id="paint0_linear_1852_12858" x1="0.645752" y1="10.4994" x2="18.0933" y2="10.4994" gradientUnits="userSpaceOnUse">
<stop stop-color="#E100FF"/>
<stop offset="1" stop-color="#7F00FF"/>
</linearGradient>
</defs>
</svg>
