<svg width="12" height="21" viewBox="0 0 12 21" fill="none" xmlns="http://www.w3.org/2000/svg">
<path d="M11.1162 20.4174C11.0418 20.4935 10.953 20.554 10.855 20.5952C10.757 20.6364 10.6516 20.6575 10.5453 20.6573C10.4389 20.6572 10.3337 20.6357 10.2358 20.5942C10.1378 20.5527 10.0492 20.492 9.97516 20.4157L0.906656 11.1109C0.747382 10.9475 0.658241 10.7284 0.658241 10.5002C0.658241 10.272 0.747382 10.0528 0.906656 9.88944L9.97516 0.58469C10.0493 0.50849 10.1381 0.447924 10.236 0.406569C10.334 0.365213 10.4393 0.343908 10.5457 0.343908C10.652 0.343908 10.7573 0.365213 10.8553 0.406569C10.9533 0.447924 11.042 0.50849 11.1162 0.58469C11.2688 0.740961 11.3542 0.950743 11.3542 1.16919C11.3542 1.38764 11.2688 1.59742 11.1162 1.75369L2.58841 10.5002L11.1162 19.2502C11.2683 19.4064 11.3534 19.6158 11.3534 19.8338C11.3534 20.0518 11.2683 20.2612 11.1162 20.4174Z" fill="url(#paint0_linear_1852_12827)"/>
<defs>
<linearGradient id="paint0_linear_1852_12827" x1="11.3542" y1="10.5006" x2="-6.09334" y2="10.5006" gradientUnits="userSpaceOnUse">
<stop stop-color="#E100FF"/>
<stop offset="1" stop-color="#7F00FF"/>
</linearGradient>
</defs>
</svg>
