<svg width="727" height="160" viewBox="0 0 727 160" fill="none" xmlns="http://www.w3.org/2000/svg">
<path d="M204.625 138.55V125.425C205.908 123.208 207.6 120.292 209.7 116.675C211.8 112.942 215.475 106.233 220.725 96.55C226.092 86.8667 230.817 78.1167 234.9 70.3C238.983 62.4833 242.658 54.8417 245.925 47.375C249.308 39.7917 251 34.8333 251 32.5V20.775C251 19.375 250.475 18.2083 249.425 17.275C248.492 16.225 247.325 15.7 245.925 15.7H228.075C226.675 15.7 225.45 16.225 224.4 17.275C223.467 18.2083 223 19.375 223 20.775V31.8C223 33.4333 222.183 34.25 220.55 34.25H208.825C207.192 34.25 206.375 33.4333 206.375 31.8V20.6C206.375 14.8833 208.358 10.0417 212.325 6.075C216.408 2.10832 221.25 0.124988 226.85 0.124988H247.15C252.75 0.124988 257.533 2.10832 261.5 6.075C265.583 10.0417 267.625 14.8833 267.625 20.6V32.5C267.625 36.2333 263.833 45.8583 256.25 61.375C248.667 76.775 241.083 91.3 233.5 104.95L222.125 125.425H265.35C266.983 125.425 267.8 126.242 267.8 127.875V138.55C267.8 140.183 266.983 141 265.35 141H207.075C205.442 141 204.625 140.183 204.625 138.55ZM287.019 121.4V20.6C287.019 14.8833 289.002 10.0417 292.969 6.075C297.052 2.10832 301.894 0.124988 307.494 0.124988H329.194C334.794 0.124988 339.577 2.10832 343.544 6.075C347.627 10.0417 349.669 14.8833 349.669 20.6V121.4C349.669 127.117 347.627 131.958 343.544 135.925C339.577 139.892 334.794 141.875 329.194 141.875H307.494C301.894 141.875 297.052 139.892 292.969 135.925C289.002 131.958 287.019 127.117 287.019 121.4ZM333.044 121.925V20.775C333.044 19.375 332.519 18.2083 331.469 17.275C330.535 16.225 329.369 15.7 327.969 15.7H308.719C307.319 15.7 306.094 16.225 305.044 17.275C304.11 18.2083 303.644 19.375 303.644 20.775V121.925C303.644 123.325 304.11 124.55 305.044 125.6C306.094 126.533 307.319 127 308.719 127H327.969C329.369 127 330.535 126.533 331.469 125.6C332.519 124.55 333.044 123.325 333.044 121.925ZM369.713 138.55V125.425C370.996 123.208 372.688 120.292 374.788 116.675C376.888 112.942 380.563 106.233 385.813 96.55C391.18 86.8667 395.905 78.1167 399.988 70.3C404.071 62.4833 407.746 54.8417 411.013 47.375C414.396 39.7917 416.088 34.8333 416.088 32.5V20.775C416.088 19.375 415.563 18.2083 414.513 17.275C413.58 16.225 412.413 15.7 411.013 15.7H393.163C391.763 15.7 390.538 16.225 389.488 17.275C388.555 18.2083 388.088 19.375 388.088 20.775V31.8C388.088 33.4333 387.271 34.25 385.638 34.25H373.913C372.28 34.25 371.463 33.4333 371.463 31.8V20.6C371.463 14.8833 373.446 10.0417 377.413 6.075C381.496 2.10832 386.338 0.124988 391.938 0.124988H412.238C417.838 0.124988 422.621 2.10832 426.588 6.075C430.671 10.0417 432.713 14.8833 432.713 20.6V32.5C432.713 36.2333 428.921 45.8583 421.338 61.375C413.755 76.775 406.171 91.3 398.588 104.95L387.213 125.425H430.438C432.071 125.425 432.888 126.242 432.888 127.875V138.55C432.888 140.183 432.071 141 430.438 141H372.163C370.53 141 369.713 140.183 369.713 138.55ZM451.231 138.55V125.425C452.515 123.208 454.206 120.292 456.306 116.675C458.406 112.942 462.081 106.233 467.331 96.55C472.698 86.8667 477.423 78.1167 481.506 70.3C485.59 62.4833 489.265 54.8417 492.531 47.375C495.915 39.7917 497.606 34.8333 497.606 32.5V20.775C497.606 19.375 497.081 18.2083 496.031 17.275C495.098 16.225 493.931 15.7 492.531 15.7H474.681C473.281 15.7 472.056 16.225 471.006 17.275C470.073 18.2083 469.606 19.375 469.606 20.775V31.8C469.606 33.4333 468.79 34.25 467.156 34.25H455.431C453.798 34.25 452.981 33.4333 452.981 31.8V20.6C452.981 14.8833 454.965 10.0417 458.931 6.075C463.015 2.10832 467.856 0.124988 473.456 0.124988H493.756C499.356 0.124988 504.14 2.10832 508.106 6.075C512.19 10.0417 514.231 14.8833 514.231 20.6V32.5C514.231 36.2333 510.44 45.8583 502.856 61.375C495.273 76.775 487.69 91.3 480.106 104.95L468.731 125.425H511.956C513.59 125.425 514.406 126.242 514.406 127.875V138.55C514.406 140.183 513.59 141 511.956 141H453.681C452.048 141 451.231 140.183 451.231 138.55Z" fill="url(#paint0_linear_2495_13051)"/>
<path d="M11.072 104H6.336V59.2H26.368C30.72 59.2 34.1547 60.3093 36.672 62.528C39.232 64.704 40.512 67.648 40.512 71.36C40.512 74.56 39.5733 77.2267 37.696 79.36C35.8613 81.4933 33.28 82.8373 29.952 83.392L44.416 104H38.848L24.768 83.84H11.072V104ZM11.072 63.488V79.552H26.112C29.184 79.552 31.552 78.8693 33.216 77.504C34.9227 76.096 35.776 74.112 35.776 71.552C35.776 68.992 34.9227 67.008 33.216 65.6C31.5093 64.192 29.1413 63.488 26.112 63.488H11.072ZM95.381 104H63.701V59.2H94.421V63.488H68.437V77.824H89.749V82.112H68.437V99.712H95.381V104ZM134.846 104.256H130.43L110.718 59.2H115.902L132.67 97.728L149.438 59.2H154.622L134.846 104.256ZM205.049 104H173.369V59.2H204.089V63.488H178.105V77.824H199.417V82.112H178.105V99.712H205.049V104ZM229.282 104H224.546V59.2H244.578C248.93 59.2 252.365 60.3093 254.882 62.528C257.442 64.704 258.722 67.648 258.722 71.36C258.722 74.56 257.783 77.2267 255.906 79.36C254.071 81.4933 251.49 82.8373 248.162 83.392L262.626 104H257.058L242.978 83.84H229.282V104ZM229.282 63.488V79.552H244.322C247.394 79.552 249.762 78.8693 251.426 77.504C253.133 76.096 253.986 74.112 253.986 71.552C253.986 68.992 253.133 67.008 251.426 65.6C249.719 64.192 247.351 63.488 244.322 63.488H229.282ZM295.223 104.768C291.98 104.768 288.866 104.341 285.879 103.488C282.935 102.592 280.524 101.44 278.647 100.032V94.72C280.439 96.256 282.764 97.5787 285.623 98.688C288.695 99.7973 291.788 100.352 294.903 100.352C298.444 100.352 301.346 99.584 303.607 98.048C305.868 96.512 306.999 94.464 306.999 91.904C307.255 89.5147 306.018 87.488 303.287 85.824C302.732 85.3973 301.836 84.9707 300.599 84.544L297.783 83.584C297.655 83.5413 297.399 83.4773 297.015 83.392C296.631 83.264 296.204 83.136 295.735 83.008C295.308 82.8373 294.86 82.688 294.391 82.56C291.746 81.792 290.167 81.3227 289.655 81.152C288.29 80.6827 286.967 80.1493 285.687 79.552C284.279 78.8693 283.17 78.1227 282.359 77.312C280.482 75.3493 279.543 72.9173 279.543 70.016C279.543 66.6453 280.908 63.872 283.639 61.696C286.37 59.52 290.167 58.432 295.031 58.432C300.407 58.432 305.058 59.6693 308.983 62.144V67.008C304.546 64.2347 299.938 62.848 295.159 62.848C291.703 62.848 289.036 63.5307 287.159 64.896C285.282 66.2613 284.343 68.0107 284.343 70.144C284.087 71.8507 285.047 73.536 287.223 75.2C287.564 75.4987 288.268 75.84 289.335 76.224L291.511 77.056L294.263 77.824L296.951 78.592C299.298 79.3173 300.77 79.7867 301.367 80C302.604 80.4267 303.906 81.0027 305.271 81.728C306.679 82.4533 307.831 83.264 308.727 84.16C310.818 86.08 311.863 88.64 311.863 91.84C311.863 95.8507 310.242 99.008 306.999 101.312C303.799 103.616 299.874 104.768 295.223 104.768ZM364.019 104H332.339V59.2H363.059V63.488H337.075V77.824H358.387V82.112H337.075V99.712H364.019V104ZM431.751 104.768C425.223 104.768 419.74 102.592 415.303 98.24C410.951 93.888 408.775 88.3413 408.775 81.6C408.775 74.9013 410.951 69.376 415.303 65.024C419.698 60.6293 425.18 58.432 431.751 58.432C436.615 58.432 440.796 59.5413 444.295 61.76V66.624C440.37 64.1067 436.21 62.848 431.815 62.848C426.695 62.848 422.364 64.64 418.823 68.224C415.324 71.7227 413.575 76.1813 413.575 81.6C413.575 87.0613 415.324 91.5413 418.823 95.04C422.364 98.5813 426.738 100.352 431.943 100.352C437.148 100.352 441.586 98.8587 445.255 95.872V100.8C441.586 103.445 437.084 104.768 431.751 104.768ZM468.978 65.088C473.287 60.6507 478.663 58.432 485.106 58.432C491.506 58.432 496.86 60.6507 501.17 65.088C505.479 69.5253 507.634 75.0293 507.634 81.6C507.634 88.2133 505.479 93.7387 501.17 98.176C496.903 102.571 491.548 104.768 485.106 104.768C478.62 104.768 473.244 102.571 468.978 98.176C464.711 93.7813 462.578 88.256 462.578 81.6C462.578 74.9867 464.711 69.4827 468.978 65.088ZM472.498 94.976C475.868 98.56 480.071 100.352 485.106 100.352C490.14 100.352 494.343 98.56 497.714 94.976C501.127 91.3493 502.834 86.8907 502.834 81.6C502.834 76.3093 501.127 71.8507 497.714 68.224C494.343 64.64 490.14 62.848 485.106 62.848C480.071 62.848 475.868 64.64 472.498 68.224C469.084 71.8507 467.378 76.3093 467.378 81.6C467.378 86.8907 469.084 91.3493 472.498 94.976ZM543.392 104H528.736V59.2H543.392C550.645 59.2 556.491 61.2693 560.928 65.408C565.408 69.5893 567.648 74.9867 567.648 81.6C567.648 88.256 565.408 93.6533 560.928 97.792C556.491 101.931 550.645 104 543.392 104ZM533.472 63.488V99.712H542.816C548.96 99.712 553.845 98.0693 557.472 94.784C561.056 91.5413 562.848 87.1467 562.848 81.6C562.848 76.0533 561.056 71.6587 557.472 68.416C553.845 65.1307 548.96 63.488 542.816 63.488H533.472ZM593.845 104H589.109V59.2H593.845V104ZM621.637 104H617.029V59.2H621.125L649.413 95.808V59.2H654.021V104H649.989L621.637 67.264V104ZM697.885 104.768C691.443 104.768 686.003 102.592 681.565 98.24C677.213 93.888 675.037 88.3413 675.037 81.6C675.037 74.9013 677.213 69.376 681.565 65.024C685.96 60.6293 691.443 58.432 698.013 58.432C703.688 58.432 708.424 59.8613 712.221 62.72V67.52C708.083 64.4053 703.432 62.848 698.269 62.848C693.021 62.848 688.627 64.6187 685.085 68.16C681.587 71.6587 679.837 76.16 679.837 81.664C679.837 87.0827 681.565 91.5627 685.021 95.104C688.52 98.6027 692.808 100.352 697.885 100.352C703.261 100.352 707.507 98.7947 710.621 95.68V78.272H715.293V97.536C713.331 99.7547 710.813 101.525 707.741 102.848C704.712 104.128 701.427 104.768 697.885 104.768Z" fill="white"/>
<defs>
<linearGradient id="paint0_linear_2495_13051" x1="195" y1="85" x2="532" y2="85" gradientUnits="userSpaceOnUse">
<stop stop-color="#9D50BB"/>
<stop offset="1" stop-color="#6E48AA"/>
</linearGradient>
</defs>
</svg>
