<svg width="262" height="63" viewBox="0 0 262 63" fill="none" xmlns="http://www.w3.org/2000/svg">
<rect x="0.5" y="0.5" width="261" height="62" rx="15.5" fill="url(#paint0_linear_2495_13040)"/>
<path d="M36.644 39.264C35.5147 39.264 34.5247 39.066 33.674 38.67C32.8233 38.274 32.156 37.7093 31.672 36.976C31.2027 36.2427 30.9607 35.37 30.946 34.358H33.41C33.4247 35.1793 33.7107 35.876 34.268 36.448C34.8253 37.02 35.61 37.306 36.622 37.306C37.5167 37.306 38.2133 37.0933 38.712 36.668C39.2253 36.228 39.482 35.6707 39.482 34.996C39.482 34.4533 39.3573 34.0133 39.108 33.676C38.8733 33.3387 38.5433 33.06 38.118 32.84C37.7073 32.62 37.2307 32.422 36.688 32.246C36.1453 32.07 35.5733 31.8793 34.972 31.674C33.784 31.278 32.8893 30.7647 32.288 30.134C31.7013 29.5033 31.408 28.6747 31.408 27.648C31.3933 26.7827 31.5913 26.0273 32.002 25.382C32.4273 24.7367 33.014 24.238 33.762 23.886C34.5247 23.5193 35.412 23.336 36.424 23.336C37.4213 23.336 38.294 23.5193 39.042 23.886C39.8047 24.2527 40.3987 24.766 40.824 25.426C41.2493 26.0713 41.4693 26.8267 41.484 27.692H39.02C39.02 27.296 38.9173 26.922 38.712 26.57C38.5067 26.2033 38.206 25.9027 37.81 25.668C37.414 25.4333 36.93 25.316 36.358 25.316C35.6247 25.3013 35.016 25.4847 34.532 25.866C34.0627 26.2473 33.828 26.7753 33.828 27.45C33.828 28.0513 34.004 28.5133 34.356 28.836C34.708 29.1587 35.192 29.43 35.808 29.65C36.424 29.8553 37.128 30.0973 37.92 30.376C38.6827 30.6253 39.3647 30.926 39.966 31.278C40.5673 31.63 41.044 32.092 41.396 32.664C41.7627 33.236 41.946 33.962 41.946 34.842C41.946 35.6193 41.748 36.3453 41.352 37.02C40.956 37.68 40.362 38.2227 39.57 38.648C38.778 39.0587 37.8027 39.264 36.644 39.264ZM45.7276 26.02C45.2876 26.02 44.9209 25.888 44.6276 25.624C44.3489 25.3453 44.2096 25.0007 44.2096 24.59C44.2096 24.1793 44.3489 23.842 44.6276 23.578C44.9209 23.2993 45.2876 23.16 45.7276 23.16C46.1676 23.16 46.5269 23.2993 46.8056 23.578C47.0989 23.842 47.2456 24.1793 47.2456 24.59C47.2456 25.0007 47.0989 25.3453 46.8056 25.624C46.5269 25.888 46.1676 26.02 45.7276 26.02ZM44.5616 39V28.088H46.8936V39H44.5616ZM54.438 35.656C53.866 35.656 53.338 35.59 52.854 35.458L51.908 36.382C52.0694 36.4847 52.2674 36.5727 52.502 36.646C52.7367 36.7193 53.0667 36.7853 53.492 36.844C53.9174 36.9027 54.4967 36.9613 55.23 37.02C56.682 37.152 57.7307 37.504 58.376 38.076C59.0214 38.6333 59.344 39.3813 59.344 40.32C59.344 40.9653 59.168 41.574 58.816 42.146C58.4787 42.7327 57.9434 43.202 57.21 43.554C56.4914 43.9207 55.5674 44.104 54.438 44.104C52.9127 44.104 51.6734 43.8107 50.72 43.224C49.7814 42.652 49.312 41.7793 49.312 40.606C49.312 40.1513 49.4294 39.6967 49.664 39.242C49.9134 38.802 50.302 38.384 50.83 37.988C50.522 37.856 50.2507 37.7167 50.016 37.57C49.796 37.4087 49.598 37.2473 49.422 37.086V36.558L51.314 34.622C50.4634 33.8887 50.038 32.928 50.038 31.74C50.038 31.0213 50.2067 30.3687 50.544 29.782C50.896 29.1807 51.402 28.704 52.062 28.352C52.722 28 53.514 27.824 54.438 27.824C55.054 27.824 55.626 27.912 56.154 28.088H60.224V29.628L58.288 29.738C58.64 30.3393 58.816 31.0067 58.816 31.74C58.816 32.4733 58.64 33.1333 58.288 33.72C57.9507 34.3067 57.452 34.776 56.792 35.128C56.1467 35.48 55.362 35.656 54.438 35.656ZM54.438 33.83C55.1127 33.83 55.6554 33.654 56.066 33.302C56.4914 32.9353 56.704 32.422 56.704 31.762C56.704 31.0873 56.4914 30.574 56.066 30.222C55.6554 29.87 55.1127 29.694 54.438 29.694C53.7487 29.694 53.1914 29.87 52.766 30.222C52.3554 30.574 52.15 31.0873 52.15 31.762C52.15 32.422 52.3554 32.9353 52.766 33.302C53.1914 33.654 53.7487 33.83 54.438 33.83ZM51.512 40.386C51.512 41.0167 51.7907 41.486 52.348 41.794C52.9054 42.1167 53.602 42.278 54.438 42.278C55.2447 42.278 55.8974 42.102 56.396 41.75C56.8947 41.4127 57.144 40.958 57.144 40.386C57.144 39.9607 56.9754 39.594 56.638 39.286C56.3007 38.9927 55.6627 38.8093 54.724 38.736C54.02 38.692 53.3967 38.626 52.854 38.538C52.3407 38.8167 51.9887 39.1173 51.798 39.44C51.6074 39.7627 51.512 40.078 51.512 40.386ZM62.3041 39V28.088H64.3721L64.5481 30.002C64.8854 29.3273 65.3767 28.7993 66.0221 28.418C66.6821 28.022 67.4374 27.824 68.2881 27.824C69.6081 27.824 70.6421 28.2347 71.3901 29.056C72.1527 29.8773 72.5341 31.102 72.5341 32.73V39H70.2241V32.972C70.2241 30.86 69.3587 29.804 67.6281 29.804C66.7627 29.804 66.0441 30.112 65.4721 30.728C64.9147 31.344 64.6361 32.224 64.6361 33.368V39H62.3041ZM80.9116 39V23.6H83.2436V39H80.9116ZM86.2806 39V28.088H88.3486L88.5246 30.002C88.862 29.3273 89.3533 28.7993 89.9986 28.418C90.6586 28.022 91.414 27.824 92.2646 27.824C93.5846 27.824 94.6186 28.2347 95.3666 29.056C96.1293 29.8773 96.5106 31.102 96.5106 32.73V39H94.2006V32.972C94.2006 30.86 93.3353 29.804 91.6046 29.804C90.7393 29.804 90.0206 30.112 89.4486 30.728C88.8913 31.344 88.6126 32.224 88.6126 33.368V39H86.2806ZM108.034 39.022L103.876 23.6H106.384L109.442 36.36L112.962 23.6H115.536L118.946 36.36L122.004 23.6H124.512L120.288 39H117.56L114.194 26.922L110.718 39L108.034 39.022ZM127.884 26.02C127.444 26.02 127.077 25.888 126.784 25.624C126.505 25.3453 126.366 25.0007 126.366 24.59C126.366 24.1793 126.505 23.842 126.784 23.578C127.077 23.2993 127.444 23.16 127.884 23.16C128.324 23.16 128.683 23.2993 128.962 23.578C129.255 23.842 129.402 24.1793 129.402 24.59C129.402 25.0007 129.255 25.3453 128.962 25.624C128.683 25.888 128.324 26.02 127.884 26.02ZM126.718 39V28.088H129.05V39H126.718ZM136.704 39C135.634 39 134.783 38.7433 134.152 38.23C133.522 37.702 133.206 36.7707 133.206 35.436V30.046H131.336V28.088H133.206L133.492 25.316H135.538V28.088H138.618V30.046H135.538V35.436C135.538 36.0373 135.663 36.4553 135.912 36.69C136.176 36.91 136.624 37.02 137.254 37.02H138.508V39H136.704ZM141.023 39V23.16H143.355V29.848C143.721 29.2173 144.227 28.726 144.873 28.374C145.533 28.0073 146.259 27.824 147.051 27.824C148.356 27.824 149.383 28.2347 150.131 29.056C150.879 29.8773 151.253 31.102 151.253 32.73V39H148.943V32.972C148.943 30.86 148.099 29.804 146.413 29.804C145.533 29.804 144.799 30.112 144.213 30.728C143.641 31.344 143.355 32.224 143.355 33.368V39H141.023ZM166.318 39.264C164.866 39.264 163.598 38.934 162.512 38.274C161.427 37.614 160.584 36.69 159.982 35.502C159.381 34.314 159.08 32.928 159.08 31.344C159.08 29.7747 159.388 28.3887 160.004 27.186C160.62 25.9833 161.493 25.0447 162.622 24.37C163.766 23.6807 165.116 23.336 166.67 23.336C168.43 23.336 169.897 23.7613 171.07 24.612C172.244 25.4627 173.006 26.636 173.358 28.132H170.718C170.484 27.3107 170.022 26.6653 169.332 26.196C168.643 25.7267 167.756 25.492 166.67 25.492C165.057 25.492 163.788 26.0127 162.864 27.054C161.94 28.0953 161.478 29.5327 161.478 31.366C161.478 33.1993 161.933 34.6293 162.842 35.656C163.752 36.6827 164.962 37.196 166.472 37.196C167.998 37.196 169.142 36.7633 169.904 35.898C170.682 35.0327 171.136 33.8813 171.268 32.444H167.088V30.64H173.622V39H171.488L171.29 36.734C170.777 37.5407 170.132 38.164 169.354 38.604C168.577 39.044 167.565 39.264 166.318 39.264ZM181.469 39.264C180.427 39.264 179.489 39.0293 178.653 38.56C177.831 38.076 177.179 37.4087 176.695 36.558C176.211 35.6927 175.969 34.688 175.969 33.544C175.969 32.4 176.211 31.4027 176.695 30.552C177.193 29.6867 177.861 29.0193 178.697 28.55C179.533 28.066 180.464 27.824 181.491 27.824C182.532 27.824 183.463 28.066 184.285 28.55C185.121 29.0193 185.781 29.6867 186.265 30.552C186.763 31.4027 187.013 32.4 187.013 33.544C187.013 34.688 186.763 35.6927 186.265 36.558C185.781 37.4087 185.121 38.076 184.285 38.56C183.449 39.0293 182.51 39.264 181.469 39.264ZM181.469 37.262C182.026 37.262 182.539 37.1227 183.009 36.844C183.493 36.5653 183.881 36.1547 184.175 35.612C184.468 35.0547 184.615 34.3653 184.615 33.544C184.615 32.7227 184.468 32.0407 184.175 31.498C183.896 30.9407 183.515 30.5227 183.031 30.244C182.561 29.9653 182.048 29.826 181.491 29.826C180.933 29.826 180.413 29.9653 179.929 30.244C179.459 30.5227 179.078 30.9407 178.785 31.498C178.491 32.0407 178.345 32.7227 178.345 33.544C178.345 34.3653 178.491 35.0547 178.785 35.612C179.078 36.1547 179.459 36.5653 179.929 36.844C180.398 37.1227 180.911 37.262 181.469 37.262ZM194.639 39.264C193.597 39.264 192.659 39.0293 191.823 38.56C191.001 38.076 190.349 37.4087 189.865 36.558C189.381 35.6927 189.139 34.688 189.139 33.544C189.139 32.4 189.381 31.4027 189.865 30.552C190.363 29.6867 191.031 29.0193 191.867 28.55C192.703 28.066 193.634 27.824 194.661 27.824C195.702 27.824 196.633 28.066 197.455 28.55C198.291 29.0193 198.951 29.6867 199.435 30.552C199.933 31.4027 200.183 32.4 200.183 33.544C200.183 34.688 199.933 35.6927 199.435 36.558C198.951 37.4087 198.291 38.076 197.455 38.56C196.619 39.0293 195.68 39.264 194.639 39.264ZM194.639 37.262C195.196 37.262 195.709 37.1227 196.179 36.844C196.663 36.5653 197.051 36.1547 197.345 35.612C197.638 35.0547 197.785 34.3653 197.785 33.544C197.785 32.7227 197.638 32.0407 197.345 31.498C197.066 30.9407 196.685 30.5227 196.201 30.244C195.731 29.9653 195.218 29.826 194.661 29.826C194.103 29.826 193.583 29.9653 193.099 30.244C192.629 30.5227 192.248 30.9407 191.955 31.498C191.661 32.0407 191.515 32.7227 191.515 33.544C191.515 34.3653 191.661 35.0547 191.955 35.612C192.248 36.1547 192.629 36.5653 193.099 36.844C193.568 37.1227 194.081 37.262 194.639 37.262ZM206.59 35.656C206.018 35.656 205.49 35.59 205.006 35.458L204.06 36.382C204.222 36.4847 204.42 36.5727 204.654 36.646C204.889 36.7193 205.219 36.7853 205.644 36.844C206.07 36.9027 206.649 36.9613 207.382 37.02C208.834 37.152 209.883 37.504 210.528 38.076C211.174 38.6333 211.496 39.3813 211.496 40.32C211.496 40.9653 211.32 41.574 210.968 42.146C210.631 42.7327 210.096 43.202 209.362 43.554C208.644 43.9207 207.72 44.104 206.59 44.104C205.065 44.104 203.826 43.8107 202.872 43.224C201.934 42.652 201.464 41.7793 201.464 40.606C201.464 40.1513 201.582 39.6967 201.816 39.242C202.066 38.802 202.454 38.384 202.982 37.988C202.674 37.856 202.403 37.7167 202.168 37.57C201.948 37.4087 201.75 37.2473 201.574 37.086V36.558L203.466 34.622C202.616 33.8887 202.19 32.928 202.19 31.74C202.19 31.0213 202.359 30.3687 202.696 29.782C203.048 29.1807 203.554 28.704 204.214 28.352C204.874 28 205.666 27.824 206.59 27.824C207.206 27.824 207.778 27.912 208.306 28.088H212.376V29.628L210.44 29.738C210.792 30.3393 210.968 31.0067 210.968 31.74C210.968 32.4733 210.792 33.1333 210.44 33.72C210.103 34.3067 209.604 34.776 208.944 35.128C208.299 35.48 207.514 35.656 206.59 35.656ZM206.59 33.83C207.265 33.83 207.808 33.654 208.218 33.302C208.644 32.9353 208.856 32.422 208.856 31.762C208.856 31.0873 208.644 30.574 208.218 30.222C207.808 29.87 207.265 29.694 206.59 29.694C205.901 29.694 205.344 29.87 204.918 30.222C204.508 30.574 204.302 31.0873 204.302 31.762C204.302 32.422 204.508 32.9353 204.918 33.302C205.344 33.654 205.901 33.83 206.59 33.83ZM203.664 40.386C203.664 41.0167 203.943 41.486 204.5 41.794C205.058 42.1167 205.754 42.278 206.59 42.278C207.397 42.278 208.05 42.102 208.548 41.75C209.047 41.4127 209.296 40.958 209.296 40.386C209.296 39.9607 209.128 39.594 208.79 39.286C208.453 38.9927 207.815 38.8093 206.876 38.736C206.172 38.692 205.549 38.626 205.006 38.538C204.493 38.8167 204.141 39.1173 203.95 39.44C203.76 39.7627 203.664 40.078 203.664 40.386ZM214.456 39V23.16H216.788V39H214.456ZM224.846 39.264C223.775 39.264 222.822 39.0293 221.986 38.56C221.164 38.076 220.519 37.4087 220.05 36.558C219.58 35.7073 219.346 34.7173 219.346 33.588C219.346 32.444 219.573 31.4393 220.028 30.574C220.497 29.7087 221.142 29.034 221.964 28.55C222.8 28.066 223.768 27.824 224.868 27.824C225.938 27.824 226.87 28.066 227.662 28.55C228.454 29.0193 229.07 29.65 229.51 30.442C229.95 31.234 230.17 32.1067 230.17 33.06C230.17 33.2067 230.162 33.368 230.148 33.544C230.148 33.7053 230.14 33.8887 230.126 34.094H221.634C221.707 35.15 222.052 35.9567 222.668 36.514C223.298 37.0567 224.024 37.328 224.846 37.328C225.506 37.328 226.056 37.1813 226.496 36.888C226.95 36.58 227.288 36.1693 227.508 35.656H229.84C229.546 36.6827 228.96 37.5407 228.08 38.23C227.214 38.9193 226.136 39.264 224.846 39.264ZM224.846 29.738C224.068 29.738 223.379 29.9727 222.778 30.442C222.176 30.8967 221.81 31.586 221.678 32.51H227.838C227.794 31.6593 227.493 30.9847 226.936 30.486C226.378 29.9873 225.682 29.738 224.846 29.738Z" fill="white"/>
<rect x="0.5" y="0.5" width="261" height="62" rx="15.5" stroke="url(#paint1_linear_2495_13040)"/>
<defs>
<linearGradient id="paint0_linear_2495_13040" x1="9.67303e-07" y1="1.47807e-05" x2="137.057" y2="166.098" gradientUnits="userSpaceOnUse">
<stop stop-color="#9D50BB"/>
<stop offset="1" stop-color="#6E48AA"/>
</linearGradient>
<linearGradient id="paint1_linear_2495_13040" x1="0" y1="0" x2="28.6416" y2="119.113" gradientUnits="userSpaceOnUse">
<stop stop-color="#121212"/>
<stop offset="0.5" stop-color="#121212" stop-opacity="0.8"/>
<stop offset="1" stop-color="#121212" stop-opacity="0.6"/>
</linearGradient>
</defs>
</svg>
