<?xml version="1.0" standalone="no"?>
<!DOCTYPE svg PUBLIC "-//W3C//DTD SVG 20010904//EN"
 "http://www.w3.org/TR/2001/REC-SVG-20010904/DTD/svg10.dtd">
<svg version="1.0" xmlns="http://www.w3.org/2000/svg"
 width="280.000000pt" height="280.000000pt" viewBox="0 0 280.000000 280.000000"
 preserveAspectRatio="xMidYMid meet">
<metadata>
Created by potrace 1.14, written by Peter Selinger 2001-2017
</metadata>
<g transform="translate(0.000000,280.000000) scale(0.100000,-0.100000)"
fill="#000000" stroke="none">
<path d="M1245 2787 c-15 -11 -18 -25 -17 -58 4 -57 29 -153 52 -198 52 -104
65 -215 37 -318 -18 -62 -7 -80 37 -64 38 15 60 78 70 203 5 62 -7 112 -55
225 -22 51 -45 122 -52 156 -14 67 -33 82 -72 54z"/>
<path d="M1203 2427 c-28 -12 -36 -33 -22 -59 6 -11 11 -42 11 -68 -1 -44 -10
-75 -64 -217 -26 -71 -29 -189 -5 -244 40 -90 95 -121 138 -78 l21 21 -35 37
c-19 20 -40 46 -46 59 -19 37 -14 111 14 202 60 196 72 268 54 317 -11 30 -39
43 -66 30z"/>
<path d="M647 1772 c-45 -9 -45 -8 -43 -893 1 -808 2 -838 20 -858 18 -19 30
-21 147 -21 137 0 152 5 165 55 14 57 -20 95 -85 95 -91 0 -85 -55 -86 718 -1
419 2 686 8 699 11 26 36 36 90 39 20 1 44 2 52 3 23 2 44 53 39 95 -8 64 -20
69 -162 71 -70 0 -135 -1 -145 -3z"/>
<path d="M1887 1772 c-42 -8 -57 -113 -21 -149 8 -9 37 -16 67 -18 29 -2 57
-4 62 -4 6 -1 18 -13 26 -28 14 -25 15 -109 13 -698 -1 -369 -2 -673 -3 -677
-4 -25 -44 -48 -85 -48 -63 0 -99 -44 -81 -99 14 -46 29 -51 165 -51 125 0
129 1 148 25 19 23 19 49 19 863 0 783 -1 841 -17 863 -17 22 -24 23 -146 24
-71 0 -137 -1 -147 -3z"/>
<path d="M1327 1564 c-1 -1 -40 -4 -86 -8 -46 -3 -86 -8 -90 -10 -3 -2 -24 -7
-46 -10 -46 -7 -120 -33 -153 -54 -31 -20 -39 -58 -17 -82 81 -90 530 -124
780 -60 117 30 167 68 149 113 -15 40 -177 92 -324 104 -60 5 -210 10 -213 7z"/>
<path d="M867 1088 c-9 -5 -12 -105 -13 -412 0 -223 3 -411 7 -417 11 -18 127
-19 145 -2 8 8 14 18 14 23 0 16 -32 41 -46 36 -7 -3 -20 2 -29 10 -13 13 -15
62 -15 337 0 177 4 327 8 334 4 6 19 13 34 15 38 5 56 24 50 53 -2 14 -7 25
-11 26 -31 5 -134 3 -144 -3z"/>
</g>
</svg>
